<svg width="79" height="35" viewBox="0 0 79 35" fill="none" xmlns="http://www.w3.org/2000/svg">
<path d="M46.7286 28.5515V33.1953C46.7286 33.7973 46.2122 34.3133 45.6098 34.3133H22.805C22.2887 34.3133 21.9444 33.9693 21.7723 33.5393C21.6863 33.4534 21.6863 33.2813 21.6863 33.1953V28.5515C21.6863 27.9496 22.2026 27.4336 22.805 27.4336H45.6098C45.7819 27.4336 45.868 27.4336 45.9541 27.5196C46.0401 27.5196 46.0401 27.5196 46.1262 27.6056C46.3843 27.7776 46.6425 27.9496 46.6425 28.2936C46.6425 28.3796 46.6425 28.3795 46.6425 28.4655C46.7286 28.4655 46.7286 28.4655 46.7286 28.5515Z" fill="#F5DD64"/>
<path d="M45.3518 34.2269H23.9239C23.1494 34.2269 22.547 33.625 22.547 32.851V29.4111C22.547 28.6371 23.1494 28.0352 23.9239 28.0352H45.4379C46.2124 28.0352 46.8148 28.6371 46.8148 29.4111V32.765C46.7287 33.625 46.1264 34.2269 45.3518 34.2269Z" fill="#F0D03C"/>
<path d="M25.7309 33.1093H25.2146C24.9564 33.1093 24.7843 32.9373 24.7843 32.6793V28.3794C24.7843 28.1215 24.9564 27.9495 25.2146 27.9495H25.7309C25.9891 27.9495 26.1612 28.1215 26.1612 28.3794V32.6793C26.1612 32.8513 25.9891 33.1093 25.7309 33.1093Z" fill="#FAF1BB"/>
<path d="M22.9772 33.1093H22.4608C22.2026 33.1093 22.0305 32.9373 22.0305 32.6793V28.3794C22.0305 28.1215 22.2026 27.9495 22.4608 27.9495H22.9772C23.2353 27.9495 23.4075 28.1215 23.4075 28.3794V32.6793C23.4075 32.8513 23.2353 33.1093 22.9772 33.1093Z" fill="#F5E697"/>
<path d="M28.6568 33.1093H28.1405C27.8823 33.1093 27.7102 32.9373 27.7102 32.6793V28.3794C27.7102 28.1215 27.8823 27.9495 28.1405 27.9495H28.6568C28.915 27.9495 29.0871 28.1215 29.0871 28.3794V32.6793C29.0871 32.8513 28.915 33.1093 28.6568 33.1093Z" fill="#FAF1BB"/>
<path d="M31.5826 33.1093H31.0663C30.8081 33.1093 30.636 32.9373 30.636 32.6793V28.3794C30.636 28.1215 30.8081 27.9495 31.0663 27.9495H31.5826C31.8407 27.9495 32.0129 28.1215 32.0129 28.3794V32.6793C32.0129 32.8513 31.8407 33.1093 31.5826 33.1093Z" fill="#F7E37C"/>
<path d="M24.0957 33.9684H23.9236C23.7515 33.9684 23.5793 33.7964 23.5793 33.6244V28.0347C23.5793 27.8627 23.7515 27.6907 23.9236 27.6907H24.0957C24.2678 27.6907 24.4399 27.8627 24.4399 28.0347V33.6244C24.526 33.8824 24.3539 33.9684 24.0957 33.9684Z" fill="#D9802B"/>
<path d="M24.1819 33.9686C24.0098 33.9686 23.8376 33.7966 23.8376 33.6246V28.0348C23.8376 27.8628 24.0098 27.6909 24.1819 27.6909C24.354 27.6909 24.5261 27.8628 24.5261 28.0348V33.6246C24.5261 33.8826 24.354 33.9686 24.1819 33.9686Z" fill="#E59333"/>
<path d="M27.0213 33.9684H26.8492C26.6771 33.9684 26.505 33.7964 26.505 33.6244V28.0346C26.505 27.8626 26.6771 27.6906 26.8492 27.6906H27.0213C27.1934 27.6906 27.3655 27.8626 27.3655 28.0346V33.6244C27.4516 33.8824 27.2795 33.9684 27.0213 33.9684Z" fill="#D9802B"/>
<path d="M27.1074 33.9684C26.9353 33.9684 26.7632 33.7964 26.7632 33.6244V28.0346C26.7632 27.8626 26.9353 27.6906 27.1074 27.6906C27.2795 27.6906 27.4517 27.8626 27.4517 28.0346V33.6244C27.4517 33.8824 27.2795 33.9684 27.1074 33.9684Z" fill="#E59333"/>
<path d="M29.9471 33.9684H29.775C29.6029 33.9684 29.4308 33.7964 29.4308 33.6244V28.0346C29.4308 27.8626 29.6029 27.6906 29.775 27.6906H29.9471C30.1192 27.6906 30.2914 27.8626 30.2914 28.0346V33.6244C30.2914 33.8824 30.1192 33.9684 29.9471 33.9684Z" fill="#D9802B"/>
<path d="M30.0333 33.9684C29.8612 33.9684 29.6891 33.7964 29.6891 33.6244V28.0346C29.6891 27.8626 29.8612 27.6906 30.0333 27.6906C30.2054 27.6906 30.3776 27.8626 30.3776 28.0346V33.6244C30.2915 33.8824 30.2054 33.9684 30.0333 33.9684Z" fill="#E59333"/>
<path d="M32.8732 33.9684H32.7011C32.529 33.9684 32.3569 33.7964 32.3569 33.6244V28.0346C32.3569 27.8626 32.529 27.6906 32.7011 27.6906H32.8732C33.0453 27.6906 33.2174 27.8626 33.2174 28.0346V33.6244C33.2174 33.8824 33.0453 33.9684 32.8732 33.9684Z" fill="#D9802B"/>
<path d="M32.8732 33.9684C32.7011 33.9684 32.5289 33.7964 32.5289 33.6244V28.0346C32.5289 27.8626 32.7011 27.6906 32.8732 27.6906C33.0453 27.6906 33.2174 27.8626 33.2174 28.0346V33.6244C33.2174 33.8824 33.1314 33.9684 32.8732 33.9684Z" fill="#E59333"/>
<path d="M35.7991 33.9684H35.6269C35.4548 33.9684 35.2827 33.7964 35.2827 33.6244V28.0346C35.2827 27.8626 35.4548 27.6906 35.6269 27.6906H35.7991C35.9712 27.6906 36.1433 27.8626 36.1433 28.0346V33.6244C36.1433 33.8824 35.9712 33.9684 35.7991 33.9684Z" fill="#D9802B"/>
<path d="M35.7992 33.9684C35.6271 33.9684 35.455 33.7964 35.455 33.6244V28.0346C35.455 27.8626 35.6271 27.6906 35.7992 27.6906C35.9713 27.6906 36.1434 27.8626 36.1434 28.0346V33.6244C36.1434 33.8824 35.9713 33.9684 35.7992 33.9684Z" fill="#E59333"/>
<path d="M38.725 33.9684H38.5528C38.3807 33.9684 38.2086 33.7964 38.2086 33.6244V28.0346C38.2086 27.8626 38.3807 27.6906 38.5528 27.6906H38.725C38.8971 27.6906 39.0692 27.8626 39.0692 28.0346V33.6244C39.0692 33.8824 38.8971 33.9684 38.725 33.9684Z" fill="#D9802B"/>
<path d="M38.7247 33.9684C38.5526 33.9684 38.3805 33.7964 38.3805 33.6244V28.0346C38.3805 27.8626 38.5526 27.6906 38.7247 27.6906C38.8969 27.6906 39.069 27.8626 39.069 28.0346V33.6244C39.069 33.8824 38.8969 33.9684 38.7247 33.9684Z" fill="#E59333"/>
<path d="M41.5646 33.9684H41.3926C41.2204 33.9684 41.0483 33.7964 41.0483 33.6244V28.0346C41.0483 27.8626 41.2204 27.6906 41.3926 27.6906H41.5646C41.7367 27.6906 41.9089 27.8626 41.9089 28.0346V33.6244C41.9949 33.8824 41.8228 33.9684 41.5646 33.9684Z" fill="#D9802B"/>
<path d="M41.6509 33.9684C41.4787 33.9684 41.3066 33.7964 41.3066 33.6244V28.0346C41.3066 27.8626 41.4787 27.6906 41.6509 27.6906C41.823 27.6906 41.9951 27.8626 41.9951 28.0346V33.6244C41.9951 33.8824 41.823 33.9684 41.6509 33.9684Z" fill="#E59333"/>
<path d="M44.4906 33.9684H44.3185C44.1464 33.9684 43.9742 33.7964 43.9742 33.6244V28.0346C43.9742 27.8626 44.1464 27.6906 44.3185 27.6906H44.4906C44.6627 27.6906 44.8348 27.8626 44.8348 28.0346V33.6244C44.9209 33.8824 44.7488 33.9684 44.4906 33.9684Z" fill="#D9802B"/>
<path d="M44.5766 33.9684C44.4045 33.9684 44.2324 33.7964 44.2324 33.6244V28.0346C44.2324 27.8626 44.4045 27.6906 44.5766 27.6906C44.7488 27.6906 44.9209 27.8626 44.9209 28.0346V33.6244C44.9209 33.8824 44.7488 33.9684 44.5766 33.9684Z" fill="#E59333"/>
<path opacity="0.5" d="M46.729 28.3793C46.729 28.2933 46.729 28.2933 46.729 28.2073C46.6429 27.9493 46.4708 27.6913 46.2126 27.5193C46.1266 27.5193 46.1266 27.4333 46.0405 27.4333C45.9545 27.3473 45.7824 27.3473 45.6963 27.3473H39.7584L40.0166 27.4333C40.4469 27.6913 40.7911 28.1213 40.7911 28.5512V32.1631C40.7911 32.8511 40.2748 33.3671 39.5863 33.3671H21.9448C22.1169 33.797 22.5472 34.141 22.9775 34.141H45.7824C46.3848 34.141 46.9011 33.625 46.9011 33.0231V28.3793C46.729 28.4653 46.729 28.4653 46.729 28.3793Z" fill="#D9802B"/>
<path d="M78.8275 28.5515V33.1953C78.8275 33.7973 78.3112 34.3133 77.7088 34.3133H54.9039C54.3875 34.3133 54.0433 33.9693 53.8712 33.5393C53.7852 33.4534 53.7852 33.2813 53.7852 33.1953V28.5515C53.7852 27.9496 54.3015 27.4336 54.9039 27.4336H77.7088C77.8809 27.4336 77.9669 27.4336 78.053 27.5196C78.1391 27.5196 78.139 27.5196 78.2251 27.6056C78.4833 27.7776 78.7414 27.9496 78.7414 28.2936C78.7414 28.3796 78.7414 28.3795 78.7414 28.4655C78.8275 28.4655 78.8275 28.4655 78.8275 28.5515Z" fill="#F5DD64"/>
<path d="M77.3644 34.2269H55.9365C55.162 34.2269 54.5596 33.625 54.5596 32.851V29.4111C54.5596 28.6371 55.162 28.0352 55.9365 28.0352H77.4505C78.225 28.0352 78.8274 28.6371 78.8274 29.4111V32.765C78.8274 33.625 78.1389 34.2269 77.3644 34.2269Z" fill="#F0D03C"/>
<path d="M57.7436 33.1093H57.2273C56.9691 33.1093 56.797 32.9373 56.797 32.6793V28.3794C56.797 28.1215 56.9691 27.9495 57.2273 27.9495H57.7436C58.0018 27.9495 58.1739 28.1215 58.1739 28.3794V32.6793C58.1739 32.8513 58.0018 33.1093 57.7436 33.1093Z" fill="#FAF1BB"/>
<path d="M54.9901 33.1093H54.4737C54.2156 33.1093 54.0435 32.9373 54.0435 32.6793V28.3794C54.0435 28.1215 54.2156 27.9495 54.4737 27.9495H54.9901C55.2483 27.9495 55.4204 28.1215 55.4204 28.3794V32.6793C55.4204 32.8513 55.2483 33.1093 54.9901 33.1093Z" fill="#F5E697"/>
<path d="M60.7557 33.1093H60.2394C59.9812 33.1093 59.8091 32.9373 59.8091 32.6793V28.3794C59.8091 28.1215 59.9812 27.9495 60.2394 27.9495H60.7557C61.0138 27.9495 61.186 28.1215 61.186 28.3794V32.6793C61.186 32.8513 60.9278 33.1093 60.7557 33.1093Z" fill="#FAF1BB"/>
<path d="M63.5956 33.1093H63.0792C62.821 33.1093 62.6489 32.9373 62.6489 32.6793V28.3794C62.6489 28.1215 62.821 27.9495 63.0792 27.9495H63.5956C63.8537 27.9495 64.0258 28.1215 64.0258 28.3794V32.6793C64.0258 32.8513 63.8537 33.1093 63.5956 33.1093Z" fill="#F7E37C"/>
<path d="M56.1945 33.9684H56.0224C55.8503 33.9684 55.6782 33.7964 55.6782 33.6244V28.0347C55.6782 27.8627 55.8503 27.6907 56.0224 27.6907H56.1945C56.3667 27.6907 56.5388 27.8627 56.5388 28.0347V33.6244C56.5388 33.8824 56.3667 33.9684 56.1945 33.9684Z" fill="#D9802B"/>
<path d="M56.1948 33.9686C56.0227 33.9686 55.8506 33.7966 55.8506 33.6246V28.0348C55.8506 27.8628 56.0227 27.6909 56.1948 27.6909C56.3669 27.6909 56.5391 27.8628 56.5391 28.0348V33.6246C56.5391 33.8826 56.3669 33.9686 56.1948 33.9686Z" fill="#E59333"/>
<path d="M59.0344 33.9684H58.9483C58.7762 33.9684 58.6041 33.7964 58.6041 33.6244V28.0346C58.6041 27.8626 58.7762 27.6906 58.9483 27.6906H59.1205C59.2926 27.6906 59.4647 27.8626 59.4647 28.0346V33.6244C59.4647 33.8824 59.2926 33.9684 59.0344 33.9684Z" fill="#D9802B"/>
<path d="M59.1204 33.9684C58.9483 33.9684 58.7761 33.7964 58.7761 33.6244V28.0346C58.7761 27.8626 58.9483 27.6906 59.1204 27.6906C59.2925 27.6906 59.4646 27.8626 59.4646 28.0346V33.6244C59.4646 33.8824 59.2925 33.9684 59.1204 33.9684Z" fill="#E59333"/>
<path d="M61.9603 33.9684H61.7882C61.6161 33.9684 61.444 33.7964 61.444 33.6244V28.0346C61.444 27.8626 61.6161 27.6906 61.7882 27.6906H61.9603C62.1324 27.6906 62.3045 27.8626 62.3045 28.0346V33.6244C62.3906 33.8824 62.2185 33.9684 61.9603 33.9684Z" fill="#D9802B"/>
<path d="M62.0465 33.9684C61.8744 33.9684 61.7023 33.7964 61.7023 33.6244V28.0346C61.7023 27.8626 61.8744 27.6906 62.0465 27.6906C62.2186 27.6906 62.3907 27.8626 62.3907 28.0346V33.6244C62.3907 33.8824 62.2186 33.9684 62.0465 33.9684Z" fill="#E59333"/>
<path d="M64.8861 33.9684H64.714C64.5419 33.9684 64.3698 33.7964 64.3698 33.6244V28.0346C64.3698 27.8626 64.5419 27.6906 64.714 27.6906H64.8861C65.0582 27.6906 65.2303 27.8626 65.2303 28.0346V33.6244C65.2303 33.8824 65.1443 33.9684 64.8861 33.9684Z" fill="#D9802B"/>
<path d="M64.9722 33.9684C64.8001 33.9684 64.6281 33.7964 64.6281 33.6244V28.0346C64.6281 27.8626 64.8001 27.6906 64.9722 27.6906C65.1444 27.6906 65.3164 27.8626 65.3164 28.0346V33.6244C65.2304 33.8824 65.1444 33.9684 64.9722 33.9684Z" fill="#E59333"/>
<path d="M67.8122 33.9684H67.6401C67.468 33.9684 67.2959 33.7964 67.2959 33.6244V28.0346C67.2959 27.8626 67.468 27.6906 67.6401 27.6906H67.8122C67.9843 27.6906 68.1564 27.8626 68.1564 28.0346V33.6244C68.1564 33.8824 67.9843 33.9684 67.8122 33.9684Z" fill="#D9802B"/>
<path d="M67.8984 33.9684C67.7263 33.9684 67.5542 33.7964 67.5542 33.6244V28.0346C67.5542 27.8626 67.7263 27.6906 67.8984 27.6906C68.0705 27.6906 68.2426 27.8626 68.2426 28.0346V33.6244C68.1566 33.8824 68.0705 33.9684 67.8984 33.9684Z" fill="#E59333"/>
<path d="M70.738 33.9684H70.5659C70.3938 33.9684 70.2217 33.7964 70.2217 33.6244V28.0346C70.2217 27.8626 70.3938 27.6906 70.5659 27.6906H70.738C70.9101 27.6906 71.0823 27.8626 71.0823 28.0346V33.6244C71.0823 33.8824 70.9101 33.9684 70.738 33.9684Z" fill="#D9802B"/>
<path d="M70.7379 33.9684C70.5658 33.9684 70.3937 33.7964 70.3937 33.6244V28.0346C70.3937 27.8626 70.5658 27.6906 70.7379 27.6906C70.91 27.6906 71.0822 27.8626 71.0822 28.0346V33.6244C71.0822 33.8824 70.91 33.9684 70.7379 33.9684Z" fill="#E59333"/>
<path d="M73.6639 33.9684H73.4918C73.3197 33.9684 73.1476 33.7964 73.1476 33.6244V28.0346C73.1476 27.8626 73.3197 27.6906 73.4918 27.6906H73.6639C73.836 27.6906 74.0082 27.8626 74.0082 28.0346V33.6244C74.0082 33.8824 73.836 33.9684 73.6639 33.9684Z" fill="#D9802B"/>
<path d="M73.664 33.9684C73.4919 33.9684 73.3198 33.7964 73.3198 33.6244V28.0346C73.3198 27.8626 73.4919 27.6906 73.664 27.6906C73.8362 27.6906 74.0083 27.8626 74.0083 28.0346V33.6244C74.0083 33.8824 73.8362 33.9684 73.664 33.9684Z" fill="#E59333"/>
<path d="M76.504 33.9684H76.3319C76.1598 33.9684 75.9877 33.7964 75.9877 33.6244V28.0346C75.9877 27.8626 76.1598 27.6906 76.3319 27.6906H76.504C76.6761 27.6906 76.8482 27.8626 76.8482 28.0346V33.6244C76.9343 33.8824 76.7622 33.9684 76.504 33.9684Z" fill="#D9802B"/>
<path d="M76.5898 33.9684C76.4177 33.9684 76.2456 33.7964 76.2456 33.6244V28.0346C76.2456 27.8626 76.4177 27.6906 76.5898 27.6906C76.762 27.6906 76.9341 27.8626 76.9341 28.0346V33.6244C76.9341 33.8824 76.762 33.9684 76.5898 33.9684Z" fill="#E59333"/>
<path opacity="0.5" d="M78.8279 28.3793C78.8279 28.2933 78.8279 28.2933 78.8279 28.2073C78.7418 27.9493 78.5697 27.6913 78.3115 27.5193C78.2255 27.5193 78.2255 27.4333 78.1394 27.4333C78.0533 27.3473 77.8812 27.3473 77.7952 27.3473H71.8573L72.1155 27.4333C72.5458 27.6913 72.89 28.1213 72.89 28.5512V32.1631C72.89 32.8511 72.3736 33.3671 71.6852 33.3671H54.0437C54.2158 33.797 54.6461 34.141 55.0764 34.141H77.8812C78.4836 34.141 79 33.625 79 33.0231V28.3793C78.8279 28.4653 78.8279 28.4653 78.8279 28.3793Z" fill="#D9802B"/>
<path d="M49.052 21.671V26.3148C49.052 26.9168 48.5357 27.4328 47.9333 27.4328H25.1284C24.6121 27.4328 24.2678 27.0888 24.0957 26.6588C24.0096 26.5728 24.0096 26.4008 24.0096 26.3148V21.671C24.0096 21.069 24.526 20.553 25.1284 20.553H47.9333C48.1054 20.553 48.1914 20.553 48.2775 20.639C48.3635 20.639 48.3635 20.639 48.4496 20.725C48.7078 20.897 48.9659 21.069 48.9659 21.413C48.9659 21.499 48.9659 21.499 48.9659 21.585L49.052 21.671Z" fill="#F5DD64"/>
<path d="M47.5891 27.4327H26.1612C25.3867 27.4327 24.7843 26.8307 24.7843 26.0567V22.6169C24.7843 21.8429 25.3867 21.2409 26.1612 21.2409H47.6752C48.4497 21.2409 49.0521 21.8429 49.0521 22.6169V25.9707C49.0521 26.8307 48.3636 27.4327 47.5891 27.4327Z" fill="#F0D03C"/>
<path d="M27.9683 26.2293H27.4519C27.1937 26.2293 27.0216 26.0573 27.0216 25.7993V21.4995C27.0216 21.2415 27.1937 21.0695 27.4519 21.0695H27.9683C28.2264 21.0695 28.3986 21.2415 28.3986 21.4995V25.7993C28.3986 26.0573 28.2264 26.2293 27.9683 26.2293Z" fill="#FAF1BB"/>
<path d="M25.2143 26.2293H24.698C24.4398 26.2293 24.2677 26.0573 24.2677 25.7993V21.4995C24.2677 21.2415 24.4398 21.0695 24.698 21.0695H25.2143C25.4725 21.0695 25.6446 21.2415 25.6446 21.4995V25.7993C25.6446 26.0573 25.4725 26.2293 25.2143 26.2293Z" fill="#F5E697"/>
<path d="M30.8944 26.2293H30.378C30.1199 26.2293 29.9478 26.0573 29.9478 25.7993V21.4995C29.9478 21.2415 30.1199 21.0695 30.378 21.0695H30.8944C31.1525 21.0695 31.3246 21.2415 31.3246 21.4995V25.7993C31.4107 26.0573 31.1525 26.2293 30.8944 26.2293Z" fill="#FAF1BB"/>
<path d="M33.8201 26.2293H33.3038C33.0456 26.2293 32.8735 26.0573 32.8735 25.7993V21.4995C32.8735 21.2415 33.0456 21.0695 33.3038 21.0695H33.8201C34.0783 21.0695 34.2504 21.2415 34.2504 21.4995V25.7993C34.2504 26.0573 34.0783 26.2293 33.8201 26.2293Z" fill="#F7E37C"/>
<path d="M26.4189 27.1741H26.2468C26.0747 27.1741 25.9026 27.0021 25.9026 26.8301V21.2403C25.9026 21.0684 26.0747 20.8964 26.2468 20.8964H26.4189C26.5911 20.8964 26.7632 21.0684 26.7632 21.2403V26.8301C26.7632 27.0021 26.5911 27.1741 26.4189 27.1741Z" fill="#D9802B"/>
<path d="M26.4191 27.1742C26.247 27.1742 26.0748 27.0022 26.0748 26.8302V21.2404C26.0748 21.0684 26.247 20.8964 26.4191 20.8964C26.5912 20.8964 26.7633 21.0684 26.7633 21.2404V26.8302C26.7633 27.0022 26.5912 27.1742 26.4191 27.1742Z" fill="#E59333"/>
<path d="M29.2587 27.1742H29.0865C28.9144 27.1742 28.7423 27.0022 28.7423 26.8302V21.2404C28.7423 21.0684 28.9144 20.8964 29.0865 20.8964H29.2587C29.4308 20.8964 29.6029 21.0684 29.6029 21.2404V26.8302C29.6889 27.0022 29.5168 27.1742 29.2587 27.1742Z" fill="#D9802B"/>
<path d="M29.3448 27.1742C29.1727 27.1742 29.0006 27.0022 29.0006 26.8302V21.2404C29.0006 21.0684 29.1727 20.8964 29.3448 20.8964C29.5169 20.8964 29.689 21.0684 29.689 21.2404V26.8302C29.689 27.0022 29.5169 27.1742 29.3448 27.1742Z" fill="#E59333"/>
<path d="M32.1845 27.1742H32.0124C31.8403 27.1742 31.6682 27.0022 31.6682 26.8302V21.2404C31.6682 21.0684 31.8403 20.8964 32.0124 20.8964H32.1845C32.3566 20.8964 32.5287 21.0684 32.5287 21.2404V26.8302C32.6148 27.0022 32.4427 27.1742 32.1845 27.1742Z" fill="#D9802B"/>
<path d="M32.2706 27.1742C32.0985 27.1742 31.9264 27.0022 31.9264 26.8302V21.2404C31.9264 21.0684 32.0985 20.8964 32.2706 20.8964C32.4427 20.8964 32.6149 21.0684 32.6149 21.2404V26.8302C32.6149 27.0022 32.4427 27.1742 32.2706 27.1742Z" fill="#E59333"/>
<path d="M35.1103 27.1742H34.9382C34.7661 27.1742 34.594 27.0022 34.594 26.8302V21.2404C34.594 21.0684 34.7661 20.8964 34.9382 20.8964H35.1103C35.2824 20.8964 35.4546 21.0684 35.4546 21.2404V26.8302C35.4546 27.0022 35.2824 27.1742 35.1103 27.1742Z" fill="#D9802B"/>
<path d="M35.1964 27.1742C35.0243 27.1742 34.8522 27.0022 34.8522 26.8302V21.2404C34.8522 21.0684 35.0243 20.8964 35.1964 20.8964C35.3685 20.8964 35.5406 21.0684 35.5406 21.2404V26.8302C35.4546 27.0022 35.3685 27.1742 35.1964 27.1742Z" fill="#E59333"/>
<path d="M38.0364 27.1742H37.8643C37.6922 27.1742 37.5201 27.0022 37.5201 26.8302V21.2404C37.5201 21.0684 37.6922 20.8964 37.8643 20.8964H38.0364C38.2085 20.8964 38.3806 21.0684 38.3806 21.2404V26.8302C38.3806 27.0022 38.2085 27.1742 38.0364 27.1742Z" fill="#D9802B"/>
<path d="M38.0362 27.1742C37.8641 27.1742 37.692 27.0022 37.692 26.8302V21.2404C37.692 21.0684 37.8641 20.8964 38.0362 20.8964C38.2084 20.8964 38.3805 21.0684 38.3805 21.2404V26.8302C38.3805 27.0022 38.2084 27.1742 38.0362 27.1742Z" fill="#E59333"/>
<path d="M40.9623 27.1742H40.7901C40.618 27.1742 40.4459 27.0022 40.4459 26.8302V21.2404C40.4459 21.0684 40.618 20.8964 40.7901 20.8964H40.9623C41.1344 20.8964 41.3065 21.0684 41.3065 21.2404V26.8302C41.3065 27.0022 41.1344 27.1742 40.9623 27.1742Z" fill="#D9802B"/>
<path d="M40.9622 27.1742C40.79 27.1742 40.6179 27.0022 40.6179 26.8302V21.2404C40.6179 21.0684 40.79 20.8964 40.9622 20.8964C41.1343 20.8964 41.3064 21.0684 41.3064 21.2404V26.8302C41.3064 27.0022 41.1343 27.1742 40.9622 27.1742Z" fill="#E59333"/>
<path d="M43.8021 27.1742H43.63C43.4579 27.1742 43.2858 27.0022 43.2858 26.8302V21.2404C43.2858 21.0684 43.4579 20.8964 43.63 20.8964H43.8021C43.9742 20.8964 44.1463 21.0684 44.1463 21.2404V26.8302C44.2324 27.0022 44.0603 27.1742 43.8021 27.1742Z" fill="#D9802B"/>
<path d="M43.8882 27.1742C43.7161 27.1742 43.5439 27.0022 43.5439 26.8302V21.2404C43.5439 21.0684 43.7161 20.8964 43.8882 20.8964C44.0603 20.8964 44.2324 21.0684 44.2324 21.2404V26.8302C44.2324 27.0022 44.0603 27.1742 43.8882 27.1742Z" fill="#E59333"/>
<path d="M46.7279 27.1742H46.5558C46.3837 27.1742 46.2115 27.0022 46.2115 26.8302V21.2404C46.2115 21.0684 46.3837 20.8964 46.5558 20.8964H46.7279C46.9 20.8964 47.0721 21.0684 47.0721 21.2404V26.8302C47.1582 27.0022 46.986 27.1742 46.7279 27.1742Z" fill="#D9802B"/>
<path d="M46.8141 27.1742C46.642 27.1742 46.4698 27.0022 46.4698 26.8302V21.2404C46.4698 21.0684 46.642 20.8964 46.8141 20.8964C46.9862 20.8964 47.1583 21.0684 47.1583 21.2404V26.8302C47.1583 27.0022 46.9862 27.1742 46.8141 27.1742Z" fill="#E59333"/>
<path opacity="0.5" d="M48.9662 21.5858C48.9662 21.4998 48.9662 21.4999 48.9662 21.4139C48.8801 21.1559 48.708 20.8979 48.4498 20.7259C48.3638 20.7259 48.3638 20.6399 48.2777 20.6399C48.1917 20.5539 48.0196 20.5539 47.9335 20.5539H41.9956L42.2538 20.6399C42.6841 20.8979 43.0283 21.3279 43.0283 21.7578V25.3697C43.0283 26.0577 42.512 26.5736 41.8235 26.5736H24.182C24.3541 27.0036 24.7844 27.3476 25.2147 27.3476H48.0196C48.622 27.3476 49.1383 26.8316 49.1383 26.2297V21.5858C49.0523 21.6718 48.9662 21.5858 48.9662 21.5858Z" fill="#D9802B"/>
<path d="M45.7819 14.8773V19.5211C45.7819 20.1231 45.2655 20.6391 44.6632 20.6391H21.8583C21.342 20.6391 20.9978 20.2951 20.8257 19.9511C20.7396 19.8651 20.7396 19.6931 20.7396 19.6071V14.8773C20.7396 14.2753 21.2559 13.7593 21.8583 13.7593H44.6632C44.8353 13.7593 44.9213 13.7593 45.0074 13.8453C45.0934 13.8453 45.0934 13.8453 45.1795 13.9313C45.4377 14.1033 45.6958 14.2753 45.6958 14.6193C45.6958 14.7053 45.6958 14.7053 45.6958 14.7913C45.7819 14.7913 45.7819 14.8773 45.7819 14.8773Z" fill="#F5DD64"/>
<path d="M44.3189 20.6396H22.8909C22.1164 20.6396 21.514 20.0376 21.514 19.2636V15.8238C21.514 15.0498 22.1164 14.4478 22.8909 14.4478H44.405C45.1795 14.4478 45.7819 15.0498 45.7819 15.8238V19.1776C45.7819 19.9516 45.0934 20.6396 44.3189 20.6396Z" fill="#F0D03C"/>
<path d="M24.6983 19.4356H24.182C23.9238 19.4356 23.7517 19.2636 23.7517 19.0056V14.7058C23.7517 14.4478 23.9238 14.2758 24.182 14.2758H24.6983C24.9565 14.2758 25.1286 14.4478 25.1286 14.7058V19.0056C25.1286 19.2636 24.9565 19.4356 24.6983 19.4356Z" fill="#FAF1BB"/>
<path d="M21.9446 19.4356H21.4282C21.17 19.4356 20.9979 19.2636 20.9979 19.0056V14.7058C20.9979 14.4478 21.17 14.2758 21.4282 14.2758H21.9446C22.2028 14.2758 22.3749 14.4478 22.3749 14.7058V19.0056C22.3749 19.2636 22.2028 19.4356 21.9446 19.4356Z" fill="#F5E697"/>
<path d="M27.7101 19.4356H27.1938C26.9357 19.4356 26.7635 19.2636 26.7635 19.0056V14.7058C26.7635 14.4478 26.9357 14.2758 27.1938 14.2758H27.7101C27.9683 14.2758 28.1404 14.4478 28.1404 14.7058V19.0056C28.1404 19.2636 27.8823 19.4356 27.7101 19.4356Z" fill="#FAF1BB"/>
<path d="M30.55 19.4356H30.0337C29.7755 19.4356 29.6034 19.2636 29.6034 19.0056V14.7058C29.6034 14.4478 29.7755 14.2758 30.0337 14.2758H30.55C30.8082 14.2758 30.9803 14.4478 30.9803 14.7058V19.0056C30.9803 19.2636 30.8082 19.4356 30.55 19.4356Z" fill="#F7E37C"/>
<path d="M23.149 20.3807H22.9769C22.8048 20.3807 22.6327 20.2087 22.6327 20.0367V14.4469C22.6327 14.275 22.8048 14.103 22.9769 14.103H23.149C23.3211 14.103 23.4932 14.275 23.4932 14.4469V20.0367C23.4932 20.2087 23.3211 20.3807 23.149 20.3807Z" fill="#D9802B"/>
<path d="M23.1494 20.3814C22.9773 20.3814 22.8052 20.2094 22.8052 20.0375V14.4477C22.8052 14.2757 22.9773 14.1037 23.1494 14.1037C23.3215 14.1037 23.4936 14.2757 23.4936 14.4477V20.0375C23.4936 20.2094 23.3215 20.3814 23.1494 20.3814Z" fill="#E59333"/>
<path d="M25.9888 20.3811H25.8167C25.6445 20.3811 25.4724 20.2091 25.4724 20.0372V14.4474C25.4724 14.2754 25.6445 14.1034 25.8167 14.1034H25.9888C26.1609 14.1034 26.333 14.2754 26.333 14.4474V20.0372C26.4191 20.2091 26.247 20.3811 25.9888 20.3811Z" fill="#D9802B"/>
<path d="M26.0749 20.3811C25.9028 20.3811 25.7307 20.2091 25.7307 20.0372V14.4474C25.7307 14.2754 25.9028 14.1034 26.0749 14.1034C26.2471 14.1034 26.4192 14.2754 26.4192 14.4474V20.0372C26.4192 20.2091 26.2471 20.3811 26.0749 20.3811Z" fill="#E59333"/>
<path d="M28.9148 20.3811H28.8287C28.6566 20.3811 28.4845 20.2091 28.4845 20.0372V14.4474C28.4845 14.2754 28.6566 14.1034 28.8287 14.1034H29.0008C29.173 14.1034 29.3451 14.2754 29.3451 14.4474V20.0372C29.3451 20.2091 29.173 20.3811 28.9148 20.3811Z" fill="#D9802B"/>
<path d="M29.0007 20.3811C28.8286 20.3811 28.6565 20.2091 28.6565 20.0372V14.4474C28.6565 14.2754 28.8286 14.1034 29.0007 14.1034C29.1728 14.1034 29.3449 14.2754 29.3449 14.4474V20.0372C29.3449 20.2091 29.1728 20.3811 29.0007 20.3811Z" fill="#E59333"/>
<path d="M31.8407 20.3811H31.6686C31.4965 20.3811 31.3243 20.2091 31.3243 20.0372V14.4474C31.3243 14.2754 31.4965 14.1034 31.6686 14.1034H31.8407C32.0128 14.1034 32.1849 14.2754 32.1849 14.4474V20.0372C32.1849 20.2091 32.0128 20.3811 31.8407 20.3811Z" fill="#D9802B"/>
<path d="M31.9265 20.3811C31.7544 20.3811 31.5823 20.2091 31.5823 20.0372V14.4474C31.5823 14.2754 31.7544 14.1034 31.9265 14.1034C32.0986 14.1034 32.2707 14.2754 32.2707 14.4474V20.0372C32.1847 20.2091 32.0986 20.3811 31.9265 20.3811Z" fill="#E59333"/>
<path d="M34.7664 20.3811H34.5944C34.4222 20.3811 34.2501 20.2091 34.2501 20.0372V14.4474C34.2501 14.2754 34.4222 14.1034 34.5944 14.1034H34.7664C34.9386 14.1034 35.1107 14.2754 35.1107 14.4474V20.0372C35.1107 20.2091 34.9386 20.3811 34.7664 20.3811Z" fill="#D9802B"/>
<path d="M34.7667 20.3811C34.5946 20.3811 34.4225 20.2091 34.4225 20.0372V14.4474C34.4225 14.2754 34.5946 14.1034 34.7667 14.1034C34.9388 14.1034 35.1109 14.2754 35.1109 14.4474V20.0372C35.1109 20.2091 35.0249 20.3811 34.7667 20.3811Z" fill="#E59333"/>
<path d="M37.6926 20.3811H37.5205C37.3484 20.3811 37.1763 20.2091 37.1763 20.0372V14.4474C37.1763 14.2754 37.3484 14.1034 37.5205 14.1034H37.6926C37.8647 14.1034 38.0368 14.2754 38.0368 14.4474V20.0372C38.0368 20.2091 37.8647 20.3811 37.6926 20.3811Z" fill="#D9802B"/>
<path d="M37.6925 20.3811C37.5204 20.3811 37.3483 20.2091 37.3483 20.0372V14.4474C37.3483 14.2754 37.5204 14.1034 37.6925 14.1034C37.8646 14.1034 38.0367 14.2754 38.0367 14.4474V20.0372C38.0367 20.2091 37.8646 20.3811 37.6925 20.3811Z" fill="#E59333"/>
<path d="M40.6184 20.3811H40.4463C40.2742 20.3811 40.1021 20.2091 40.1021 20.0372V14.4474C40.1021 14.2754 40.2742 14.1034 40.4463 14.1034H40.6184C40.7905 14.1034 40.9626 14.2754 40.9626 14.4474V20.0372C40.9626 20.2091 40.7905 20.3811 40.6184 20.3811Z" fill="#D9802B"/>
<path d="M40.6183 20.3811C40.4462 20.3811 40.274 20.2091 40.274 20.0372V14.4474C40.274 14.2754 40.4462 14.1034 40.6183 14.1034C40.7904 14.1034 40.9625 14.2754 40.9625 14.4474V20.0372C40.9625 20.2091 40.7904 20.3811 40.6183 20.3811Z" fill="#E59333"/>
<path d="M43.4582 20.3811H43.2861C43.114 20.3811 42.9419 20.2091 42.9419 20.0372V14.4474C42.9419 14.2754 43.114 14.1034 43.2861 14.1034H43.4582C43.6303 14.1034 43.8024 14.2754 43.8024 14.4474V20.0372C43.8884 20.2091 43.7163 20.3811 43.4582 20.3811Z" fill="#D9802B"/>
<path d="M43.5444 20.3811C43.3723 20.3811 43.2002 20.2091 43.2002 20.0372V14.4474C43.2002 14.2754 43.3723 14.1034 43.5444 14.1034C43.7165 14.1034 43.8886 14.2754 43.8886 14.4474V20.0372C43.8886 20.2091 43.7165 20.3811 43.5444 20.3811Z" fill="#E59333"/>
<path opacity="0.5" d="M45.696 14.7056C45.696 14.6196 45.696 14.6196 45.696 14.5336C45.6099 14.2756 45.4378 14.0176 45.1797 13.8456C45.0936 13.8456 45.0936 13.7596 45.0075 13.7596C44.9215 13.6737 44.7494 13.6736 44.6633 13.6736H38.7255L38.9836 13.7596C39.4139 14.0176 39.7581 14.4476 39.7581 14.8776V18.4895C39.7581 19.1774 39.2418 19.6934 38.5533 19.6934H20.9119C21.084 20.1234 21.5143 20.3814 21.9445 20.3814H44.7494C45.3518 20.3814 45.8681 19.8654 45.8681 19.2634V14.8776C45.782 14.8776 45.782 14.7916 45.696 14.7056Z" fill="#D9802B"/>
<path d="M44.6632 8.08422V12.728C44.6632 13.33 44.1468 13.846 43.5444 13.846H20.7396C20.2233 13.846 19.879 13.502 19.7069 13.072C19.6209 12.986 19.6208 12.814 19.6208 12.728V8.08422C19.6208 7.48224 20.1372 6.96625 20.7396 6.96625H43.5444C43.7166 6.96625 43.8026 6.96625 43.8887 7.05225C43.9747 7.05225 43.9747 7.05225 44.0608 7.13825C44.319 7.31024 44.5771 7.48223 44.5771 7.82621C44.5771 7.91221 44.5771 7.91222 44.5771 7.99822C44.6632 7.99822 44.6632 7.99822 44.6632 8.08422Z" fill="#F5DD64"/>
<path d="M43.2001 13.7593H21.7721C20.9976 13.7593 20.3953 13.1573 20.3953 12.3833V8.94346C20.3953 8.16949 20.9976 7.5675 21.7721 7.5675H43.2861C44.0607 7.5675 44.6631 8.16949 44.6631 8.94346V12.2973C44.6631 13.1573 43.9746 13.7593 43.2001 13.7593Z" fill="#F0D03C"/>
<path d="M23.5793 12.6419H23.063C22.8048 12.6419 22.6327 12.4699 22.6327 12.2119V7.9121C22.6327 7.65411 22.8048 7.48212 23.063 7.48212H23.5793C23.8375 7.48212 24.0096 7.65411 24.0096 7.9121V12.2119C24.0956 12.3839 23.8375 12.6419 23.5793 12.6419Z" fill="#FAF1BB"/>
<path d="M20.9123 12.6422H20.396C20.1378 12.6422 19.9657 12.4702 19.9657 12.2122V7.9124C19.9657 7.65442 20.1378 7.48242 20.396 7.48242H20.9123C21.1705 7.48242 21.3426 7.65442 21.3426 7.9124V12.2122C21.3426 12.3842 21.0844 12.6422 20.9123 12.6422Z" fill="#F5E697"/>
<path d="M26.5914 12.6419H26.0751C25.8169 12.6419 25.6448 12.4699 25.6448 12.2119V7.9121C25.6448 7.65411 25.8169 7.48212 26.0751 7.48212H26.5914C26.8496 7.48212 27.0217 7.65411 27.0217 7.9121V12.2119C27.0217 12.3839 26.8496 12.6419 26.5914 12.6419Z" fill="#FAF1BB"/>
<path d="M29.4313 12.6419H28.9149C28.6567 12.6419 28.4846 12.4699 28.4846 12.2119V7.9121C28.4846 7.65411 28.6567 7.48212 28.9149 7.48212H29.4313C29.6894 7.48212 29.8616 7.65411 29.8616 7.9121V12.2119C29.8616 12.3839 29.6894 12.6419 29.4313 12.6419Z" fill="#F7E37C"/>
<path d="M22.0306 13.5016H21.8585C21.6864 13.5016 21.5143 13.3296 21.5143 13.1576V7.56786C21.5143 7.39586 21.6864 7.22388 21.8585 7.22388H22.0306C22.2027 7.22388 22.3749 7.39586 22.3749 7.56786V13.1576C22.3749 13.4156 22.2027 13.5016 22.0306 13.5016Z" fill="#D9802B"/>
<path d="M22.0309 13.5016C21.8588 13.5016 21.6866 13.3296 21.6866 13.1576V7.5678C21.6866 7.3958 21.8588 7.22382 22.0309 7.22382C22.203 7.22382 22.3751 7.3958 22.3751 7.5678V13.1576C22.3751 13.4156 22.203 13.5016 22.0309 13.5016Z" fill="#E59333"/>
<path d="M24.9567 13.5016H24.7845C24.6124 13.5016 24.4403 13.3296 24.4403 13.1576V7.5678C24.4403 7.3958 24.6124 7.22382 24.7845 7.22382H24.9567C25.1288 7.22382 25.3009 7.3958 25.3009 7.5678V13.1576C25.3009 13.4156 25.1288 13.5016 24.9567 13.5016Z" fill="#D9802B"/>
<path d="M24.9567 13.5016C24.7846 13.5016 24.6125 13.3296 24.6125 13.1576V7.5678C24.6125 7.3958 24.7846 7.22382 24.9567 7.22382C25.1288 7.22382 25.3009 7.3958 25.3009 7.5678V13.1576C25.3009 13.4156 25.1288 13.5016 24.9567 13.5016Z" fill="#E59333"/>
<path d="M27.7967 13.5016H27.6246C27.4525 13.5016 27.2804 13.3296 27.2804 13.1576V7.5678C27.2804 7.3958 27.4525 7.22382 27.6246 7.22382H27.7967C27.9688 7.22382 28.1409 7.3958 28.1409 7.5678V13.1576C28.227 13.4156 28.0549 13.5016 27.7967 13.5016Z" fill="#D9802B"/>
<path d="M27.8825 13.5016C27.7104 13.5016 27.5383 13.3296 27.5383 13.1576V7.5678C27.5383 7.3958 27.7104 7.22382 27.8825 7.22382C28.0547 7.22382 28.2268 7.3958 28.2268 7.5678V13.1576C28.2268 13.4156 28.0547 13.5016 27.8825 13.5016Z" fill="#E59333"/>
<path d="M30.7225 13.5016H30.5504C30.3783 13.5016 30.2062 13.3296 30.2062 13.1576V7.5678C30.2062 7.3958 30.3783 7.22382 30.5504 7.22382H30.7225C30.8946 7.22382 31.0667 7.3958 31.0667 7.5678V13.1576C31.1528 13.4156 30.9807 13.5016 30.7225 13.5016Z" fill="#D9802B"/>
<path d="M30.8087 13.5016C30.6366 13.5016 30.4645 13.3296 30.4645 13.1576V7.5678C30.4645 7.3958 30.6366 7.22382 30.8087 7.22382C30.9808 7.22382 31.153 7.3958 31.153 7.5678V13.1576C31.153 13.4156 30.9808 13.5016 30.8087 13.5016Z" fill="#E59333"/>
<path d="M33.6484 13.5016H33.4763C33.3042 13.5016 33.1321 13.3296 33.1321 13.1576V7.5678C33.1321 7.3958 33.3042 7.22382 33.4763 7.22382H33.6484C33.8205 7.22382 33.9927 7.3958 33.9927 7.5678V13.1576C33.9927 13.4156 33.8205 13.5016 33.6484 13.5016Z" fill="#D9802B"/>
<path d="M33.7345 13.5016C33.5624 13.5016 33.3903 13.3296 33.3903 13.1576V7.5678C33.3903 7.3958 33.5624 7.22382 33.7345 7.22382C33.9066 7.22382 34.0787 7.3958 34.0787 7.5678V13.1576C33.9926 13.4156 33.9066 13.5016 33.7345 13.5016Z" fill="#E59333"/>
<path d="M36.5742 13.5016H36.4021C36.23 13.5016 36.0579 13.3296 36.0579 13.1576V7.5678C36.0579 7.3958 36.23 7.22382 36.4021 7.22382H36.5742C36.7463 7.22382 36.9184 7.3958 36.9184 7.5678V13.1576C36.9184 13.4156 36.7463 13.5016 36.5742 13.5016Z" fill="#D9802B"/>
<path d="M36.5743 13.5016C36.4022 13.5016 36.2301 13.3296 36.2301 13.1576V7.5678C36.2301 7.3958 36.4022 7.22382 36.5743 7.22382C36.7464 7.22382 36.9185 7.3958 36.9185 7.5678V13.1576C36.9185 13.4156 36.8325 13.5016 36.5743 13.5016Z" fill="#E59333"/>
<path d="M39.5 13.5016H39.3279C39.1558 13.5016 38.9836 13.3296 38.9836 13.1576V7.5678C38.9836 7.3958 39.1558 7.22382 39.3279 7.22382H39.5C39.6721 7.22382 39.8442 7.3958 39.8442 7.5678V13.1576C39.8442 13.4156 39.6721 13.5016 39.5 13.5016Z" fill="#D9802B"/>
<path d="M39.5001 13.5016C39.328 13.5016 39.1559 13.3296 39.1559 13.1576V7.5678C39.1559 7.3958 39.328 7.22382 39.5001 7.22382C39.6722 7.22382 39.8443 7.3958 39.8443 7.5678V13.1576C39.8443 13.4156 39.6722 13.5016 39.5001 13.5016Z" fill="#E59333"/>
<path d="M42.4261 13.5016H42.254C42.0819 13.5016 41.9098 13.3296 41.9098 13.1576V7.5678C41.9098 7.3958 42.0819 7.22382 42.254 7.22382H42.4261C42.5982 7.22382 42.7704 7.3958 42.7704 7.5678V13.1576C42.7704 13.4156 42.5982 13.5016 42.4261 13.5016Z" fill="#D9802B"/>
<path d="M42.426 13.5016C42.2539 13.5016 42.0818 13.3296 42.0818 13.1576V7.5678C42.0818 7.3958 42.2539 7.22382 42.426 7.22382C42.5981 7.22382 42.7703 7.3958 42.7703 7.5678V13.1576C42.7703 13.4156 42.5981 13.5016 42.426 13.5016Z" fill="#E59333"/>
<path opacity="0.5" d="M44.6635 7.91188C44.6635 7.82589 44.6635 7.8259 44.6635 7.73991C44.5774 7.48192 44.4053 7.22391 44.1472 7.05192C44.0611 7.05192 44.0611 6.96592 43.9751 6.96592C43.889 6.87992 43.7169 6.87994 43.6308 6.87994H37.693L37.9511 6.96592C38.3814 7.22391 38.7256 7.65391 38.7256 8.08389V11.6957C38.7256 12.3837 38.2093 12.8997 37.5209 12.8997H19.8794C20.0515 13.3297 20.4818 13.6736 20.9121 13.6736H43.7169C44.3193 13.6736 44.8356 13.1577 44.8356 12.5557V7.91188C44.6635 7.99788 44.6635 7.99788 44.6635 7.91188Z" fill="#D9802B"/>
<path d="M37.7787 1.11796V5.76176C37.7787 6.36374 37.2624 6.87974 36.66 6.87974H13.8551C13.3387 6.87974 12.9945 6.53573 12.8224 6.10575C12.7363 6.01975 12.7363 5.84776 12.7363 5.76176V1.11796C12.7363 0.515982 13.2527 0 13.8551 0H36.66C36.8321 0 36.9181 5.24753e-06 37.0042 0.0860018C37.0902 0.0860018 37.0902 0.0859939 37.1763 0.17199C37.4345 0.343983 37.6926 0.515979 37.6926 0.859965C37.6926 0.945962 37.6926 0.945959 37.6926 1.03196C37.7787 1.03196 37.7787 1.11796 37.7787 1.11796Z" fill="#F5DD64"/>
<path d="M36.4019 6.88012H14.9739C14.1994 6.88012 13.597 6.27814 13.597 5.50417V2.06431C13.597 1.29034 14.1994 0.688354 14.9739 0.688354H36.488C37.2625 0.688354 37.8649 1.29034 37.8649 2.06431V5.41817C37.7788 6.27814 37.1764 6.88012 36.4019 6.88012Z" fill="#F0D03C"/>
<path d="M16.781 5.67615H16.2646C16.0065 5.67615 15.8344 5.50416 15.8344 5.24617V0.946342C15.8344 0.688351 16.0065 0.516357 16.2646 0.516357H16.781C17.0392 0.516357 17.2113 0.688351 17.2113 0.946342V5.24617C17.2113 5.50416 17.0392 5.67615 16.781 5.67615Z" fill="#FAF1BB"/>
<path d="M14.0274 5.67615H13.5111C13.2529 5.67615 13.0808 5.50416 13.0808 5.24617V0.946342C13.0808 0.688351 13.2529 0.516357 13.5111 0.516357H14.0274C14.2856 0.516357 14.4577 0.688351 14.4577 0.946342V5.24617C14.4577 5.50416 14.2856 5.67615 14.0274 5.67615Z" fill="#F5E697"/>
<path d="M19.7068 5.67615H19.1904C18.9322 5.67615 18.7601 5.50416 18.7601 5.24617V0.946342C18.7601 0.688351 18.9322 0.516357 19.1904 0.516357H19.7068C19.9649 0.516357 20.137 0.688351 20.137 0.946342V5.24617C20.137 5.50416 19.9649 5.67615 19.7068 5.67615Z" fill="#FAF1BB"/>
<path d="M22.5466 5.67615H22.0303C21.7721 5.67615 21.6 5.50416 21.6 5.24617V0.946342C21.6 0.688351 21.7721 0.516357 22.0303 0.516357H22.5466C22.8048 0.516357 22.9769 0.688351 22.9769 0.946342V5.24617C23.0629 5.50416 22.8048 5.67615 22.5466 5.67615Z" fill="#F7E37C"/>
<path d="M15.146 6.62186H15.0599C14.8878 6.62186 14.7157 6.44987 14.7157 6.27787V0.688097C14.7157 0.516104 14.8878 0.344116 15.0599 0.344116H15.232C15.4042 0.344116 15.5763 0.516104 15.5763 0.688097V6.27787C15.5763 6.44987 15.4042 6.62186 15.146 6.62186Z" fill="#D9802B"/>
<path d="M15.2321 6.62192C15.06 6.62192 14.8878 6.44993 14.8878 6.27794V0.688158C14.8878 0.516165 15.06 0.344177 15.2321 0.344177C15.4042 0.344177 15.5763 0.516165 15.5763 0.688158V6.27794C15.5763 6.53592 15.4042 6.62192 15.2321 6.62192Z" fill="#E59333"/>
<path d="M18.0717 6.62161H17.8996C17.7275 6.62161 17.5554 6.44962 17.5554 6.27763V0.687853C17.5554 0.51586 17.7275 0.343872 17.8996 0.343872H18.0717C18.2438 0.343872 18.4159 0.51586 18.4159 0.687853V6.27763C18.4159 6.44962 18.2438 6.62161 18.0717 6.62161Z" fill="#D9802B"/>
<path d="M18.1578 6.62161C17.9857 6.62161 17.8136 6.44962 17.8136 6.27763V0.687853C17.8136 0.51586 17.9857 0.343872 18.1578 0.343872C18.3299 0.343872 18.502 0.51586 18.502 0.687853V6.27763C18.416 6.53562 18.3299 6.62161 18.1578 6.62161Z" fill="#E59333"/>
<path d="M20.9976 6.62161H20.8255C20.6533 6.62161 20.4812 6.44962 20.4812 6.27763V0.687853C20.4812 0.51586 20.6533 0.343872 20.8255 0.343872H20.9976C21.1697 0.343872 21.3418 0.51586 21.3418 0.687853V6.27763C21.3418 6.44962 21.1697 6.62161 20.9976 6.62161Z" fill="#D9802B"/>
<path d="M20.9977 6.62161C20.8255 6.62161 20.6534 6.44962 20.6534 6.27763V0.687853C20.6534 0.51586 20.8255 0.343872 20.9977 0.343872C21.1698 0.343872 21.3419 0.51586 21.3419 0.687853V6.27763C21.3419 6.53562 21.1698 6.62161 20.9977 6.62161Z" fill="#E59333"/>
<path d="M23.9237 6.62161H23.7516C23.5795 6.62161 23.4073 6.44962 23.4073 6.27763V0.687853C23.4073 0.51586 23.5795 0.343872 23.7516 0.343872H23.9237C24.0958 0.343872 24.2679 0.51586 24.2679 0.687853V6.27763C24.2679 6.44962 24.0958 6.62161 23.9237 6.62161Z" fill="#D9802B"/>
<path d="M23.9236 6.62161C23.7515 6.62161 23.5793 6.44962 23.5793 6.27763V0.687853C23.5793 0.51586 23.7515 0.343872 23.9236 0.343872C24.0957 0.343872 24.2678 0.51586 24.2678 0.687853V6.27763C24.2678 6.53562 24.0957 6.62161 23.9236 6.62161Z" fill="#E59333"/>
<path d="M26.7632 6.62161H26.591C26.4189 6.62161 26.2468 6.44962 26.2468 6.27763V0.687853C26.2468 0.51586 26.4189 0.343872 26.591 0.343872H26.7632C26.9353 0.343872 27.1074 0.51586 27.1074 0.687853V6.27763C27.1934 6.44962 27.0213 6.62161 26.7632 6.62161Z" fill="#D9802B"/>
<path d="M26.8494 6.62161C26.6773 6.62161 26.5051 6.44962 26.5051 6.27763V0.687853C26.5051 0.51586 26.6773 0.343872 26.8494 0.343872C27.0215 0.343872 27.1936 0.51586 27.1936 0.687853V6.27763C27.1936 6.53562 27.0215 6.62161 26.8494 6.62161Z" fill="#E59333"/>
<path d="M29.6893 6.62161H29.5172C29.3451 6.62161 29.173 6.44962 29.173 6.27763V0.687853C29.173 0.51586 29.3451 0.343872 29.5172 0.343872H29.6893C29.8614 0.343872 30.0335 0.51586 30.0335 0.687853V6.27763C30.1196 6.44962 29.9475 6.62161 29.6893 6.62161Z" fill="#D9802B"/>
<path d="M29.7755 6.62161C29.6034 6.62161 29.4313 6.44962 29.4313 6.27763V0.687853C29.4313 0.51586 29.6034 0.343872 29.7755 0.343872C29.9476 0.343872 30.1197 0.51586 30.1197 0.687853V6.27763C30.1197 6.53562 29.9476 6.62161 29.7755 6.62161Z" fill="#E59333"/>
<path d="M32.6151 6.62161H32.443C32.2709 6.62161 32.0988 6.44962 32.0988 6.27763V0.687853C32.0988 0.51586 32.2709 0.343872 32.443 0.343872H32.6151C32.7872 0.343872 32.9593 0.51586 32.9593 0.687853V6.27763C32.9593 6.44962 32.8732 6.62161 32.6151 6.62161Z" fill="#D9802B"/>
<path d="M32.7013 6.62161C32.5292 6.62161 32.3571 6.44962 32.3571 6.27763V0.687853C32.3571 0.51586 32.5292 0.343872 32.7013 0.343872C32.8734 0.343872 33.0455 0.51586 33.0455 0.687853V6.27763C32.9595 6.53562 32.8734 6.62161 32.7013 6.62161Z" fill="#E59333"/>
<path d="M35.5412 6.62161H35.3691C35.197 6.62161 35.0249 6.44962 35.0249 6.27763V0.687853C35.0249 0.51586 35.197 0.343872 35.3691 0.343872H35.5412C35.7133 0.343872 35.8855 0.51586 35.8855 0.687853V6.27763C35.8855 6.44962 35.7133 6.62161 35.5412 6.62161Z" fill="#D9802B"/>
<path d="M35.6271 6.62161C35.4549 6.62161 35.2828 6.44962 35.2828 6.27763V0.687853C35.2828 0.51586 35.4549 0.343872 35.6271 0.343872C35.7992 0.343872 35.9713 0.51586 35.9713 0.687853V6.27763C35.8852 6.53562 35.7992 6.62161 35.6271 6.62161Z" fill="#E59333"/>
<path opacity="0.5" d="M37.7789 1.03214C37.7789 0.946144 37.7789 0.946146 37.7789 0.86015C37.6929 0.60216 37.5208 0.344167 37.2626 0.172174C37.1765 0.172174 37.1765 0.086185 37.0905 0.086185C37.0044 0.000188353 36.8323 0.000183105 36.7463 0.000183105H30.8084L31.0666 0.086185C31.4968 0.344175 31.8411 0.774161 31.8411 1.20414V4.81599C31.8411 5.50396 31.3247 6.01996 30.6363 6.01996H12.9948C13.1669 6.44995 13.5971 6.79393 14.0274 6.79393H36.8323C37.4347 6.79393 37.9511 6.27793 37.9511 5.67595V1.11814C37.7789 1.11814 37.7789 1.03214 37.7789 1.03214Z" fill="#D9802B"/>
<path d="M26.9357 28.5515V33.1953C26.9357 33.7973 26.4194 34.3133 25.817 34.3133H3.01215C2.49581 34.3133 2.15158 33.9693 1.97947 33.5393C1.89341 33.4534 1.89343 33.2813 1.89343 33.1953V28.5515C1.89343 27.9496 2.40976 27.4336 3.01215 27.4336H25.817C25.9891 27.4336 26.0752 27.4336 26.1612 27.5196C26.2473 27.5196 26.2473 27.5196 26.3333 27.6056C26.5915 27.7776 26.8497 27.9496 26.8497 28.2936C26.8497 28.3796 26.8497 28.3795 26.8497 28.4655C26.9357 28.4655 26.9357 28.4655 26.9357 28.5515Z" fill="#F5DD64"/>
<path d="M25.6448 34.2269H4.13078C3.35628 34.2269 2.75391 33.625 2.75391 32.851V29.4111C2.75391 28.6371 3.35628 28.0352 4.13078 28.0352H25.6448C26.4193 28.0352 27.0217 28.6371 27.0217 29.4111V32.851C26.9356 33.625 26.3332 34.2269 25.6448 34.2269Z" fill="#F0D03C"/>
<path d="M5.93784 33.1093H5.42149C5.16332 33.1093 4.99121 32.9373 4.99121 32.6793V28.3794C4.99121 28.1215 5.16332 27.9495 5.42149 27.9495H5.93784C6.19601 27.9495 6.36812 28.1215 6.36812 28.3794V32.6793C6.36812 32.8513 6.19601 33.1093 5.93784 33.1093Z" fill="#FAF1BB"/>
<path d="M3.1843 33.1093H2.66795C2.40978 33.1093 2.23767 32.9373 2.23767 32.6793V28.3794C2.23767 28.1215 2.40978 27.9495 2.66795 27.9495H3.1843C3.44247 27.9495 3.61458 28.1215 3.61458 28.3794V32.6793C3.61458 32.8513 3.44247 33.1093 3.1843 33.1093Z" fill="#F5E697"/>
<path d="M8.86395 33.1093H8.34764C8.08947 33.1093 7.91736 32.9373 7.91736 32.6793V28.3794C7.91736 28.1215 8.08947 27.9495 8.34764 27.9495H8.86395C9.12212 27.9495 9.29423 28.1215 9.29423 28.3794V32.6793C9.29423 32.8513 9.12212 33.1093 8.86395 33.1093Z" fill="#FAF1BB"/>
<path d="M11.7898 33.1093H11.2734C11.0153 33.1093 10.8431 32.9373 10.8431 32.6793V28.3794C10.8431 28.1215 11.0153 27.9495 11.2734 27.9495H11.7898C12.048 27.9495 12.2201 28.1215 12.2201 28.3794V32.6793C12.2201 32.8513 11.9619 33.1093 11.7898 33.1093Z" fill="#F7E37C"/>
<path d="M4.30284 33.9684H4.13072C3.9586 33.9684 3.7865 33.7964 3.7865 33.6244V28.0347C3.7865 27.8627 3.9586 27.6907 4.13072 27.6907H4.30284C4.47495 27.6907 4.64705 27.8627 4.64705 28.0347V33.6244C4.73311 33.8824 4.561 33.9684 4.30284 33.9684Z" fill="#D9802B"/>
<path d="M4.38914 33.9686C4.21703 33.9686 4.04492 33.7966 4.04492 33.6246V28.0348C4.04492 27.8628 4.21703 27.6909 4.38914 27.6909C4.56125 27.6909 4.73336 27.8628 4.73336 28.0348V33.6246C4.73336 33.8826 4.56125 33.9686 4.38914 33.9686Z" fill="#E59333"/>
<path d="M7.22863 33.9684H7.05653C6.88442 33.9684 6.71228 33.7964 6.71228 33.6244V28.0346C6.71228 27.8626 6.88442 27.6906 7.05653 27.6906H7.22863C7.40074 27.6906 7.57285 27.8626 7.57285 28.0346V33.6244C7.57285 33.8824 7.40074 33.9684 7.22863 33.9684Z" fill="#D9802B"/>
<path d="M7.31466 33.9684C7.14256 33.9684 6.97046 33.7964 6.97046 33.6244V28.0346C6.97046 27.8626 7.14256 27.6906 7.31466 27.6906C7.48676 27.6906 7.65885 27.8626 7.65885 28.0346V33.6244C7.5728 33.8824 7.48676 33.9684 7.31466 33.9684Z" fill="#E59333"/>
<path d="M10.1546 33.9684H9.98253C9.81041 33.9684 9.63831 33.7964 9.63831 33.6244V28.0346C9.63831 27.8626 9.81041 27.6906 9.98253 27.6906H10.1546C10.3267 27.6906 10.4989 27.8626 10.4989 28.0346V33.6244C10.4989 33.8824 10.3267 33.9684 10.1546 33.9684Z" fill="#D9802B"/>
<path d="M10.1545 33.9684C9.98239 33.9684 9.8103 33.7964 9.8103 33.6244V28.0346C9.8103 27.8626 9.98239 27.6906 10.1545 27.6906C10.3266 27.6906 10.4987 27.8626 10.4987 28.0346V33.6244C10.4987 33.8824 10.4126 33.9684 10.1545 33.9684Z" fill="#E59333"/>
<path d="M13.0806 33.9684H12.9084C12.7363 33.9684 12.5642 33.7964 12.5642 33.6244V28.0346C12.5642 27.8626 12.7363 27.6906 12.9084 27.6906H13.0806C13.2527 27.6906 13.4248 27.8626 13.4248 28.0346V33.6244C13.4248 33.8824 13.2527 33.9684 13.0806 33.9684Z" fill="#D9802B"/>
<path d="M13.0805 33.9684C12.9083 33.9684 12.7362 33.7964 12.7362 33.6244V28.0346C12.7362 27.8626 12.9083 27.6906 13.0805 27.6906C13.2526 27.6906 13.4247 27.8626 13.4247 28.0346V33.6244C13.4247 33.8824 13.2526 33.9684 13.0805 33.9684Z" fill="#E59333"/>
<path d="M16.0063 33.9684H15.8342C15.6621 33.9684 15.49 33.7964 15.49 33.6244V28.0346C15.49 27.8626 15.6621 27.6906 15.8342 27.6906H16.0063C16.1784 27.6906 16.3505 27.8626 16.3505 28.0346V33.6244C16.3505 33.8824 16.1784 33.9684 16.0063 33.9684Z" fill="#D9802B"/>
<path d="M16.0064 33.9684C15.8343 33.9684 15.6622 33.7964 15.6622 33.6244V28.0346C15.6622 27.8626 15.8343 27.6906 16.0064 27.6906C16.1786 27.6906 16.3507 27.8626 16.3507 28.0346V33.6244C16.3507 33.8824 16.1786 33.9684 16.0064 33.9684Z" fill="#E59333"/>
<path d="M18.8462 33.9684H18.6741C18.502 33.9684 18.3298 33.7964 18.3298 33.6244V28.0346C18.3298 27.8626 18.502 27.6906 18.6741 27.6906H18.8462C19.0183 27.6906 19.1904 27.8626 19.1904 28.0346V33.6244C19.2765 33.8824 19.1044 33.9684 18.8462 33.9684Z" fill="#D9802B"/>
<path d="M18.9324 33.9684C18.7603 33.9684 18.5881 33.7964 18.5881 33.6244V28.0346C18.5881 27.8626 18.7603 27.6906 18.9324 27.6906C19.1045 27.6906 19.2766 27.8626 19.2766 28.0346V33.6244C19.2766 33.8824 19.1045 33.9684 18.9324 33.9684Z" fill="#E59333"/>
<path d="M21.7719 33.9684H21.5998C21.4277 33.9684 21.2556 33.7964 21.2556 33.6244V28.0346C21.2556 27.8626 21.4277 27.6906 21.5998 27.6906H21.7719C21.944 27.6906 22.1161 27.8626 22.1161 28.0346V33.6244C22.1161 33.8824 22.0301 33.9684 21.7719 33.9684Z" fill="#D9802B"/>
<path d="M21.8584 33.9684C21.6863 33.9684 21.5142 33.7964 21.5142 33.6244V28.0346C21.5142 27.8626 21.6863 27.6906 21.8584 27.6906C22.0305 27.6906 22.2026 27.8626 22.2026 28.0346V33.6244C22.1165 33.8824 22.0305 33.9684 21.8584 33.9684Z" fill="#E59333"/>
<path d="M24.6981 33.9684H24.526C24.3539 33.9684 24.1818 33.7964 24.1818 33.6244V28.0346C24.1818 27.8626 24.3539 27.6906 24.526 27.6906H24.6981C24.8702 27.6906 25.0423 27.8626 25.0423 28.0346V33.6244C25.0423 33.8824 24.8702 33.9684 24.6981 33.9684Z" fill="#D9802B"/>
<path d="M24.7839 33.9684C24.6118 33.9684 24.4397 33.7964 24.4397 33.6244V28.0346C24.4397 27.8626 24.6118 27.6906 24.7839 27.6906C24.956 27.6906 25.1281 27.8626 25.1281 28.0346V33.6244C25.042 33.8824 24.956 33.9684 24.7839 33.9684Z" fill="#E59333"/>
<path opacity="0.5" d="M26.9361 28.3793C26.9361 28.2933 26.9361 28.2933 26.9361 28.2073C26.85 27.9493 26.678 27.6913 26.4198 27.5193C26.3337 27.5193 26.3337 27.4333 26.2477 27.4333C26.1616 27.3473 25.9895 27.3473 25.9034 27.3473H19.9656L20.2237 27.4333C20.654 27.6913 20.9982 28.1213 20.9982 28.5512V32.1631C20.9982 32.8511 20.4819 33.3671 19.7935 33.3671H2.15198C2.32409 33.797 2.75438 34.141 3.18466 34.141H25.9895C26.5919 34.141 27.1082 33.625 27.1082 33.0231V28.3793C26.9361 28.4653 26.9361 28.4653 26.9361 28.3793Z" fill="#D9802B"/>
<path d="M25.0423 21.671V26.3148C25.0423 26.9168 24.5259 27.4328 23.9236 27.4328H1.11872C0.602381 27.4328 0.258173 27.0888 0.0860612 26.6588C5.25116e-06 26.5728 0 26.4008 0 26.3148V21.671C0 21.069 0.516325 20.553 1.11872 20.553H23.9236C24.0957 20.553 24.1817 20.553 24.2678 20.639C24.3539 20.639 24.3538 20.639 24.4399 20.725C24.6981 20.897 24.9562 21.069 24.9562 21.413C24.9562 21.499 24.9562 21.499 24.9562 21.585C25.0423 21.585 25.0423 21.671 25.0423 21.671Z" fill="#F5DD64"/>
<path d="M23.7516 27.4327H2.23762C1.46312 27.4327 0.860718 26.8307 0.860718 26.0567V22.6169C0.860718 21.8429 1.46312 21.2409 2.23762 21.2409H23.7516C24.5261 21.2409 25.1285 21.8429 25.1285 22.6169V26.0567C25.0425 26.8307 24.4401 27.4327 23.7516 27.4327Z" fill="#F0D03C"/>
<path d="M4.045 26.2293H3.52866C3.2705 26.2293 3.09839 26.0573 3.09839 25.7993V21.4995C3.09839 21.2415 3.2705 21.0695 3.52866 21.0695H4.045C4.30317 21.0695 4.47528 21.2415 4.47528 21.4995V25.7993C4.47528 26.0573 4.30317 26.2293 4.045 26.2293Z" fill="#FAF1BB"/>
<path d="M1.29086 26.2293H0.774521C0.516351 26.2293 0.344238 26.0573 0.344238 25.7993V21.4995C0.344238 21.2415 0.516351 21.0695 0.774521 21.0695H1.29086C1.54903 21.0695 1.72115 21.2415 1.72115 21.4995V25.7993C1.72115 26.0573 1.54903 26.2293 1.29086 26.2293Z" fill="#F5E697"/>
<path d="M6.97054 26.2293H6.4542C6.19604 26.2293 6.02393 26.0573 6.02393 25.7993V21.4995C6.02393 21.2415 6.19604 21.0695 6.4542 21.0695H6.97054C7.2287 21.0695 7.40082 21.2415 7.40082 21.4995V25.7993C7.40082 26.0573 7.2287 26.2293 6.97054 26.2293Z" fill="#FAF1BB"/>
<path d="M9.81063 26.2293H9.29429C9.03612 26.2293 8.86401 26.0573 8.86401 25.7993V21.4995C8.86401 21.2415 9.03612 21.0695 9.29429 21.0695H9.81063C10.0688 21.0695 10.2409 21.2415 10.2409 21.4995V25.7993C10.327 26.0573 10.0688 26.2293 9.81063 26.2293Z" fill="#F7E37C"/>
<path d="M2.40938 27.1741H2.23728C2.06517 27.1741 1.89307 27.0021 1.89307 26.8301V21.2403C1.89307 21.0684 2.06517 20.8964 2.23728 20.8964H2.40938C2.58149 20.8964 2.75362 21.0684 2.75362 21.2403V26.8301C2.83968 27.0021 2.66755 27.1741 2.40938 27.1741Z" fill="#D9802B"/>
<path d="M2.49583 27.1742C2.32372 27.1742 2.15161 27.0022 2.15161 26.8302V21.2404C2.15161 21.0684 2.32372 20.8964 2.49583 20.8964C2.66794 20.8964 2.84005 21.0684 2.84005 21.2404V26.8302C2.84005 27.0022 2.66794 27.1742 2.49583 27.1742Z" fill="#E59333"/>
<path d="M5.33531 27.1742H5.16319C4.99108 27.1742 4.81897 27.0022 4.81897 26.8302V21.2404C4.81897 21.0684 4.99108 20.8964 5.16319 20.8964H5.33531C5.50742 20.8964 5.67952 21.0684 5.67952 21.2404V26.8302C5.67952 27.0022 5.50742 27.1742 5.33531 27.1742Z" fill="#D9802B"/>
<path d="M5.42137 27.1742C5.24926 27.1742 5.07715 27.0022 5.07715 26.8302V21.2404C5.07715 21.0684 5.24926 20.8964 5.42137 20.8964C5.59349 20.8964 5.76562 21.0684 5.76562 21.2404V26.8302C5.67957 27.0022 5.59349 27.1742 5.42137 27.1742Z" fill="#E59333"/>
<path d="M8.26108 27.1742H8.08896C7.91685 27.1742 7.74475 27.0022 7.74475 26.8302V21.2404C7.74475 21.0684 7.91685 20.8964 8.08896 20.8964H8.26108C8.43318 20.8964 8.60528 21.0684 8.60528 21.2404V26.8302C8.60528 27.0022 8.43318 27.1742 8.26108 27.1742Z" fill="#D9802B"/>
<path d="M8.26121 27.1742C8.0891 27.1742 7.91699 27.0022 7.91699 26.8302V21.2404C7.91699 21.0684 8.0891 20.8964 8.26121 20.8964C8.43332 20.8964 8.60543 21.0684 8.60543 21.2404V26.8302C8.60543 27.0022 8.43332 27.1742 8.26121 27.1742Z" fill="#E59333"/>
<path d="M11.1869 27.1742H11.0148C10.8426 27.1742 10.6705 27.0022 10.6705 26.8302V21.2404C10.6705 21.0684 10.8426 20.8964 11.0148 20.8964H11.1869C11.359 20.8964 11.5311 21.0684 11.5311 21.2404V26.8302C11.5311 27.0022 11.359 27.1742 11.1869 27.1742Z" fill="#D9802B"/>
<path d="M11.1871 27.1742C11.015 27.1742 10.8429 27.0022 10.8429 26.8302V21.2404C10.8429 21.0684 11.015 20.8964 11.1871 20.8964C11.3593 20.8964 11.5314 21.0684 11.5314 21.2404V26.8302C11.5314 27.0022 11.3593 27.1742 11.1871 27.1742Z" fill="#E59333"/>
<path d="M14.0267 27.1742H13.8546C13.6825 27.1742 13.5104 27.0022 13.5104 26.8302V21.2404C13.5104 21.0684 13.6825 20.8964 13.8546 20.8964H14.0267C14.1988 20.8964 14.3709 21.0684 14.3709 21.2404V26.8302C14.457 27.0022 14.2848 27.1742 14.0267 27.1742Z" fill="#D9802B"/>
<path d="M14.1131 27.1742C13.941 27.1742 13.7689 27.0022 13.7689 26.8302V21.2404C13.7689 21.0684 13.941 20.8964 14.1131 20.8964C14.2852 20.8964 14.4573 21.0684 14.4573 21.2404V26.8302C14.4573 27.0022 14.2852 27.1742 14.1131 27.1742Z" fill="#E59333"/>
<path d="M16.9526 27.1742H16.7805C16.6084 27.1742 16.4363 27.0022 16.4363 26.8302V21.2404C16.4363 21.0684 16.6084 20.8964 16.7805 20.8964H16.9526C17.1247 20.8964 17.2969 21.0684 17.2969 21.2404V26.8302C17.3829 27.0022 17.2108 27.1742 16.9526 27.1742Z" fill="#D9802B"/>
<path d="M17.0387 27.1742C16.8666 27.1742 16.6945 27.0022 16.6945 26.8302V21.2404C16.6945 21.0684 16.8666 20.8964 17.0387 20.8964C17.2108 20.8964 17.3829 21.0684 17.3829 21.2404V26.8302C17.3829 27.0022 17.2108 27.1742 17.0387 27.1742Z" fill="#E59333"/>
<path d="M19.8787 27.1742H19.7065C19.5344 27.1742 19.3623 27.0022 19.3623 26.8302V21.2404C19.3623 21.0684 19.5344 20.8964 19.7065 20.8964H19.8787C20.0508 20.8964 20.2229 21.0684 20.2229 21.2404V26.8302C20.2229 27.0022 20.1368 27.1742 19.8787 27.1742Z" fill="#D9802B"/>
<path d="M19.9648 27.1742C19.7927 27.1742 19.6206 27.0022 19.6206 26.8302V21.2404C19.6206 21.0684 19.7927 20.8964 19.9648 20.8964C20.1369 20.8964 20.309 21.0684 20.309 21.2404V26.8302C20.223 27.0022 20.1369 27.1742 19.9648 27.1742Z" fill="#E59333"/>
<path d="M22.8048 27.1742H22.6327C22.4606 27.1742 22.2885 27.0022 22.2885 26.8302V21.2404C22.2885 21.0684 22.4606 20.8964 22.6327 20.8964H22.8048C22.9769 20.8964 23.149 21.0684 23.149 21.2404V26.8302C23.149 27.0022 22.9769 27.1742 22.8048 27.1742Z" fill="#D9802B"/>
<path d="M22.8906 27.1742C22.7185 27.1742 22.5464 27.0022 22.5464 26.8302V21.2404C22.5464 21.0684 22.7185 20.8964 22.8906 20.8964C23.0627 20.8964 23.2349 21.0684 23.2349 21.2404V26.8302C23.1488 27.0022 23.0627 27.1742 22.8906 27.1742Z" fill="#E59333"/>
<path opacity="0.5" d="M25.0427 21.5858C25.0427 21.4998 25.0427 21.4999 25.0427 21.4139C24.9566 21.1559 24.7845 20.8979 24.5264 20.7259C24.4403 20.7259 24.4403 20.6399 24.3542 20.6399C24.2682 20.5539 24.0961 20.5539 24.01 20.5539H18.0721L18.3303 20.6399C18.7606 20.8979 19.1048 21.3279 19.1048 21.7578V25.3697C19.1048 26.0577 18.5885 26.5736 17.9 26.5736H0.258545C0.430657 27.0036 0.860947 27.3476 1.29123 27.3476H24.0961C24.6985 27.3476 25.2148 26.8316 25.2148 26.2297V21.5858C25.0427 21.6718 25.0427 21.5858 25.0427 21.5858Z" fill="#D9802B"/>
<path d="M27.5379 14.8773V19.5211C27.5379 20.1231 27.0216 20.6391 26.4192 20.6391H3.61435C3.09801 20.6391 2.75378 20.2951 2.58167 19.9511C2.49561 19.8651 2.49561 19.6931 2.49561 19.6071V14.8773C2.49561 14.2753 3.01196 13.7593 3.61435 13.7593H26.4192C26.5913 13.7593 26.6774 13.7593 26.7634 13.8453C26.8495 13.8453 26.8495 13.8453 26.9355 13.9313C27.1937 14.1033 27.4519 14.2753 27.4519 14.6193C27.4519 14.7053 27.4519 14.7053 27.4519 14.7913C27.5379 14.7913 27.5379 14.8773 27.5379 14.8773Z" fill="#F5DD64"/>
<path d="M26.0749 20.6396H4.64692C3.87242 20.6396 3.27002 20.0376 3.27002 19.2636V15.8238C3.27002 15.0498 3.87242 14.4478 4.64692 14.4478H26.1609C26.9354 14.4478 27.5378 15.0498 27.5378 15.8238V19.1776C27.5378 19.9516 26.8494 20.6396 26.0749 20.6396Z" fill="#F0D03C"/>
<path d="M6.45409 19.4356H5.93773C5.67956 19.4356 5.50745 19.2636 5.50745 19.0056V14.7058C5.50745 14.4478 5.67956 14.2758 5.93773 14.2758H6.45409C6.71226 14.2758 6.88437 14.4478 6.88437 14.7058V19.0056C6.88437 19.2636 6.71226 19.4356 6.45409 19.4356Z" fill="#FAF1BB"/>
<path d="M3.7005 19.4356H3.18418C2.92602 19.4356 2.75391 19.2636 2.75391 19.0056V14.7058C2.75391 14.4478 2.92602 14.2758 3.18418 14.2758H3.7005C3.95866 14.2758 4.13078 14.4478 4.13078 14.7058V19.0056C4.13078 19.2636 3.95866 19.4356 3.7005 19.4356Z" fill="#F5E697"/>
<path d="M9.46618 19.4356H8.94983C8.69165 19.4356 8.51953 19.2636 8.51953 19.0056V14.7058C8.51953 14.4478 8.69165 14.2758 8.94983 14.2758H9.46618C9.72436 14.2758 9.89648 14.4478 9.89648 14.7058V19.0056C9.89648 19.2636 9.6383 19.4356 9.46618 19.4356Z" fill="#FAF1BB"/>
<path d="M12.306 19.4356H11.7897C11.5315 19.4356 11.3594 19.2636 11.3594 19.0056V14.7058C11.3594 14.4478 11.5315 14.2758 11.7897 14.2758H12.306C12.5642 14.2758 12.7363 14.4478 12.7363 14.7058V19.0056C12.7363 19.2636 12.5642 19.4356 12.306 19.4356Z" fill="#F7E37C"/>
<path d="M4.90501 20.3807H4.73289C4.56078 20.3807 4.38867 20.2087 4.38867 20.0367V14.4469C4.38867 14.275 4.56078 14.103 4.73289 14.103H4.90501C5.07712 14.103 5.24923 14.275 5.24923 14.4469V20.0367C5.24923 20.2087 5.07712 20.3807 4.90501 20.3807Z" fill="#D9802B"/>
<path d="M4.90552 20.3814C4.73341 20.3814 4.56128 20.2094 4.56128 20.0375V14.4477C4.56128 14.2757 4.73341 14.1037 4.90552 14.1037C5.07763 14.1037 5.24973 14.2757 5.24973 14.4477V20.0375C5.24973 20.2094 5.07763 20.3814 4.90552 20.3814Z" fill="#E59333"/>
<path d="M7.74487 20.3811H7.57274C7.40063 20.3811 7.22852 20.2091 7.22852 20.0372V14.4474C7.22852 14.2754 7.40063 14.1034 7.57274 14.1034H7.74487C7.91698 14.1034 8.08909 14.2754 8.08909 14.4474V20.0372C8.17515 20.2091 8.00304 20.3811 7.74487 20.3811Z" fill="#D9802B"/>
<path d="M7.83128 20.3811C7.65917 20.3811 7.48706 20.2091 7.48706 20.0372V14.4474C7.48706 14.2754 7.65917 14.1034 7.83128 14.1034C8.00339 14.1034 8.1755 14.2754 8.1755 14.4474V20.0372C8.1755 20.2091 8.00339 20.3811 7.83128 20.3811Z" fill="#E59333"/>
<path d="M10.671 20.3811H10.4989C10.3268 20.3811 10.1547 20.2091 10.1547 20.0372V14.4474C10.1547 14.2754 10.3268 14.1034 10.4989 14.1034H10.671C10.8431 14.1034 11.0152 14.2754 11.0152 14.4474V20.0372C11.1013 20.2091 10.9292 20.3811 10.671 20.3811Z" fill="#D9802B"/>
<path d="M10.7568 20.3811C10.5847 20.3811 10.4126 20.2091 10.4126 20.0372V14.4474C10.4126 14.2754 10.5847 14.1034 10.7568 14.1034C10.929 14.1034 11.1011 14.2754 11.1011 14.4474V20.0372C11.1011 20.2091 10.929 20.3811 10.7568 20.3811Z" fill="#E59333"/>
<path d="M13.5968 20.3811H13.4247C13.2526 20.3811 13.0804 20.2091 13.0804 20.0372V14.4474C13.0804 14.2754 13.2526 14.1034 13.4247 14.1034H13.5968C13.7689 14.1034 13.941 14.2754 13.941 14.4474V20.0372C13.941 20.2091 13.7689 20.3811 13.5968 20.3811Z" fill="#D9802B"/>
<path d="M13.683 20.3811C13.5109 20.3811 13.3387 20.2091 13.3387 20.0372V14.4474C13.3387 14.2754 13.5109 14.1034 13.683 14.1034C13.8551 14.1034 14.0272 14.2754 14.0272 14.4474V20.0372C13.9411 20.2091 13.8551 20.3811 13.683 20.3811Z" fill="#E59333"/>
<path d="M16.5227 20.3811H16.3506C16.1785 20.3811 16.0063 20.2091 16.0063 20.0372V14.4474C16.0063 14.2754 16.1785 14.1034 16.3506 14.1034H16.5227C16.6948 14.1034 16.8669 14.2754 16.8669 14.4474V20.0372C16.8669 20.2091 16.6948 20.3811 16.5227 20.3811Z" fill="#D9802B"/>
<path d="M16.5228 20.3811C16.3507 20.3811 16.1786 20.2091 16.1786 20.0372V14.4474C16.1786 14.2754 16.3507 14.1034 16.5228 14.1034C16.695 14.1034 16.8671 14.2754 16.8671 14.4474V20.0372C16.8671 20.2091 16.781 20.3811 16.5228 20.3811Z" fill="#E59333"/>
<path d="M19.4487 20.3811H19.2766C19.1045 20.3811 18.9324 20.2091 18.9324 20.0372V14.4474C18.9324 14.2754 19.1045 14.1034 19.2766 14.1034H19.4487C19.6208 14.1034 19.7929 14.2754 19.7929 14.4474V20.0372C19.7929 20.2091 19.6208 20.3811 19.4487 20.3811Z" fill="#D9802B"/>
<path d="M19.4486 20.3811C19.2765 20.3811 19.1044 20.2091 19.1044 20.0372V14.4474C19.1044 14.2754 19.2765 14.1034 19.4486 14.1034C19.6207 14.1034 19.7928 14.2754 19.7928 14.4474V20.0372C19.7928 20.2091 19.6207 20.3811 19.4486 20.3811Z" fill="#E59333"/>
<path d="M22.3746 20.3811H22.2025C22.0304 20.3811 21.8583 20.2091 21.8583 20.0372V14.4474C21.8583 14.2754 22.0304 14.1034 22.2025 14.1034H22.3746C22.5467 14.1034 22.7188 14.2754 22.7188 14.4474V20.0372C22.7188 20.2091 22.5467 20.3811 22.3746 20.3811Z" fill="#D9802B"/>
<path d="M22.3745 20.3811C22.2024 20.3811 22.0303 20.2091 22.0303 20.0372V14.4474C22.0303 14.2754 22.2024 14.1034 22.3745 14.1034C22.5466 14.1034 22.7187 14.2754 22.7187 14.4474V20.0372C22.7187 20.2091 22.5466 20.3811 22.3745 20.3811Z" fill="#E59333"/>
<path d="M25.2144 20.3811H25.0423C24.8702 20.3811 24.6981 20.2091 24.6981 20.0372V14.4474C24.6981 14.2754 24.8702 14.1034 25.0423 14.1034H25.2144C25.3865 14.1034 25.5587 14.2754 25.5587 14.4474V20.0372C25.6447 20.2091 25.4726 20.3811 25.2144 20.3811Z" fill="#D9802B"/>
<path d="M25.3005 20.3811C25.1284 20.3811 24.9563 20.2091 24.9563 20.0372V14.4474C24.9563 14.2754 25.1284 14.1034 25.3005 14.1034C25.4726 14.1034 25.6447 14.2754 25.6447 14.4474V20.0372C25.6447 20.2091 25.4726 20.3811 25.3005 20.3811Z" fill="#E59333"/>
<path opacity="0.5" d="M27.452 14.7056C27.452 14.6196 27.452 14.6196 27.452 14.5336C27.3659 14.2756 27.1938 14.0176 26.9356 13.8456C26.8496 13.8456 26.8496 13.7596 26.7635 13.7596C26.6775 13.6737 26.5054 13.6736 26.4193 13.6736H20.4814L20.7396 13.7596C21.1699 14.0176 21.5141 14.4476 21.5141 14.8776V18.4895C21.5141 19.1774 20.9978 19.6934 20.3093 19.6934H2.66785C2.83996 20.1234 3.27022 20.3814 3.7005 20.3814H26.5054C27.1078 20.3814 27.6241 19.8654 27.6241 19.2634V14.8776C27.5381 14.8776 27.538 14.7916 27.452 14.7056Z" fill="#D9802B"/>
<path d="M26.4193 8.08422V12.728C26.4193 13.33 25.903 13.846 25.3006 13.846H2.49567C1.97934 13.846 1.63513 13.502 1.46301 13.072C1.37696 12.986 1.37695 12.814 1.37695 12.728V8.08422C1.37695 7.48224 1.89328 6.96625 2.49567 6.96625H25.3006C25.4727 6.96625 25.5587 6.96625 25.6448 7.05225C25.7309 7.05225 25.7309 7.05225 25.8169 7.13825C26.0751 7.31024 26.3333 7.48223 26.3333 7.82621C26.3333 7.91221 26.3333 7.91222 26.3333 7.99822C26.4193 7.99822 26.4193 7.99822 26.4193 8.08422Z" fill="#F5DD64"/>
<path d="M24.9562 13.7599H3.52827C2.75376 13.7599 2.15137 13.1579 2.15137 12.3839V8.94407C2.15137 8.1701 2.75376 7.56812 3.52827 7.56812H25.0423C25.8168 7.56812 26.4192 8.1701 26.4192 8.94407V12.2979C26.4192 13.1579 25.7307 13.7599 24.9562 13.7599Z" fill="#F0D03C"/>
<path d="M5.33566 12.6422H4.81932C4.56115 12.6422 4.38904 12.4702 4.38904 12.2122V7.9124C4.38904 7.65442 4.56115 7.48242 4.81932 7.48242H5.33566C5.59383 7.48242 5.76595 7.65442 5.76595 7.9124V12.2122C5.852 12.3842 5.59383 12.6422 5.33566 12.6422Z" fill="#FAF1BB"/>
<path d="M2.66805 12.6428H2.15171C1.89355 12.6428 1.72144 12.4708 1.72144 12.2128V7.91302C1.72144 7.65503 1.89355 7.48303 2.15171 7.48303H2.66805C2.92621 7.48303 3.09832 7.65503 3.09832 7.91302V12.2128C3.09832 12.3848 2.84016 12.6428 2.66805 12.6428Z" fill="#F5E697"/>
<path d="M8.34748 12.6422H7.83115C7.57299 12.6422 7.40088 12.4702 7.40088 12.2122V7.9124C7.40088 7.65442 7.57299 7.48242 7.83115 7.48242H8.34748C8.60564 7.48242 8.77775 7.65442 8.77775 7.9124V12.2122C8.77775 12.3842 8.60564 12.6422 8.34748 12.6422Z" fill="#FAF1BB"/>
<path d="M11.1873 12.6422H10.671C10.4128 12.6422 10.2407 12.4702 10.2407 12.2122V7.9124C10.2407 7.65442 10.4128 7.48242 10.671 7.48242H11.1873C11.4455 7.48242 11.6176 7.65442 11.6176 7.9124V12.2122C11.6176 12.3842 11.4455 12.6422 11.1873 12.6422Z" fill="#F7E37C"/>
<path d="M3.78636 13.5016H3.61426C3.44215 13.5016 3.27002 13.3296 3.27002 13.1576V7.56786C3.27002 7.39586 3.44215 7.22388 3.61426 7.22388H3.78636C3.95847 7.22388 4.13057 7.39586 4.13057 7.56786V13.1576C4.13057 13.4156 3.95847 13.5016 3.78636 13.5016Z" fill="#D9802B"/>
<path d="M3.78649 13.5016C3.61437 13.5016 3.44226 13.3296 3.44226 13.1576V7.5678C3.44226 7.3958 3.61437 7.22382 3.78649 7.22382C3.9586 7.22382 4.13072 7.3958 4.13072 7.5678V13.1576C4.13072 13.4156 3.9586 13.5016 3.78649 13.5016Z" fill="#E59333"/>
<path d="M6.71222 13.5016H6.54013C6.36802 13.5016 6.19592 13.3296 6.19592 13.1576V7.5678C6.19592 7.3958 6.36802 7.22382 6.54013 7.22382H6.71222C6.88433 7.22382 7.05646 7.3958 7.05646 7.5678V13.1576C7.05646 13.4156 6.88433 13.5016 6.71222 13.5016Z" fill="#D9802B"/>
<path d="M6.71239 13.5016C6.54027 13.5016 6.36816 13.3296 6.36816 13.1576V7.5678C6.36816 7.3958 6.54027 7.22382 6.71239 7.22382C6.8845 7.22382 7.05664 7.3958 7.05664 7.5678V13.1576C7.05664 13.4156 6.8845 13.5016 6.71239 13.5016Z" fill="#E59333"/>
<path d="M9.55212 13.5016H9.37999C9.20788 13.5016 9.03577 13.3296 9.03577 13.1576V7.5678C9.03577 7.3958 9.20788 7.22382 9.37999 7.22382H9.55212C9.72423 7.22382 9.89634 7.3958 9.89634 7.5678V13.1576C9.9824 13.4156 9.81029 13.5016 9.55212 13.5016Z" fill="#D9802B"/>
<path d="M9.6382 13.5016C9.46608 13.5016 9.29395 13.3296 9.29395 13.1576V7.5678C9.29395 7.3958 9.46608 7.22382 9.6382 7.22382C9.81031 7.22382 9.98242 7.3958 9.98242 7.5678V13.1576C9.98242 13.4156 9.81031 13.5016 9.6382 13.5016Z" fill="#E59333"/>
<path d="M12.4782 13.5016H12.306C12.1339 13.5016 11.9618 13.3296 11.9618 13.1576V7.5678C11.9618 7.3958 12.1339 7.22382 12.306 7.22382H12.4782C12.6503 7.22382 12.8224 7.3958 12.8224 7.5678V13.1576C12.9085 13.4156 12.7363 13.5016 12.4782 13.5016Z" fill="#D9802B"/>
<path d="M12.5639 13.5016C12.3918 13.5016 12.2197 13.3296 12.2197 13.1576V7.5678C12.2197 7.3958 12.3918 7.22382 12.5639 7.22382C12.7361 7.22382 12.9082 7.3958 12.9082 7.5678V13.1576C12.9082 13.4156 12.7361 13.5016 12.5639 13.5016Z" fill="#E59333"/>
<path d="M15.404 13.5016H15.2319C15.0598 13.5016 14.8877 13.3296 14.8877 13.1576V7.5678C14.8877 7.3958 15.0598 7.22382 15.2319 7.22382H15.404C15.5762 7.22382 15.7483 7.3958 15.7483 7.5678V13.1576C15.7483 13.4156 15.5762 13.5016 15.404 13.5016Z" fill="#D9802B"/>
<path d="M15.4901 13.5016C15.318 13.5016 15.1459 13.3296 15.1459 13.1576V7.5678C15.1459 7.3958 15.318 7.22382 15.4901 7.22382C15.6622 7.22382 15.8343 7.3958 15.8343 7.5678V13.1576C15.7483 13.4156 15.6622 13.5016 15.4901 13.5016Z" fill="#E59333"/>
<path d="M18.3298 13.5016H18.1577C17.9856 13.5016 17.8135 13.3296 17.8135 13.1576V7.5678C17.8135 7.3958 17.9856 7.22382 18.1577 7.22382H18.3298C18.5019 7.22382 18.674 7.3958 18.674 7.5678V13.1576C18.674 13.4156 18.5019 13.5016 18.3298 13.5016Z" fill="#D9802B"/>
<path d="M18.3297 13.5016C18.1576 13.5016 17.9855 13.3296 17.9855 13.1576V7.5678C17.9855 7.3958 18.1576 7.22382 18.3297 7.22382C18.5018 7.22382 18.6739 7.3958 18.6739 7.5678V13.1576C18.6739 13.4156 18.5879 13.5016 18.3297 13.5016Z" fill="#E59333"/>
<path d="M21.2556 13.5016H21.0835C20.9114 13.5016 20.7393 13.3296 20.7393 13.1576V7.5678C20.7393 7.3958 20.9114 7.22382 21.0835 7.22382H21.2556C21.4277 7.22382 21.5998 7.3958 21.5998 7.5678V13.1576C21.5998 13.4156 21.4277 13.5016 21.2556 13.5016Z" fill="#D9802B"/>
<path d="M21.2557 13.5016C21.0836 13.5016 20.9115 13.3296 20.9115 13.1576V7.5678C20.9115 7.3958 21.0836 7.22382 21.2557 7.22382C21.4278 7.22382 21.5999 7.3958 21.5999 7.5678V13.1576C21.5999 13.4156 21.4278 13.5016 21.2557 13.5016Z" fill="#E59333"/>
<path d="M24.1815 13.5016H24.0094C23.8373 13.5016 23.6652 13.3296 23.6652 13.1576V7.5678C23.6652 7.3958 23.8373 7.22382 24.0094 7.22382H24.1815C24.3536 7.22382 24.5257 7.3958 24.5257 7.5678V13.1576C24.5257 13.4156 24.3536 13.5016 24.1815 13.5016Z" fill="#D9802B"/>
<path d="M24.1816 13.5016C24.0095 13.5016 23.8374 13.3296 23.8374 13.1576V7.5678C23.8374 7.3958 24.0095 7.22382 24.1816 7.22382C24.3537 7.22382 24.5258 7.3958 24.5258 7.5678V13.1576C24.5258 13.4156 24.3537 13.5016 24.1816 13.5016Z" fill="#E59333"/>
<path opacity="0.5" d="M26.4194 7.91188C26.4194 7.82589 26.4194 7.8259 26.4194 7.73991C26.3334 7.48192 26.1613 7.22391 25.9031 7.05192C25.817 7.05192 25.817 6.96592 25.731 6.96592C25.6449 6.87992 25.4728 6.87994 25.3868 6.87994H19.3628L19.621 6.96592C20.0513 7.22391 20.3955 7.65391 20.3955 8.08389V11.6957C20.3955 12.3837 19.8792 12.8997 19.1907 12.8997H1.54919C1.72131 13.3297 2.1516 13.6736 2.58188 13.6736H25.3868C25.9891 13.6736 26.5055 13.1577 26.5055 12.5557V7.91188C26.4194 7.99788 26.4194 7.99788 26.4194 7.91188Z" fill="#D9802B"/>
</svg>
