<svg width="47" height="21" viewBox="0 0 47 21" fill="none" xmlns="http://www.w3.org/2000/svg">
<path d="M27.8004 16.9863V19.749C27.8004 20.1072 27.4932 20.4142 27.1349 20.4142H13.5674C13.2602 20.4142 13.0554 20.2095 12.953 19.9537C12.9018 19.9025 12.9019 19.8002 12.9019 19.749V16.9863C12.9019 16.6281 13.209 16.3212 13.5674 16.3212H27.1349C27.2373 16.3212 27.2884 16.3212 27.3396 16.3723C27.3908 16.3723 27.3909 16.3723 27.442 16.4235C27.5956 16.5258 27.7492 16.6281 27.7492 16.8328C27.7492 16.884 27.7492 16.8839 27.7492 16.9351C27.8004 16.9351 27.8004 16.9351 27.8004 16.9863Z" fill="#F5DD64"/>
<path d="M26.9813 20.3629H14.233C13.7722 20.3629 13.4138 20.0048 13.4138 19.5443V17.4978C13.4138 17.0373 13.7722 16.6792 14.233 16.6792H27.0324C27.4932 16.6792 27.8516 17.0373 27.8516 17.4978V19.4931C27.8004 20.0048 27.442 20.3629 26.9813 20.3629Z" fill="#F0D03C"/>
<path d="M15.3083 19.698H15.0011C14.8475 19.698 14.7451 19.5957 14.7451 19.4422V16.884C14.7451 16.7306 14.8475 16.6282 15.0011 16.6282H15.3083C15.4619 16.6282 15.5643 16.7306 15.5643 16.884V19.4422C15.5643 19.5445 15.4619 19.698 15.3083 19.698Z" fill="#FAF1BB"/>
<path d="M13.6699 19.698H13.3627C13.2091 19.698 13.1067 19.5957 13.1067 19.4422V16.884C13.1067 16.7306 13.2091 16.6282 13.3627 16.6282H13.6699C13.8235 16.6282 13.9259 16.7306 13.9259 16.884V19.4422C13.9259 19.5445 13.8235 19.698 13.6699 19.698Z" fill="#F5E697"/>
<path d="M17.0488 19.698H16.7416C16.588 19.698 16.4856 19.5957 16.4856 19.4422V16.884C16.4856 16.7306 16.588 16.6282 16.7416 16.6282H17.0488C17.2024 16.6282 17.3048 16.7306 17.3048 16.884V19.4422C17.3048 19.5445 17.2024 19.698 17.0488 19.698Z" fill="#FAF1BB"/>
<path d="M18.7895 19.698H18.4823C18.3287 19.698 18.2263 19.5957 18.2263 19.4422V16.884C18.2263 16.7306 18.3287 16.6282 18.4823 16.6282H18.7895C18.9431 16.6282 19.0455 16.7306 19.0455 16.884V19.4422C19.0455 19.5445 18.9431 19.698 18.7895 19.698Z" fill="#F7E37C"/>
<path d="M14.3353 20.209H14.2329C14.1305 20.209 14.0281 20.1067 14.0281 20.0043V16.6788C14.0281 16.5764 14.1305 16.4741 14.2329 16.4741H14.3353C14.4377 16.4741 14.5401 16.5764 14.5401 16.6788V20.0043C14.5913 20.1578 14.4889 20.209 14.3353 20.209Z" fill="#D9802B"/>
<path d="M14.3867 20.2092C14.2843 20.2092 14.1819 20.1069 14.1819 20.0046V16.679C14.1819 16.5767 14.2843 16.4744 14.3867 16.4744C14.4891 16.4744 14.5915 16.5767 14.5915 16.679V20.0046C14.5915 20.1581 14.4891 20.2092 14.3867 20.2092Z" fill="#E59333"/>
<path d="M16.0757 20.2091H15.9734C15.871 20.2091 15.7686 20.1067 15.7686 20.0044V16.6788C15.7686 16.5765 15.871 16.4742 15.9734 16.4742H16.0757C16.1781 16.4742 16.2805 16.5765 16.2805 16.6788V20.0044C16.3317 20.1579 16.2293 20.2091 16.0757 20.2091Z" fill="#D9802B"/>
<path d="M16.1272 20.2091C16.0248 20.2091 15.9224 20.1067 15.9224 20.0044V16.6788C15.9224 16.5765 16.0248 16.4742 16.1272 16.4742C16.2296 16.4742 16.332 16.5765 16.332 16.6788V20.0044C16.332 20.1579 16.2296 20.2091 16.1272 20.2091Z" fill="#E59333"/>
<path d="M17.8165 20.2091H17.7141C17.6117 20.2091 17.5093 20.1067 17.5093 20.0044V16.6788C17.5093 16.5765 17.6117 16.4742 17.7141 16.4742H17.8165C17.9189 16.4742 18.0213 16.5765 18.0213 16.6788V20.0044C18.0213 20.1579 17.9189 20.2091 17.8165 20.2091Z" fill="#D9802B"/>
<path d="M17.8676 20.2091C17.7652 20.2091 17.6628 20.1067 17.6628 20.0044V16.6788C17.6628 16.5765 17.7652 16.4742 17.8676 16.4742C17.97 16.4742 18.0724 16.5765 18.0724 16.6788V20.0044C18.0212 20.1579 17.97 20.2091 17.8676 20.2091Z" fill="#E59333"/>
<path d="M19.5574 20.2091H19.455C19.3526 20.2091 19.2502 20.1067 19.2502 20.0044V16.6788C19.2502 16.5765 19.3526 16.4742 19.455 16.4742H19.5574C19.6598 16.4742 19.7622 16.5765 19.7622 16.6788V20.0044C19.7622 20.1579 19.6598 20.2091 19.5574 20.2091Z" fill="#D9802B"/>
<path d="M19.5573 20.2091C19.4549 20.2091 19.3525 20.1067 19.3525 20.0044V16.6788C19.3525 16.5765 19.4549 16.4742 19.5573 16.4742C19.6597 16.4742 19.7621 16.5765 19.7621 16.6788V20.0044C19.7621 20.1579 19.7109 20.2091 19.5573 20.2091Z" fill="#E59333"/>
<path d="M21.2982 20.2091H21.1958C21.0934 20.2091 20.991 20.1067 20.991 20.0044V16.6788C20.991 16.5765 21.0934 16.4742 21.1958 16.4742H21.2982C21.4006 16.4742 21.503 16.5765 21.503 16.6788V20.0044C21.503 20.1579 21.4006 20.2091 21.2982 20.2091Z" fill="#D9802B"/>
<path d="M21.298 20.2091C21.1957 20.2091 21.0933 20.1067 21.0933 20.0044V16.6788C21.0933 16.5765 21.1957 16.4742 21.298 16.4742C21.4004 16.4742 21.5028 16.5765 21.5028 16.6788V20.0044C21.5028 20.1579 21.4004 20.2091 21.298 20.2091Z" fill="#E59333"/>
<path d="M23.0386 20.2091H22.9362C22.8338 20.2091 22.7314 20.1067 22.7314 20.0044V16.6788C22.7314 16.5765 22.8338 16.4742 22.9362 16.4742H23.0386C23.141 16.4742 23.2434 16.5765 23.2434 16.6788V20.0044C23.2434 20.1579 23.141 20.2091 23.0386 20.2091Z" fill="#D9802B"/>
<path d="M23.0385 20.2091C22.9361 20.2091 22.8337 20.1067 22.8337 20.0044V16.6788C22.8337 16.5765 22.9361 16.4742 23.0385 16.4742C23.1409 16.4742 23.2433 16.5765 23.2433 16.6788V20.0044C23.2433 20.1579 23.1409 20.2091 23.0385 20.2091Z" fill="#E59333"/>
<path d="M24.7283 20.2091H24.6259C24.5235 20.2091 24.4211 20.1067 24.4211 20.0044V16.6788C24.4211 16.5765 24.5235 16.4742 24.6259 16.4742H24.7283C24.8307 16.4742 24.9331 16.5765 24.9331 16.6788V20.0044C24.9843 20.1579 24.8819 20.2091 24.7283 20.2091Z" fill="#D9802B"/>
<path d="M24.7795 20.2091C24.6771 20.2091 24.5747 20.1067 24.5747 20.0044V16.6788C24.5747 16.5765 24.6771 16.4742 24.7795 16.4742C24.8819 16.4742 24.9843 16.5765 24.9843 16.6788V20.0044C24.9843 20.1579 24.8819 20.2091 24.7795 20.2091Z" fill="#E59333"/>
<path d="M26.4688 20.2091H26.3664C26.264 20.2091 26.1616 20.1067 26.1616 20.0044V16.6788C26.1616 16.5765 26.264 16.4742 26.3664 16.4742H26.4688C26.5712 16.4742 26.6736 16.5765 26.6736 16.6788V20.0044C26.7248 20.1579 26.6224 20.2091 26.4688 20.2091Z" fill="#D9802B"/>
<path d="M26.5202 20.2091C26.4178 20.2091 26.3154 20.1067 26.3154 20.0044V16.6788C26.3154 16.5765 26.4178 16.4742 26.5202 16.4742C26.6226 16.4742 26.725 16.5765 26.725 16.6788V20.0044C26.725 20.1579 26.6226 20.2091 26.5202 20.2091Z" fill="#E59333"/>
<path opacity="0.5" d="M27.8007 16.8839C27.8007 16.8327 27.8007 16.8327 27.8007 16.7815C27.7495 16.628 27.6471 16.4746 27.4935 16.3722C27.4423 16.3722 27.4423 16.3211 27.3911 16.3211C27.3399 16.2699 27.2375 16.2699 27.1863 16.2699H23.6536L23.8072 16.3211C24.0632 16.4746 24.268 16.7304 24.268 16.9862V19.135C24.268 19.5443 23.9608 19.8513 23.5512 19.8513H13.0557C13.1581 20.1071 13.4141 20.3117 13.67 20.3117H27.2375C27.5959 20.3117 27.9031 20.0048 27.9031 19.6466V16.8839C27.8007 16.935 27.8007 16.935 27.8007 16.8839Z" fill="#D9802B"/>
<path d="M46.8974 16.9863V19.749C46.8974 20.1072 46.5902 20.4142 46.2318 20.4142H32.6643C32.3572 20.4142 32.1524 20.2095 32.05 19.9537C31.9988 19.9025 31.9988 19.8002 31.9988 19.749V16.9863C31.9988 16.6281 32.306 16.3212 32.6643 16.3212H46.2318C46.3342 16.3212 46.3854 16.3212 46.4366 16.3723C46.4878 16.3723 46.4878 16.3723 46.539 16.4235C46.6926 16.5258 46.8462 16.6281 46.8462 16.8328C46.8462 16.884 46.8462 16.8839 46.8462 16.9351C46.8974 16.9351 46.8974 16.9351 46.8974 16.9863Z" fill="#F5DD64"/>
<path d="M46.0269 20.3629H33.2786C32.8179 20.3629 32.4595 20.0048 32.4595 19.5443V17.4978C32.4595 17.0373 32.8179 16.6792 33.2786 16.6792H46.0781C46.5389 16.6792 46.8973 17.0373 46.8973 17.4978V19.4931C46.8973 20.0048 46.4877 20.3629 46.0269 20.3629Z" fill="#F0D03C"/>
<path d="M34.3537 19.698H34.0465C33.8929 19.698 33.7905 19.5957 33.7905 19.4422V16.884C33.7905 16.7306 33.8929 16.6282 34.0465 16.6282H34.3537C34.5073 16.6282 34.6097 16.7306 34.6097 16.884V19.4422C34.6097 19.5445 34.5073 19.698 34.3537 19.698Z" fill="#FAF1BB"/>
<path d="M32.7155 19.698H32.4083C32.2547 19.698 32.1523 19.5957 32.1523 19.4422V16.884C32.1523 16.7306 32.2547 16.6282 32.4083 16.6282H32.7155C32.8691 16.6282 32.9715 16.7306 32.9715 16.884V19.4422C32.9715 19.5445 32.8691 19.698 32.7155 19.698Z" fill="#F5E697"/>
<path d="M36.1457 19.698H35.8385C35.6849 19.698 35.5825 19.5957 35.5825 19.4422V16.884C35.5825 16.7306 35.6849 16.6282 35.8385 16.6282H36.1457C36.2993 16.6282 36.4017 16.7306 36.4017 16.884V19.4422C36.4017 19.5445 36.2481 19.698 36.1457 19.698Z" fill="#FAF1BB"/>
<path d="M37.8354 19.698H37.5282C37.3746 19.698 37.2722 19.5957 37.2722 19.4422V16.884C37.2722 16.7306 37.3746 16.6282 37.5282 16.6282H37.8354C37.989 16.6282 38.0914 16.7306 38.0914 16.884V19.4422C38.0914 19.5445 37.989 19.698 37.8354 19.698Z" fill="#F7E37C"/>
<path d="M33.4322 20.209H33.3298C33.2274 20.209 33.125 20.1067 33.125 20.0043V16.6788C33.125 16.5764 33.2274 16.4741 33.3298 16.4741H33.4322C33.5346 16.4741 33.637 16.5764 33.637 16.6788V20.0043C33.637 20.1578 33.5346 20.209 33.4322 20.209Z" fill="#D9802B"/>
<path d="M33.4323 20.2092C33.3299 20.2092 33.2275 20.1069 33.2275 20.0046V16.679C33.2275 16.5767 33.3299 16.4744 33.4323 16.4744C33.5347 16.4744 33.6371 16.5767 33.6371 16.679V20.0046C33.6371 20.1581 33.5347 20.2092 33.4323 20.2092Z" fill="#E59333"/>
<path d="M35.1217 20.2091H35.0705C34.9681 20.2091 34.8657 20.1067 34.8657 20.0044V16.6788C34.8657 16.5765 34.9681 16.4742 35.0705 16.4742H35.1729C35.2753 16.4742 35.3777 16.5765 35.3777 16.6788V20.0044C35.3777 20.1579 35.2753 20.2091 35.1217 20.2091Z" fill="#D9802B"/>
<path d="M35.1728 20.2091C35.0704 20.2091 34.968 20.1067 34.968 20.0044V16.6788C34.968 16.5765 35.0704 16.4742 35.1728 16.4742C35.2752 16.4742 35.3776 16.5765 35.3776 16.6788V20.0044C35.3776 20.1579 35.2752 20.2091 35.1728 20.2091Z" fill="#E59333"/>
<path d="M36.8624 20.2091H36.76C36.6576 20.2091 36.5552 20.1067 36.5552 20.0044V16.6788C36.5552 16.5765 36.6576 16.4742 36.76 16.4742H36.8624C36.9648 16.4742 37.0671 16.5765 37.0671 16.6788V20.0044C37.1183 20.1579 37.0159 20.2091 36.8624 20.2091Z" fill="#D9802B"/>
<path d="M36.9138 20.2091C36.8114 20.2091 36.709 20.1067 36.709 20.0044V16.6788C36.709 16.5765 36.8114 16.4742 36.9138 16.4742C37.0162 16.4742 37.1186 16.5765 37.1186 16.6788V20.0044C37.1186 20.1579 37.0162 20.2091 36.9138 20.2091Z" fill="#E59333"/>
<path d="M38.6031 20.2091H38.5007C38.3983 20.2091 38.2959 20.1067 38.2959 20.0044V16.6788C38.2959 16.5765 38.3983 16.4742 38.5007 16.4742H38.6031C38.7055 16.4742 38.8079 16.5765 38.8079 16.6788V20.0044C38.8079 20.1579 38.7567 20.2091 38.6031 20.2091Z" fill="#D9802B"/>
<path d="M38.6545 20.2091C38.5521 20.2091 38.4497 20.1067 38.4497 20.0044V16.6788C38.4497 16.5765 38.5521 16.4742 38.6545 16.4742C38.7569 16.4742 38.8593 16.5765 38.8593 16.6788V20.0044C38.8081 20.1579 38.7569 20.2091 38.6545 20.2091Z" fill="#E59333"/>
<path d="M40.344 20.2091H40.2416C40.1393 20.2091 40.0369 20.1067 40.0369 20.0044V16.6788C40.0369 16.5765 40.1393 16.4742 40.2416 16.4742H40.344C40.4464 16.4742 40.5488 16.5765 40.5488 16.6788V20.0044C40.5488 20.1579 40.4464 20.2091 40.344 20.2091Z" fill="#D9802B"/>
<path d="M40.3952 20.2091C40.2928 20.2091 40.1904 20.1067 40.1904 20.0044V16.6788C40.1904 16.5765 40.2928 16.4742 40.3952 16.4742C40.4976 16.4742 40.6 16.5765 40.6 16.6788V20.0044C40.5488 20.1579 40.4976 20.2091 40.3952 20.2091Z" fill="#E59333"/>
<path d="M42.0848 20.2091H41.9824C41.88 20.2091 41.7776 20.1067 41.7776 20.0044V16.6788C41.7776 16.5765 41.88 16.4742 41.9824 16.4742H42.0848C42.1872 16.4742 42.2896 16.5765 42.2896 16.6788V20.0044C42.2896 20.1579 42.1872 20.2091 42.0848 20.2091Z" fill="#D9802B"/>
<path d="M42.0847 20.2091C41.9823 20.2091 41.8799 20.1067 41.8799 20.0044V16.6788C41.8799 16.5765 41.9823 16.4742 42.0847 16.4742C42.1871 16.4742 42.2895 16.5765 42.2895 16.6788V20.0044C42.2895 20.1579 42.1871 20.2091 42.0847 20.2091Z" fill="#E59333"/>
<path d="M43.8253 20.2091H43.7229C43.6205 20.2091 43.5181 20.1067 43.5181 20.0044V16.6788C43.5181 16.5765 43.6205 16.4742 43.7229 16.4742H43.8253C43.9277 16.4742 44.0301 16.5765 44.0301 16.6788V20.0044C44.0301 20.1579 43.9277 20.2091 43.8253 20.2091Z" fill="#D9802B"/>
<path d="M43.8254 20.2091C43.723 20.2091 43.6206 20.1067 43.6206 20.0044V16.6788C43.6206 16.5765 43.723 16.4742 43.8254 16.4742C43.9278 16.4742 44.0302 16.5765 44.0302 16.6788V20.0044C44.0302 20.1579 43.9278 20.2091 43.8254 20.2091Z" fill="#E59333"/>
<path d="M45.515 20.2091H45.4126C45.3102 20.2091 45.2078 20.1067 45.2078 20.0044V16.6788C45.2078 16.5765 45.3102 16.4742 45.4126 16.4742H45.515C45.6174 16.4742 45.7198 16.5765 45.7198 16.6788V20.0044C45.7709 20.1579 45.6686 20.2091 45.515 20.2091Z" fill="#D9802B"/>
<path d="M45.5661 20.2091C45.4637 20.2091 45.3613 20.1067 45.3613 20.0044V16.6788C45.3613 16.5765 45.4637 16.4742 45.5661 16.4742C45.6685 16.4742 45.7709 16.5765 45.7709 16.6788V20.0044C45.7709 20.1579 45.6685 20.2091 45.5661 20.2091Z" fill="#E59333"/>
<path opacity="0.5" d="M46.8976 16.8839C46.8976 16.8327 46.8976 16.8327 46.8976 16.7815C46.8464 16.628 46.744 16.4746 46.5904 16.3722C46.5392 16.3722 46.5392 16.3211 46.488 16.3211C46.4368 16.2699 46.3344 16.2699 46.2832 16.2699H42.7506L42.9042 16.3211C43.1601 16.4746 43.3649 16.7304 43.3649 16.9862V19.135C43.3649 19.5443 43.0577 19.8513 42.6482 19.8513H32.1526C32.255 20.1071 32.511 20.3117 32.767 20.3117H46.3344C46.6928 20.3117 47 20.0048 47 19.6466V16.8839C46.8976 16.935 46.8976 16.935 46.8976 16.8839Z" fill="#D9802B"/>
<path d="M29.1828 12.8928V15.6556C29.1828 16.0137 28.8756 16.3207 28.5172 16.3207H14.9498C14.6426 16.3207 14.4378 16.1161 14.3354 15.8603C14.2842 15.8091 14.2842 15.7068 14.2842 15.6556V12.8928C14.2842 12.5347 14.5914 12.2277 14.9498 12.2277H28.5172C28.6196 12.2277 28.6708 12.2277 28.722 12.2789C28.7732 12.2789 28.7732 12.2789 28.8244 12.33C28.978 12.4324 29.1316 12.5347 29.1316 12.7393C29.1316 12.7905 29.1316 12.7905 29.1316 12.8417L29.1828 12.8928Z" fill="#F5DD64"/>
<path d="M28.3125 16.3207H15.5643C15.1035 16.3207 14.7451 15.9625 14.7451 15.5021V13.4556C14.7451 12.9951 15.1035 12.637 15.5643 12.637H28.3637C28.8245 12.637 29.1829 12.9951 29.1829 13.4556V15.4509C29.1829 15.9625 28.7733 16.3207 28.3125 16.3207Z" fill="#F0D03C"/>
<path d="M16.6394 15.6048H16.3322C16.1786 15.6048 16.0762 15.5025 16.0762 15.349V12.7908C16.0762 12.6374 16.1786 12.535 16.3322 12.535H16.6394C16.793 12.535 16.8954 12.6374 16.8954 12.7908V15.349C16.8954 15.5025 16.793 15.6048 16.6394 15.6048Z" fill="#FAF1BB"/>
<path d="M15.0009 15.6048H14.6937C14.5401 15.6048 14.4377 15.5025 14.4377 15.349V12.7908C14.4377 12.6374 14.5401 12.535 14.6937 12.535H15.0009C15.1545 12.535 15.2569 12.6374 15.2569 12.7908V15.349C15.2569 15.5025 15.1545 15.6048 15.0009 15.6048Z" fill="#F5E697"/>
<path d="M18.3801 15.6048H18.0729C17.9193 15.6048 17.8169 15.5025 17.8169 15.349V12.7908C17.8169 12.6374 17.9193 12.535 18.0729 12.535H18.3801C18.5337 12.535 18.6361 12.6374 18.6361 12.7908V15.349C18.6873 15.5025 18.5337 15.6048 18.3801 15.6048Z" fill="#FAF1BB"/>
<path d="M20.1208 15.6048H19.8136C19.66 15.6048 19.5576 15.5025 19.5576 15.349V12.7908C19.5576 12.6374 19.66 12.535 19.8136 12.535H20.1208C20.2744 12.535 20.3768 12.6374 20.3768 12.7908V15.349C20.3768 15.5025 20.2744 15.6048 20.1208 15.6048Z" fill="#F7E37C"/>
<path d="M15.7176 16.1671H15.6152C15.5128 16.1671 15.4104 16.0648 15.4104 15.9625V12.6369C15.4104 12.5346 15.5128 12.4323 15.6152 12.4323H15.7176C15.82 12.4323 15.9224 12.5346 15.9224 12.6369V15.9625C15.9224 16.0648 15.82 16.1671 15.7176 16.1671Z" fill="#D9802B"/>
<path d="M15.7177 16.1668C15.6153 16.1668 15.5129 16.0645 15.5129 15.9622V12.6366C15.5129 12.5343 15.6153 12.4319 15.7177 12.4319C15.8201 12.4319 15.9225 12.5343 15.9225 12.6366V15.9622C15.9225 16.0645 15.8201 16.1668 15.7177 16.1668Z" fill="#E59333"/>
<path d="M17.407 16.1668H17.3046C17.2022 16.1668 17.0999 16.0645 17.0999 15.9622V12.6366C17.0999 12.5343 17.2022 12.4319 17.3046 12.4319H17.407C17.5094 12.4319 17.6118 12.5343 17.6118 12.6366V15.9622C17.663 16.0645 17.5606 16.1668 17.407 16.1668Z" fill="#D9802B"/>
<path d="M17.4582 16.1668C17.3558 16.1668 17.2534 16.0645 17.2534 15.9622V12.6366C17.2534 12.5343 17.3558 12.4319 17.4582 12.4319C17.5606 12.4319 17.663 12.5343 17.663 12.6366V15.9622C17.663 16.0645 17.5606 16.1668 17.4582 16.1668Z" fill="#E59333"/>
<path d="M19.1478 16.1668H19.0454C18.943 16.1668 18.8406 16.0645 18.8406 15.9622V12.6366C18.8406 12.5343 18.943 12.4319 19.0454 12.4319H19.1478C19.2502 12.4319 19.3525 12.5343 19.3525 12.6366V15.9622C19.4037 16.0645 19.3013 16.1668 19.1478 16.1668Z" fill="#D9802B"/>
<path d="M19.1989 16.1668C19.0965 16.1668 18.9941 16.0645 18.9941 15.9622V12.6366C18.9941 12.5343 19.0965 12.4319 19.1989 12.4319C19.3013 12.4319 19.4037 12.5343 19.4037 12.6366V15.9622C19.4037 16.0645 19.3013 16.1668 19.1989 16.1668Z" fill="#E59333"/>
<path d="M20.8885 16.1668H20.7861C20.6837 16.1668 20.5813 16.0645 20.5813 15.9622V12.6366C20.5813 12.5343 20.6837 12.4319 20.7861 12.4319H20.8885C20.9909 12.4319 21.0933 12.5343 21.0933 12.6366V15.9622C21.0933 16.0645 20.9909 16.1668 20.8885 16.1668Z" fill="#D9802B"/>
<path d="M20.9397 16.1668C20.8373 16.1668 20.7349 16.0645 20.7349 15.9622V12.6366C20.7349 12.5343 20.8373 12.4319 20.9397 12.4319C21.042 12.4319 21.1444 12.5343 21.1444 12.6366V15.9622C21.0932 16.0645 21.042 16.1668 20.9397 16.1668Z" fill="#E59333"/>
<path d="M22.6292 16.1668H22.5268C22.4244 16.1668 22.322 16.0645 22.322 15.9622V12.6366C22.322 12.5343 22.4244 12.4319 22.5268 12.4319H22.6292C22.7316 12.4319 22.834 12.5343 22.834 12.6366V15.9622C22.834 16.0645 22.7316 16.1668 22.6292 16.1668Z" fill="#D9802B"/>
<path d="M22.6291 16.1668C22.5267 16.1668 22.4243 16.0645 22.4243 15.9622V12.6366C22.4243 12.5343 22.5267 12.4319 22.6291 12.4319C22.7315 12.4319 22.8339 12.5343 22.8339 12.6366V15.9622C22.8339 16.0645 22.7315 16.1668 22.6291 16.1668Z" fill="#E59333"/>
<path d="M24.3699 16.1668H24.2675C24.1651 16.1668 24.0627 16.0645 24.0627 15.9622V12.6366C24.0627 12.5343 24.1651 12.4319 24.2675 12.4319H24.3699C24.4723 12.4319 24.5747 12.5343 24.5747 12.6366V15.9622C24.5747 16.0645 24.4723 16.1668 24.3699 16.1668Z" fill="#D9802B"/>
<path d="M24.3698 16.1668C24.2674 16.1668 24.165 16.0645 24.165 15.9622V12.6366C24.165 12.5343 24.2674 12.4319 24.3698 12.4319C24.4722 12.4319 24.5746 12.5343 24.5746 12.6366V15.9622C24.5746 16.0645 24.4722 16.1668 24.3698 16.1668Z" fill="#E59333"/>
<path d="M26.0594 16.1668H25.957C25.8546 16.1668 25.7522 16.0645 25.7522 15.9622V12.6366C25.7522 12.5343 25.8546 12.4319 25.957 12.4319H26.0594C26.1618 12.4319 26.2642 12.5343 26.2642 12.6366V15.9622C26.3154 16.0645 26.213 16.1668 26.0594 16.1668Z" fill="#D9802B"/>
<path d="M26.1108 16.1668C26.0084 16.1668 25.906 16.0645 25.906 15.9622V12.6366C25.906 12.5343 26.0084 12.4319 26.1108 12.4319C26.2132 12.4319 26.3156 12.5343 26.3156 12.6366V15.9622C26.3156 16.0645 26.2132 16.1668 26.1108 16.1668Z" fill="#E59333"/>
<path d="M27.8001 16.1668H27.6977C27.5953 16.1668 27.4929 16.0645 27.4929 15.9622V12.6366C27.4929 12.5343 27.5953 12.4319 27.6977 12.4319H27.8001C27.9025 12.4319 28.0049 12.5343 28.0049 12.6366V15.9622C28.0561 16.0645 27.9537 16.1668 27.8001 16.1668Z" fill="#D9802B"/>
<path d="M27.8513 16.1668C27.7489 16.1668 27.6465 16.0645 27.6465 15.9622V12.6366C27.6465 12.5343 27.7489 12.4319 27.8513 12.4319C27.9537 12.4319 28.0561 12.5343 28.0561 12.6366V15.9622C28.0561 16.0645 27.9537 16.1668 27.8513 16.1668Z" fill="#E59333"/>
<path opacity="0.5" d="M29.1317 12.8422C29.1317 12.791 29.1317 12.7911 29.1317 12.7399C29.0805 12.5864 28.9781 12.4329 28.8245 12.3306C28.7733 12.3306 28.7734 12.2794 28.7222 12.2794C28.671 12.2283 28.5686 12.2283 28.5174 12.2283H24.9847L25.1383 12.2794C25.3943 12.4329 25.5991 12.6887 25.5991 12.9445V15.0934C25.5991 15.5027 25.2919 15.8096 24.8823 15.8096H14.3867C14.4891 16.0654 14.7451 16.2701 15.0011 16.2701H28.5686C28.9269 16.2701 29.2341 15.9631 29.2341 15.605V12.8422C29.1829 12.8934 29.1317 12.8422 29.1317 12.8422Z" fill="#D9802B"/>
<path d="M27.2372 8.8509V11.6137C27.2372 11.9718 26.93 12.2788 26.5716 12.2788H13.0042C12.697 12.2788 12.4922 12.0741 12.3898 11.8695C12.3386 11.8183 12.3386 11.716 12.3386 11.6648V8.8509C12.3386 8.49276 12.6458 8.18579 13.0042 8.18579H26.5716C26.674 8.18579 26.7252 8.18578 26.7764 8.23694C26.8276 8.23694 26.8276 8.23694 26.8788 8.28811C27.0324 8.39043 27.186 8.49277 27.186 8.69742C27.186 8.74858 27.186 8.74857 27.186 8.79973C27.2372 8.79973 27.2372 8.8509 27.2372 8.8509Z" fill="#F5DD64"/>
<path d="M26.3668 12.2791H13.6185C13.1577 12.2791 12.7993 11.921 12.7993 11.4605V9.414C12.7993 8.95354 13.1577 8.5954 13.6185 8.5954H26.418C26.8787 8.5954 27.2371 8.95354 27.2371 9.414V11.4093C27.2371 11.8698 26.8275 12.2791 26.3668 12.2791Z" fill="#F0D03C"/>
<path d="M14.6938 11.5629H14.3866C14.233 11.5629 14.1306 11.4605 14.1306 11.307V8.74892C14.1306 8.59543 14.233 8.4931 14.3866 8.4931H14.6938C14.8474 8.4931 14.9498 8.59543 14.9498 8.74892V11.307C14.9498 11.4605 14.8474 11.5629 14.6938 11.5629Z" fill="#FAF1BB"/>
<path d="M13.0554 11.5629H12.7482C12.5946 11.5629 12.4922 11.4605 12.4922 11.307V8.74892C12.4922 8.59543 12.5946 8.4931 12.7482 8.4931H13.0554C13.209 8.4931 13.3114 8.59543 13.3114 8.74892V11.307C13.3114 11.4605 13.209 11.5629 13.0554 11.5629Z" fill="#F5E697"/>
<path d="M16.4855 11.5629H16.1783C16.0248 11.5629 15.9224 11.4605 15.9224 11.307V8.74892C15.9224 8.59543 16.0248 8.4931 16.1783 8.4931H16.4855C16.6391 8.4931 16.7415 8.59543 16.7415 8.74892V11.307C16.7415 11.4605 16.5879 11.5629 16.4855 11.5629Z" fill="#FAF1BB"/>
<path d="M18.1753 11.5629H17.8681C17.7145 11.5629 17.6121 11.4605 17.6121 11.307V8.74892C17.6121 8.59543 17.7145 8.4931 17.8681 8.4931H18.1753C18.3289 8.4931 18.4313 8.59543 18.4313 8.74892V11.307C18.4313 11.4605 18.3289 11.5629 18.1753 11.5629Z" fill="#F7E37C"/>
<path d="M13.772 12.1251H13.6696C13.5672 12.1251 13.4648 12.0228 13.4648 11.9205V8.59491C13.4648 8.49258 13.5672 8.39026 13.6696 8.39026H13.772C13.8744 8.39026 13.9768 8.49258 13.9768 8.59491V11.9205C13.9768 12.0228 13.8744 12.1251 13.772 12.1251Z" fill="#D9802B"/>
<path d="M13.7722 12.1256C13.6698 12.1256 13.5674 12.0233 13.5674 11.921V8.59539C13.5674 8.49307 13.6698 8.39075 13.7722 8.39075C13.8746 8.39075 13.977 8.49307 13.977 8.59539V11.921C13.977 12.0233 13.8746 12.1256 13.7722 12.1256Z" fill="#E59333"/>
<path d="M15.4615 12.1254H15.3591C15.2567 12.1254 15.1543 12.0231 15.1543 11.9208V8.59521C15.1543 8.49289 15.2567 8.39056 15.3591 8.39056H15.4615C15.5639 8.39056 15.6663 8.49289 15.6663 8.59521V11.9208C15.7175 12.0231 15.6151 12.1254 15.4615 12.1254Z" fill="#D9802B"/>
<path d="M15.5127 12.1254C15.4103 12.1254 15.3079 12.0231 15.3079 11.9208V8.59521C15.3079 8.49289 15.4103 8.39056 15.5127 8.39056C15.615 8.39056 15.7175 8.49289 15.7175 8.59521V11.9208C15.7175 12.0231 15.615 12.1254 15.5127 12.1254Z" fill="#E59333"/>
<path d="M17.2023 12.1254H17.1511C17.0487 12.1254 16.9463 12.0231 16.9463 11.9208V8.59521C16.9463 8.49289 17.0487 8.39056 17.1511 8.39056H17.2535C17.3559 8.39056 17.4583 8.49289 17.4583 8.59521V11.9208C17.4583 12.0231 17.3559 12.1254 17.2023 12.1254Z" fill="#D9802B"/>
<path d="M17.2534 12.1254C17.151 12.1254 17.0486 12.0231 17.0486 11.9208V8.59521C17.0486 8.49289 17.151 8.39056 17.2534 8.39056C17.3558 8.39056 17.4582 8.49289 17.4582 8.59521V11.9208C17.4582 12.0231 17.3558 12.1254 17.2534 12.1254Z" fill="#E59333"/>
<path d="M18.9429 12.1254H18.8405C18.7381 12.1254 18.6357 12.0231 18.6357 11.9208V8.59521C18.6357 8.49289 18.7381 8.39056 18.8405 8.39056H18.9429C19.0453 8.39056 19.1477 8.49289 19.1477 8.59521V11.9208C19.1477 12.0231 19.0453 12.1254 18.9429 12.1254Z" fill="#D9802B"/>
<path d="M18.9941 12.1254C18.8917 12.1254 18.7893 12.0231 18.7893 11.9208V8.59521C18.7893 8.49289 18.8917 8.39056 18.9941 8.39056C19.0965 8.39056 19.1989 8.49289 19.1989 8.59521V11.9208C19.1477 12.0231 19.0965 12.1254 18.9941 12.1254Z" fill="#E59333"/>
<path d="M20.6836 12.1254H20.5813C20.4789 12.1254 20.3765 12.0231 20.3765 11.9208V8.59521C20.3765 8.49289 20.4789 8.39056 20.5813 8.39056H20.6836C20.786 8.39056 20.8884 8.49289 20.8884 8.59521V11.9208C20.8884 12.0231 20.786 12.1254 20.6836 12.1254Z" fill="#D9802B"/>
<path d="M20.6838 12.1254C20.5814 12.1254 20.479 12.0231 20.479 11.9208V8.59521C20.479 8.49289 20.5814 8.39056 20.6838 8.39056C20.7862 8.39056 20.8886 8.49289 20.8886 8.59521V11.9208C20.8886 12.0231 20.8374 12.1254 20.6838 12.1254Z" fill="#E59333"/>
<path d="M22.4246 12.1254H22.3222C22.2198 12.1254 22.1174 12.0231 22.1174 11.9208V8.59521C22.1174 8.49289 22.2198 8.39056 22.3222 8.39056H22.4246C22.527 8.39056 22.6294 8.49289 22.6294 8.59521V11.9208C22.6294 12.0231 22.527 12.1254 22.4246 12.1254Z" fill="#D9802B"/>
<path d="M22.4245 12.1254C22.3221 12.1254 22.2197 12.0231 22.2197 11.9208V8.59521C22.2197 8.49289 22.3221 8.39056 22.4245 8.39056C22.5269 8.39056 22.6293 8.49289 22.6293 8.59521V11.9208C22.6293 12.0231 22.5269 12.1254 22.4245 12.1254Z" fill="#E59333"/>
<path d="M24.1653 12.1254H24.0629C23.9605 12.1254 23.8582 12.0231 23.8582 11.9208V8.59521C23.8582 8.49289 23.9605 8.39056 24.0629 8.39056H24.1653C24.2677 8.39056 24.3701 8.49289 24.3701 8.59521V11.9208C24.3701 12.0231 24.2677 12.1254 24.1653 12.1254Z" fill="#D9802B"/>
<path d="M24.1653 12.1254C24.0629 12.1254 23.9604 12.0231 23.9604 11.9208V8.59521C23.9604 8.49289 24.0629 8.39056 24.1653 8.39056C24.2677 8.39056 24.37 8.49289 24.37 8.59521V11.9208C24.37 12.0231 24.2677 12.1254 24.1653 12.1254Z" fill="#E59333"/>
<path d="M25.8548 12.1254H25.7524C25.65 12.1254 25.5476 12.0231 25.5476 11.9208V8.59521C25.5476 8.49289 25.65 8.39056 25.7524 8.39056H25.8548C25.9572 8.39056 26.0595 8.49289 26.0595 8.59521V11.9208C26.1107 12.0231 26.0084 12.1254 25.8548 12.1254Z" fill="#D9802B"/>
<path d="M25.906 12.1254C25.8036 12.1254 25.7012 12.0231 25.7012 11.9208V8.59521C25.7012 8.49289 25.8036 8.39056 25.906 8.39056C26.0084 8.39056 26.1107 8.49289 26.1107 8.59521V11.9208C26.1107 12.0231 26.0084 12.1254 25.906 12.1254Z" fill="#E59333"/>
<path opacity="0.5" d="M27.1861 8.74871C27.1861 8.69754 27.1861 8.69755 27.1861 8.64639C27.135 8.4929 27.0326 8.33941 26.879 8.23708C26.8278 8.23708 26.8278 8.18593 26.7766 8.18593C26.7254 8.13477 26.623 8.13477 26.5718 8.13477H23.0391L23.1927 8.18593C23.4487 8.33942 23.6535 8.59522 23.6535 8.85104V10.9999C23.6535 11.4092 23.3463 11.7161 22.9367 11.7161H12.4412C12.5436 11.972 12.7996 12.1254 13.0555 12.1254H26.623C26.9814 12.1254 27.2885 11.8185 27.2885 11.4603V8.85104C27.2373 8.85104 27.2373 8.79987 27.1861 8.74871Z" fill="#D9802B"/>
<path d="M26.5717 4.80959V7.57237C26.5717 7.93051 26.2645 8.23748 25.9061 8.23748H12.3387C12.0315 8.23748 11.8267 8.03283 11.7243 7.77702C11.6731 7.72585 11.6731 7.62353 11.6731 7.57237V4.80959C11.6731 4.45146 11.9803 4.14447 12.3387 4.14447H25.9061C26.0085 4.14447 26.0597 4.14447 26.1109 4.19564C26.1621 4.19564 26.1621 4.19564 26.2133 4.2468C26.3669 4.34913 26.5205 4.45145 26.5205 4.6561C26.5205 4.70726 26.5205 4.70726 26.5205 4.75843C26.5717 4.75843 26.5717 4.75843 26.5717 4.80959Z" fill="#F5DD64"/>
<path d="M25.7012 8.18591H12.9529C12.4922 8.18591 12.1338 7.82777 12.1338 7.3673V5.3208C12.1338 4.86034 12.4922 4.5022 12.9529 4.5022H25.7524C26.2132 4.5022 26.5716 4.86034 26.5716 5.3208V7.31614C26.5716 7.82776 26.162 8.18591 25.7012 8.18591Z" fill="#F0D03C"/>
<path d="M14.028 7.52126H13.7208C13.5672 7.52126 13.4648 7.41894 13.4648 7.26545V4.70732C13.4648 4.55383 13.5672 4.45151 13.7208 4.45151H14.028C14.1816 4.45151 14.284 4.55383 14.284 4.70732V7.26545C14.3352 7.36777 14.1816 7.52126 14.028 7.52126Z" fill="#FAF1BB"/>
<path d="M12.4413 7.52141H12.1342C11.9806 7.52141 11.8782 7.41909 11.8782 7.2656V4.70747C11.8782 4.55399 11.9806 4.45166 12.1342 4.45166H12.4413C12.5949 4.45166 12.6973 4.55399 12.6973 4.70747V7.2656C12.6973 7.36792 12.5437 7.52141 12.4413 7.52141Z" fill="#F5E697"/>
<path d="M15.82 7.52126H15.5128C15.3592 7.52126 15.2568 7.41894 15.2568 7.26545V4.70732C15.2568 4.55383 15.3592 4.45151 15.5128 4.45151H15.82C15.9736 4.45151 16.076 4.55383 16.076 4.70732V7.26545C16.076 7.36777 15.9736 7.52126 15.82 7.52126Z" fill="#FAF1BB"/>
<path d="M17.5097 7.52126H17.2025C17.0489 7.52126 16.9465 7.41894 16.9465 7.26545V4.70732C16.9465 4.55383 17.0489 4.45151 17.2025 4.45151H17.5097C17.6633 4.45151 17.7657 4.55383 17.7657 4.70732V7.26545C17.7657 7.36777 17.6633 7.52126 17.5097 7.52126Z" fill="#F7E37C"/>
<path d="M13.1068 8.03268H13.0044C12.902 8.03268 12.7996 7.93036 12.7996 7.82803V4.50247C12.7996 4.40014 12.902 4.29782 13.0044 4.29782H13.1068C13.2092 4.29782 13.3115 4.40014 13.3115 4.50247V7.82803C13.3115 7.98152 13.2092 8.03268 13.1068 8.03268Z" fill="#D9802B"/>
<path d="M13.1069 8.03259C13.0045 8.03259 12.9021 7.93027 12.9021 7.82794V4.50238C12.9021 4.40005 13.0045 4.29773 13.1069 4.29773C13.2093 4.29773 13.3117 4.40005 13.3117 4.50238V7.82794C13.3117 7.98143 13.2093 8.03259 13.1069 8.03259Z" fill="#E59333"/>
<path d="M14.8475 8.03259H14.7451C14.6427 8.03259 14.5403 7.93027 14.5403 7.82794V4.50238C14.5403 4.40005 14.6427 4.29773 14.7451 4.29773H14.8475C14.9499 4.29773 15.0523 4.40005 15.0523 4.50238V7.82794C15.0523 7.98143 14.9499 8.03259 14.8475 8.03259Z" fill="#D9802B"/>
<path d="M14.8476 8.03259C14.7452 8.03259 14.6428 7.93027 14.6428 7.82794V4.50238C14.6428 4.40005 14.7452 4.29773 14.8476 4.29773C14.95 4.29773 15.0524 4.40005 15.0524 4.50238V7.82794C15.0524 7.98143 14.95 8.03259 14.8476 8.03259Z" fill="#E59333"/>
<path d="M16.5371 8.03259H16.4348C16.3324 8.03259 16.23 7.93027 16.23 7.82794V4.50238C16.23 4.40005 16.3324 4.29773 16.4348 4.29773H16.5371C16.6395 4.29773 16.7419 4.40005 16.7419 4.50238V7.82794C16.7931 7.98143 16.6907 8.03259 16.5371 8.03259Z" fill="#D9802B"/>
<path d="M16.5883 8.03259C16.4859 8.03259 16.3835 7.93027 16.3835 7.82794V4.50238C16.3835 4.40005 16.4859 4.29773 16.5883 4.29773C16.6907 4.29773 16.7931 4.40005 16.7931 4.50238V7.82794C16.7931 7.98143 16.6907 8.03259 16.5883 8.03259Z" fill="#E59333"/>
<path d="M18.2779 8.03259H18.1755C18.0731 8.03259 17.9707 7.93027 17.9707 7.82794V4.50238C17.9707 4.40005 18.0731 4.29773 18.1755 4.29773H18.2779C18.3803 4.29773 18.4827 4.40005 18.4827 4.50238V7.82794C18.5339 7.98143 18.4315 8.03259 18.2779 8.03259Z" fill="#D9802B"/>
<path d="M18.3291 8.03259C18.2267 8.03259 18.1243 7.93027 18.1243 7.82794V4.50238C18.1243 4.40005 18.2267 4.29773 18.3291 4.29773C18.4315 4.29773 18.5339 4.40005 18.5339 4.50238V7.82794C18.5339 7.98143 18.4315 8.03259 18.3291 8.03259Z" fill="#E59333"/>
<path d="M20.0186 8.03259H19.9162C19.8138 8.03259 19.7114 7.93027 19.7114 7.82794V4.50238C19.7114 4.40005 19.8138 4.29773 19.9162 4.29773H20.0186C20.121 4.29773 20.2234 4.40005 20.2234 4.50238V7.82794C20.2234 7.98143 20.121 8.03259 20.0186 8.03259Z" fill="#D9802B"/>
<path d="M20.0698 8.03259C19.9674 8.03259 19.865 7.93027 19.865 7.82794V4.50238C19.865 4.40005 19.9674 4.29773 20.0698 4.29773C20.1722 4.29773 20.2746 4.40005 20.2746 4.50238V7.82794C20.2234 7.98143 20.1722 8.03259 20.0698 8.03259Z" fill="#E59333"/>
<path d="M21.7593 8.03259H21.6569C21.5545 8.03259 21.4521 7.93027 21.4521 7.82794V4.50238C21.4521 4.40005 21.5545 4.29773 21.6569 4.29773H21.7593C21.8617 4.29773 21.9641 4.40005 21.9641 4.50238V7.82794C21.9641 7.98143 21.8617 8.03259 21.7593 8.03259Z" fill="#D9802B"/>
<path d="M21.7592 8.03259C21.6568 8.03259 21.5544 7.93027 21.5544 7.82794V4.50238C21.5544 4.40005 21.6568 4.29773 21.7592 4.29773C21.8616 4.29773 21.964 4.40005 21.964 4.50238V7.82794C21.964 7.98143 21.9128 8.03259 21.7592 8.03259Z" fill="#E59333"/>
<path d="M23.4998 8.03259H23.3974C23.295 8.03259 23.1926 7.93027 23.1926 7.82794V4.50238C23.1926 4.40005 23.295 4.29773 23.3974 4.29773H23.4998C23.6022 4.29773 23.7046 4.40005 23.7046 4.50238V7.82794C23.7046 7.98143 23.6022 8.03259 23.4998 8.03259Z" fill="#D9802B"/>
<path d="M23.5 8.03259C23.3976 8.03259 23.2952 7.93027 23.2952 7.82794V4.50238C23.2952 4.40005 23.3976 4.29773 23.5 4.29773C23.6023 4.29773 23.7047 4.40005 23.7047 4.50238V7.82794C23.7047 7.98143 23.6023 8.03259 23.5 8.03259Z" fill="#E59333"/>
<path d="M25.2408 8.03259H25.1384C25.036 8.03259 24.9336 7.93027 24.9336 7.82794V4.50238C24.9336 4.40005 25.036 4.29773 25.1384 4.29773H25.2408C25.3432 4.29773 25.4456 4.40005 25.4456 4.50238V7.82794C25.4456 7.98143 25.3432 8.03259 25.2408 8.03259Z" fill="#D9802B"/>
<path d="M25.2407 8.03259C25.1383 8.03259 25.0359 7.93027 25.0359 7.82794V4.50238C25.0359 4.40005 25.1383 4.29773 25.2407 4.29773C25.3431 4.29773 25.4455 4.40005 25.4455 4.50238V7.82794C25.4455 7.98143 25.3431 8.03259 25.2407 8.03259Z" fill="#E59333"/>
<path opacity="0.5" d="M26.5719 4.70714C26.5719 4.65598 26.5719 4.65599 26.5719 4.60482C26.5207 4.45134 26.4183 4.29784 26.2647 4.19552C26.2135 4.19552 26.2135 4.14435 26.1623 4.14435C26.1111 4.09319 26.0087 4.0932 25.9575 4.0932H22.4248L22.5785 4.14435C22.8344 4.29784 23.0392 4.55366 23.0392 4.80947V6.95828C23.0392 7.36758 22.732 7.67457 22.3225 7.67457H11.8269C11.9293 7.93038 12.1853 8.13503 12.4413 8.13503H26.0087C26.3671 8.13503 26.6743 7.82804 26.6743 7.4699V4.70714C26.5719 4.7583 26.5719 4.7583 26.5719 4.70714Z" fill="#D9802B"/>
<path d="M22.476 0.665114V3.42789C22.476 3.78602 22.1688 4.09301 21.8104 4.09301H8.24298C7.93579 4.09301 7.73099 3.88834 7.62859 3.63253C7.5774 3.58137 7.57739 3.47905 7.57739 3.42789V0.665114C7.57739 0.306977 7.88459 0 8.24298 0H21.8104C21.9128 0 21.964 3.12195e-06 22.0152 0.0511656C22.0664 0.0511656 22.0664 0.0511609 22.1176 0.102323C22.2712 0.204648 22.4248 0.306975 22.4248 0.511625C22.4248 0.562787 22.4248 0.562786 22.4248 0.613948C22.476 0.613948 22.476 0.665114 22.476 0.665114Z" fill="#F5DD64"/>
<path d="M21.6568 4.09316H8.90853C8.44774 4.09316 8.08936 3.73502 8.08936 3.27456V1.22806C8.08936 0.767595 8.44774 0.409454 8.90853 0.409454H21.708C22.1688 0.409454 22.5272 0.767595 22.5272 1.22806V3.22339C22.476 3.73502 22.1176 4.09316 21.6568 4.09316Z" fill="#F0D03C"/>
<path d="M9.98361 3.37694H9.67641C9.52281 3.37694 9.42041 3.27462 9.42041 3.12113V0.563003C9.42041 0.409515 9.52281 0.30719 9.67641 0.30719H9.98361C10.1372 0.30719 10.2396 0.409515 10.2396 0.563003V3.12113C10.2396 3.27462 10.1372 3.37694 9.98361 3.37694Z" fill="#FAF1BB"/>
<path d="M8.3454 3.37694H8.03822C7.88462 3.37694 7.78223 3.27462 7.78223 3.12113V0.563003C7.78223 0.409515 7.88462 0.30719 8.03822 0.30719H8.3454C8.499 0.30719 8.6014 0.409515 8.6014 0.563003V3.12113C8.6014 3.27462 8.499 3.37694 8.3454 3.37694Z" fill="#F5E697"/>
<path d="M11.7243 3.37694H11.4171C11.2635 3.37694 11.1611 3.27462 11.1611 3.12113V0.563003C11.1611 0.409515 11.2635 0.30719 11.4171 0.30719H11.7243C11.8779 0.30719 11.9803 0.409515 11.9803 0.563003V3.12113C11.9803 3.27462 11.8779 3.37694 11.7243 3.37694Z" fill="#FAF1BB"/>
<path d="M13.414 3.37694H13.1068C12.9532 3.37694 12.8508 3.27462 12.8508 3.12113V0.563003C12.8508 0.409515 12.9532 0.30719 13.1068 0.30719H13.414C13.5676 0.30719 13.67 0.409515 13.67 0.563003V3.12113C13.7212 3.27462 13.5676 3.37694 13.414 3.37694Z" fill="#F7E37C"/>
<path d="M9.01088 3.93957H8.95967C8.85728 3.93957 8.75488 3.83725 8.75488 3.73492V0.409359C8.75488 0.307034 8.85728 0.204712 8.95967 0.204712H9.06208C9.16448 0.204712 9.26687 0.307034 9.26687 0.409359V3.73492C9.26687 3.83725 9.16447 3.93957 9.01088 3.93957Z" fill="#D9802B"/>
<path d="M9.06198 3.93957C8.95959 3.93957 8.85718 3.83725 8.85718 3.73492V0.409359C8.85718 0.307034 8.95959 0.204712 9.06198 0.204712C9.16438 0.204712 9.26678 0.307034 9.26678 0.409359V3.73492C9.26678 3.88841 9.16438 3.93957 9.06198 3.93957Z" fill="#E59333"/>
<path d="M10.7515 3.93926H10.6491C10.5467 3.93926 10.4443 3.83694 10.4443 3.73462V0.409054C10.4443 0.306729 10.5467 0.204407 10.6491 0.204407H10.7515C10.8539 0.204407 10.9563 0.306729 10.9563 0.409054V3.73462C10.9563 3.83694 10.8539 3.93926 10.7515 3.93926Z" fill="#D9802B"/>
<path d="M10.8027 3.93926C10.7003 3.93926 10.5979 3.83694 10.5979 3.73462V0.409054C10.5979 0.306729 10.7003 0.204407 10.8027 0.204407C10.9051 0.204407 11.0075 0.306729 11.0075 0.409054V3.73462C10.9563 3.8881 10.9051 3.93926 10.8027 3.93926Z" fill="#E59333"/>
<path d="M12.4923 3.93926H12.3899C12.2875 3.93926 12.1851 3.83694 12.1851 3.73462V0.409054C12.1851 0.306729 12.2875 0.204407 12.3899 0.204407H12.4923C12.5947 0.204407 12.697 0.306729 12.697 0.409054V3.73462C12.697 3.83694 12.5947 3.93926 12.4923 3.93926Z" fill="#D9802B"/>
<path d="M12.4924 3.93926C12.39 3.93926 12.2876 3.83694 12.2876 3.73462V0.409054C12.2876 0.306729 12.39 0.204407 12.4924 0.204407C12.5948 0.204407 12.6972 0.306729 12.6972 0.409054V3.73462C12.6972 3.8881 12.5948 3.93926 12.4924 3.93926Z" fill="#E59333"/>
<path d="M14.233 3.93926H14.1306C14.0282 3.93926 13.9258 3.83694 13.9258 3.73462V0.409054C13.9258 0.306729 14.0282 0.204407 14.1306 0.204407H14.233C14.3354 0.204407 14.4378 0.306729 14.4378 0.409054V3.73462C14.4378 3.83694 14.3354 3.93926 14.233 3.93926Z" fill="#D9802B"/>
<path d="M14.2329 3.93926C14.1305 3.93926 14.0281 3.83694 14.0281 3.73462V0.409054C14.0281 0.306729 14.1305 0.204407 14.2329 0.204407C14.3353 0.204407 14.4377 0.306729 14.4377 0.409054V3.73462C14.4377 3.8881 14.3353 3.93926 14.2329 3.93926Z" fill="#E59333"/>
<path d="M15.9224 3.93926H15.82C15.7176 3.93926 15.6152 3.83694 15.6152 3.73462V0.409054C15.6152 0.306729 15.7176 0.204407 15.82 0.204407H15.9224C16.0248 0.204407 16.1272 0.306729 16.1272 0.409054V3.73462C16.1784 3.83694 16.076 3.93926 15.9224 3.93926Z" fill="#D9802B"/>
<path d="M15.9736 3.93926C15.8712 3.93926 15.7688 3.83694 15.7688 3.73462V0.409054C15.7688 0.306729 15.8712 0.204407 15.9736 0.204407C16.076 0.204407 16.1784 0.306729 16.1784 0.409054V3.73462C16.1784 3.8881 16.076 3.93926 15.9736 3.93926Z" fill="#E59333"/>
<path d="M17.6632 3.93926H17.5607C17.4584 3.93926 17.356 3.83694 17.356 3.73462V0.409054C17.356 0.306729 17.4584 0.204407 17.5607 0.204407H17.6632C17.7656 0.204407 17.8679 0.306729 17.8679 0.409054V3.73462C17.9191 3.83694 17.8167 3.93926 17.6632 3.93926Z" fill="#D9802B"/>
<path d="M17.7146 3.93926C17.6122 3.93926 17.5098 3.83694 17.5098 3.73462V0.409054C17.5098 0.306729 17.6122 0.204407 17.7146 0.204407C17.8169 0.204407 17.9193 0.306729 17.9193 0.409054V3.73462C17.9193 3.8881 17.8169 3.93926 17.7146 3.93926Z" fill="#E59333"/>
<path d="M19.4039 3.93926H19.3015C19.1991 3.93926 19.0967 3.83694 19.0967 3.73462V0.409054C19.0967 0.306729 19.1991 0.204407 19.3015 0.204407H19.4039C19.5063 0.204407 19.6086 0.306729 19.6086 0.409054V3.73462C19.6086 3.83694 19.5574 3.93926 19.4039 3.93926Z" fill="#D9802B"/>
<path d="M19.4553 3.93926C19.3529 3.93926 19.2505 3.83694 19.2505 3.73462V0.409054C19.2505 0.306729 19.3529 0.204407 19.4553 0.204407C19.5577 0.204407 19.6601 0.306729 19.6601 0.409054V3.73462C19.6089 3.8881 19.5577 3.93926 19.4553 3.93926Z" fill="#E59333"/>
<path d="M21.1448 3.93926H21.0424C20.94 3.93926 20.8376 3.83694 20.8376 3.73462V0.409054C20.8376 0.306729 20.94 0.204407 21.0424 0.204407H21.1448C21.2472 0.204407 21.3496 0.306729 21.3496 0.409054V3.73462C21.3496 3.83694 21.2472 3.93926 21.1448 3.93926Z" fill="#D9802B"/>
<path d="M21.1958 3.93926C21.0934 3.93926 20.991 3.83694 20.991 3.73462V0.409054C20.991 0.306729 21.0934 0.204407 21.1958 0.204407C21.2981 0.204407 21.4005 0.306729 21.4005 0.409054V3.73462C21.3493 3.8881 21.2981 3.93926 21.1958 3.93926Z" fill="#E59333"/>
<path opacity="0.5" d="M22.4762 0.614102C22.4762 0.562939 22.4762 0.562941 22.4762 0.511778C22.425 0.358291 22.3226 0.204801 22.169 0.102476C22.1178 0.102476 22.1178 0.0513183 22.0666 0.0513183C22.0154 0.00015571 21.9131 0.000152588 21.8619 0.000152588H18.3292L18.4828 0.0513183C18.7388 0.204806 18.9436 0.46062 18.9436 0.716433V2.86525C18.9436 3.27455 18.6364 3.58154 18.2268 3.58154H7.7312C7.8336 3.83735 8.08958 4.042 8.34557 4.042H21.913C22.2714 4.042 22.5786 3.73502 22.5786 3.37688V0.665267C22.4762 0.665267 22.4762 0.614102 22.4762 0.614102Z" fill="#D9802B"/>
<path d="M16.025 16.9863V19.749C16.025 20.1072 15.7179 20.4142 15.3595 20.4142H1.79203C1.48484 20.4142 1.28005 20.2095 1.17765 19.9537C1.12645 19.9025 1.12646 19.8002 1.12646 19.749V16.9863C1.12646 16.6281 1.43365 16.3212 1.79203 16.3212H15.3595C15.4619 16.3212 15.5131 16.3212 15.5643 16.3723C15.6155 16.3723 15.6155 16.3723 15.6667 16.4235C15.8203 16.5258 15.9738 16.6281 15.9738 16.8328C15.9738 16.884 15.9738 16.8839 15.9738 16.9351C16.025 16.9351 16.025 16.9351 16.025 16.9863Z" fill="#F5DD64"/>
<path d="M15.2571 20.3629H2.45758C1.9968 20.3629 1.63843 20.0048 1.63843 19.5443V17.4978C1.63843 17.0373 1.9968 16.6792 2.45758 16.6792H15.2571C15.7178 16.6792 16.0762 17.0373 16.0762 17.4978V19.5443C16.025 20.0048 15.6666 20.3629 15.2571 20.3629Z" fill="#F0D03C"/>
<path d="M3.53267 19.698H3.22547C3.07188 19.698 2.96948 19.5957 2.96948 19.4422V16.884C2.96948 16.7306 3.07188 16.6282 3.22547 16.6282H3.53267C3.68626 16.6282 3.78866 16.7306 3.78866 16.884V19.4422C3.78866 19.5445 3.68626 19.698 3.53267 19.698Z" fill="#FAF1BB"/>
<path d="M1.89448 19.698H1.58729C1.4337 19.698 1.3313 19.5957 1.3313 19.4422V16.884C1.3313 16.7306 1.4337 16.6282 1.58729 16.6282H1.89448C2.04808 16.6282 2.15047 16.7306 2.15047 16.884V19.4422C2.15047 19.5445 2.04808 19.698 1.89448 19.698Z" fill="#F5E697"/>
<path d="M5.27337 19.698H4.96619C4.8126 19.698 4.71021 19.5957 4.71021 19.4422V16.884C4.71021 16.7306 4.8126 16.6282 4.96619 16.6282H5.27337C5.42696 16.6282 5.52936 16.7306 5.52936 16.884V19.4422C5.52936 19.5445 5.42696 19.698 5.27337 19.698Z" fill="#FAF1BB"/>
<path d="M7.01413 19.698H6.70693C6.55333 19.698 6.45093 19.5957 6.45093 19.4422V16.884C6.45093 16.7306 6.55333 16.6282 6.70693 16.6282H7.01413C7.16773 16.6282 7.27012 16.7306 7.27012 16.884V19.4422C7.27012 19.5445 7.11653 19.698 7.01413 19.698Z" fill="#F7E37C"/>
<path d="M2.55987 20.209H2.45747C2.35508 20.209 2.25269 20.1067 2.25269 20.0043V16.6788C2.25269 16.5764 2.35508 16.4741 2.45747 16.4741H2.55987C2.66227 16.4741 2.76466 16.5764 2.76466 16.6788V20.0043C2.81586 20.1578 2.71347 20.209 2.55987 20.209Z" fill="#D9802B"/>
<path d="M2.61128 20.2092C2.50889 20.2092 2.40649 20.1069 2.40649 20.0046V16.679C2.40649 16.5767 2.50889 16.4744 2.61128 16.4744C2.71368 16.4744 2.81607 16.5767 2.81607 16.679V20.0046C2.81607 20.1581 2.71368 20.2092 2.61128 20.2092Z" fill="#E59333"/>
<path d="M4.3006 20.2091H4.19822C4.09582 20.2091 3.99341 20.1067 3.99341 20.0044V16.6788C3.99341 16.5765 4.09582 16.4742 4.19822 16.4742H4.3006C4.403 16.4742 4.50539 16.5765 4.50539 16.6788V20.0044C4.50539 20.1579 4.403 20.2091 4.3006 20.2091Z" fill="#D9802B"/>
<path d="M4.35175 20.2091C4.24936 20.2091 4.14697 20.1067 4.14697 20.0044V16.6788C4.14697 16.5765 4.24936 16.4742 4.35175 16.4742C4.45414 16.4742 4.55652 16.5765 4.55652 16.6788V20.0044C4.50533 20.1579 4.45414 20.2091 4.35175 20.2091Z" fill="#E59333"/>
<path d="M6.04131 20.2091H5.93892C5.83653 20.2091 5.73413 20.1067 5.73413 20.0044V16.6788C5.73413 16.5765 5.83653 16.4742 5.93892 16.4742H6.04131C6.14371 16.4742 6.24612 16.5765 6.24612 16.6788V20.0044C6.24612 20.1579 6.14371 20.2091 6.04131 20.2091Z" fill="#D9802B"/>
<path d="M6.04119 20.2091C5.93881 20.2091 5.83643 20.1067 5.83643 20.0044V16.6788C5.83643 16.5765 5.93881 16.4742 6.04119 16.4742C6.14358 16.4742 6.24598 16.5765 6.24598 16.6788V20.0044C6.24598 20.1579 6.19477 20.2091 6.04119 20.2091Z" fill="#E59333"/>
<path d="M7.78205 20.2091H7.67964C7.57725 20.2091 7.47485 20.1067 7.47485 20.0044V16.6788C7.47485 16.5765 7.57725 16.4742 7.67964 16.4742H7.78205C7.88445 16.4742 7.98684 16.5765 7.98684 16.6788V20.0044C7.98684 20.1579 7.88445 20.2091 7.78205 20.2091Z" fill="#D9802B"/>
<path d="M7.78196 20.2091C7.67956 20.2091 7.57715 20.1067 7.57715 20.0044V16.6788C7.57715 16.5765 7.67956 16.4742 7.78196 16.4742C7.88435 16.4742 7.98675 16.5765 7.98675 16.6788V20.0044C7.98675 20.1579 7.88435 20.2091 7.78196 20.2091Z" fill="#E59333"/>
<path d="M9.52276 20.2091H9.42036C9.31797 20.2091 9.21558 20.1067 9.21558 20.0044V16.6788C9.21558 16.5765 9.31797 16.4742 9.42036 16.4742H9.52276C9.62515 16.4742 9.72754 16.5765 9.72754 16.6788V20.0044C9.72754 20.1579 9.62515 20.2091 9.52276 20.2091Z" fill="#D9802B"/>
<path d="M9.5229 20.2091C9.42051 20.2091 9.31812 20.1067 9.31812 20.0044V16.6788C9.31812 16.5765 9.42051 16.4742 9.5229 16.4742C9.6253 16.4742 9.72769 16.5765 9.72769 16.6788V20.0044C9.72769 20.1579 9.6253 20.2091 9.5229 20.2091Z" fill="#E59333"/>
<path d="M11.2122 20.2091H11.1098C11.0074 20.2091 10.905 20.1067 10.905 20.0044V16.6788C10.905 16.5765 11.0074 16.4742 11.1098 16.4742H11.2122C11.3146 16.4742 11.417 16.5765 11.417 16.6788V20.0044C11.4682 20.1579 11.3658 20.2091 11.2122 20.2091Z" fill="#D9802B"/>
<path d="M11.2634 20.2091C11.161 20.2091 11.0586 20.1067 11.0586 20.0044V16.6788C11.0586 16.5765 11.161 16.4742 11.2634 16.4742C11.3658 16.4742 11.4682 16.5765 11.4682 16.6788V20.0044C11.4682 20.1579 11.3658 20.2091 11.2634 20.2091Z" fill="#E59333"/>
<path d="M12.9529 20.2091H12.8505C12.7481 20.2091 12.6458 20.1067 12.6458 20.0044V16.6788C12.6458 16.5765 12.7481 16.4742 12.8505 16.4742H12.9529C13.0553 16.4742 13.1577 16.5765 13.1577 16.6788V20.0044C13.1577 20.1579 13.1065 20.2091 12.9529 20.2091Z" fill="#D9802B"/>
<path d="M13.0043 20.2091C12.902 20.2091 12.7996 20.1067 12.7996 20.0044V16.6788C12.7996 16.5765 12.902 16.4742 13.0043 16.4742C13.1067 16.4742 13.2091 16.5765 13.2091 16.6788V20.0044C13.1579 20.1579 13.1067 20.2091 13.0043 20.2091Z" fill="#E59333"/>
<path d="M14.6937 20.2091H14.5913C14.4889 20.2091 14.3865 20.1067 14.3865 20.0044V16.6788C14.3865 16.5765 14.4889 16.4742 14.5913 16.4742H14.6937C14.7961 16.4742 14.8985 16.5765 14.8985 16.6788V20.0044C14.8985 20.1579 14.7961 20.2091 14.6937 20.2091Z" fill="#D9802B"/>
<path d="M14.7448 20.2091C14.6424 20.2091 14.54 20.1067 14.54 20.0044V16.6788C14.54 16.5765 14.6424 16.4742 14.7448 16.4742C14.8472 16.4742 14.9496 16.5765 14.9496 16.6788V20.0044C14.8984 20.1579 14.8472 20.2091 14.7448 20.2091Z" fill="#E59333"/>
<path opacity="0.5" d="M16.0253 16.8839C16.0253 16.8327 16.0253 16.8327 16.0253 16.7815C15.9741 16.628 15.8717 16.4746 15.7181 16.3722C15.6669 16.3722 15.6669 16.3211 15.6157 16.3211C15.5645 16.2699 15.4621 16.2699 15.4109 16.2699H11.8782L12.0318 16.3211C12.2878 16.4746 12.4926 16.7304 12.4926 16.9862V19.135C12.4926 19.5443 12.1854 19.8513 11.7758 19.8513H1.28027C1.38267 20.1071 1.63866 20.3117 1.89465 20.3117H15.4621C15.8205 20.3117 16.1277 20.0048 16.1277 19.6466V16.8839C16.0253 16.935 16.0253 16.935 16.0253 16.8839Z" fill="#D9802B"/>
<path d="M14.8986 12.8928V15.6556C14.8986 16.0137 14.5914 16.3207 14.233 16.3207H0.665566C0.358379 16.3207 0.153597 16.1161 0.051201 15.8603C3.12411e-06 15.8091 0 15.7068 0 15.6556V12.8928C0 12.5347 0.307181 12.2277 0.665566 12.2277H14.233C14.3354 12.2277 14.3866 12.2277 14.4378 12.2789C14.489 12.2789 14.489 12.2789 14.5402 12.33C14.6938 12.4324 14.8474 12.5347 14.8474 12.7393C14.8474 12.7905 14.8474 12.7905 14.8474 12.8417C14.8986 12.8417 14.8986 12.8928 14.8986 12.8928Z" fill="#F5DD64"/>
<path d="M14.1306 16.3207H1.33113C0.870351 16.3207 0.511963 15.9625 0.511963 15.5021V13.4556C0.511963 12.9951 0.870351 12.637 1.33113 12.637H14.1306C14.5914 12.637 14.9498 12.9951 14.9498 13.4556V15.5021C14.8986 15.9625 14.5402 16.3207 14.1306 16.3207Z" fill="#F0D03C"/>
<path d="M2.40644 15.6048H2.09925C1.94566 15.6048 1.84326 15.5025 1.84326 15.349V12.7908C1.84326 12.6374 1.94566 12.535 2.09925 12.535H2.40644C2.56003 12.535 2.66242 12.6374 2.66242 12.7908V15.349C2.66242 15.5025 2.56003 15.6048 2.40644 15.6048Z" fill="#FAF1BB"/>
<path d="M0.768017 15.6048H0.460825C0.30723 15.6048 0.204834 15.5025 0.204834 15.349V12.7908C0.204834 12.6374 0.30723 12.535 0.460825 12.535H0.768017C0.921611 12.535 1.02401 12.6374 1.02401 12.7908V15.349C1.02401 15.5025 0.921611 15.6048 0.768017 15.6048Z" fill="#F5E697"/>
<path d="M4.14692 15.6048H3.83973C3.68614 15.6048 3.58374 15.5025 3.58374 15.349V12.7908C3.58374 12.6374 3.68614 12.535 3.83973 12.535H4.14692C4.30051 12.535 4.4029 12.6374 4.4029 12.7908V15.349C4.4029 15.5025 4.30051 15.6048 4.14692 15.6048Z" fill="#FAF1BB"/>
<path d="M5.83661 15.6048H5.52942C5.37583 15.6048 5.27344 15.5025 5.27344 15.349V12.7908C5.27344 12.6374 5.37583 12.535 5.52942 12.535H5.83661C5.9902 12.535 6.0926 12.6374 6.0926 12.7908V15.349C6.1438 15.5025 5.9902 15.6048 5.83661 15.6048Z" fill="#F7E37C"/>
<path d="M1.43339 16.1671H1.33101C1.22861 16.1671 1.12622 16.0648 1.12622 15.9625V12.6369C1.12622 12.5346 1.22861 12.4323 1.33101 12.4323H1.43339C1.53579 12.4323 1.6382 12.5346 1.6382 12.6369V15.9625C1.6894 16.0648 1.58699 16.1671 1.43339 16.1671Z" fill="#D9802B"/>
<path d="M1.48482 16.1668C1.38242 16.1668 1.28003 16.0645 1.28003 15.9622V12.6366C1.28003 12.5343 1.38242 12.4319 1.48482 12.4319C1.58721 12.4319 1.6896 12.5343 1.6896 12.6366V15.9622C1.6896 16.0645 1.58721 16.1668 1.48482 16.1668Z" fill="#E59333"/>
<path d="M3.17413 16.1668H3.07173C2.96934 16.1668 2.86694 16.0645 2.86694 15.9622V12.6366C2.86694 12.5343 2.96934 12.4319 3.07173 12.4319H3.17413C3.27653 12.4319 3.37892 12.5343 3.37892 12.6366V15.9622C3.37892 16.0645 3.27653 16.1668 3.17413 16.1668Z" fill="#D9802B"/>
<path d="M3.2253 16.1668C3.1229 16.1668 3.02051 16.0645 3.02051 15.9622V12.6366C3.02051 12.5343 3.1229 12.4319 3.2253 12.4319C3.3277 12.4319 3.43011 12.5343 3.43011 12.6366V15.9622C3.37891 16.0645 3.3277 16.1668 3.2253 16.1668Z" fill="#E59333"/>
<path d="M4.91485 16.1668H4.81245C4.71006 16.1668 4.60767 16.0645 4.60767 15.9622V12.6366C4.60767 12.5343 4.71006 12.4319 4.81245 12.4319H4.91485C5.01724 12.4319 5.11963 12.5343 5.11963 12.6366V15.9622C5.11963 16.0645 5.01724 16.1668 4.91485 16.1668Z" fill="#D9802B"/>
<path d="M4.91499 16.1668C4.8126 16.1668 4.71021 16.0645 4.71021 15.9622V12.6366C4.71021 12.5343 4.8126 12.4319 4.91499 12.4319C5.01739 12.4319 5.11978 12.5343 5.11978 12.6366V15.9622C5.11978 16.0645 5.01739 16.1668 4.91499 16.1668Z" fill="#E59333"/>
<path d="M6.65558 16.1668H6.55318C6.45078 16.1668 6.34839 16.0645 6.34839 15.9622V12.6366C6.34839 12.5343 6.45078 12.4319 6.55318 12.4319H6.65558C6.75798 12.4319 6.86038 12.5343 6.86038 12.6366V15.9622C6.86038 16.0645 6.75798 16.1668 6.65558 16.1668Z" fill="#D9802B"/>
<path d="M6.65548 16.1668C6.55308 16.1668 6.45068 16.0645 6.45068 15.9622V12.6366C6.45068 12.5343 6.55308 12.4319 6.65548 12.4319C6.75788 12.4319 6.86028 12.5343 6.86028 12.6366V15.9622C6.86028 16.0645 6.75788 16.1668 6.65548 16.1668Z" fill="#E59333"/>
<path d="M8.34501 16.1668H8.24263C8.14023 16.1668 8.03784 16.0645 8.03784 15.9622V12.6366C8.03784 12.5343 8.14023 12.4319 8.24263 12.4319H8.34501C8.4474 12.4319 8.54981 12.5343 8.54981 12.6366V15.9622C8.601 16.0645 8.4986 16.1668 8.34501 16.1668Z" fill="#D9802B"/>
<path d="M8.39643 16.1668C8.29404 16.1668 8.19165 16.0645 8.19165 15.9622V12.6366C8.19165 12.5343 8.29404 12.4319 8.39643 12.4319C8.49882 12.4319 8.6012 12.5343 8.6012 12.6366V15.9622C8.6012 16.0645 8.49882 16.1668 8.39643 16.1668Z" fill="#E59333"/>
<path d="M10.0858 16.1668H9.98336C9.88096 16.1668 9.77856 16.0645 9.77856 15.9622V12.6366C9.77856 12.5343 9.88096 12.4319 9.98336 12.4319H10.0858C10.1882 12.4319 10.2906 12.5343 10.2906 12.6366V15.9622C10.3418 16.0645 10.2394 16.1668 10.0858 16.1668Z" fill="#D9802B"/>
<path d="M10.1369 16.1668C10.0345 16.1668 9.93213 16.0645 9.93213 15.9622V12.6366C9.93213 12.5343 10.0345 12.4319 10.1369 12.4319C10.2393 12.4319 10.3417 12.5343 10.3417 12.6366V15.9622C10.3417 16.0645 10.2393 16.1668 10.1369 16.1668Z" fill="#E59333"/>
<path d="M11.8265 16.1668H11.7241C11.6217 16.1668 11.5193 16.0645 11.5193 15.9622V12.6366C11.5193 12.5343 11.6217 12.4319 11.7241 12.4319H11.8265C11.9289 12.4319 12.0313 12.5343 12.0313 12.6366V15.9622C12.0313 16.0645 11.9801 16.1668 11.8265 16.1668Z" fill="#D9802B"/>
<path d="M11.8779 16.1668C11.7755 16.1668 11.6731 16.0645 11.6731 15.9622V12.6366C11.6731 12.5343 11.7755 12.4319 11.8779 12.4319C11.9803 12.4319 12.0827 12.5343 12.0827 12.6366V15.9622C12.0315 16.0645 11.9803 16.1668 11.8779 16.1668Z" fill="#E59333"/>
<path d="M13.5674 16.1668H13.465C13.3626 16.1668 13.2603 16.0645 13.2603 15.9622V12.6366C13.2603 12.5343 13.3626 12.4319 13.465 12.4319H13.5674C13.6698 12.4319 13.7722 12.5343 13.7722 12.6366V15.9622C13.7722 16.0645 13.6698 16.1668 13.5674 16.1668Z" fill="#D9802B"/>
<path d="M13.6184 16.1668C13.516 16.1668 13.4136 16.0645 13.4136 15.9622V12.6366C13.4136 12.5343 13.516 12.4319 13.6184 12.4319C13.7208 12.4319 13.8232 12.5343 13.8232 12.6366V15.9622C13.772 16.0645 13.7208 16.1668 13.6184 16.1668Z" fill="#E59333"/>
<path opacity="0.5" d="M14.8988 12.8422C14.8988 12.791 14.8988 12.7911 14.8988 12.7399C14.8476 12.5864 14.7452 12.4329 14.5916 12.3306C14.5404 12.3306 14.5404 12.2794 14.4892 12.2794C14.438 12.2283 14.3356 12.2283 14.2844 12.2283H10.7518L10.9054 12.2794C11.1614 12.4329 11.3662 12.6887 11.3662 12.9445V15.0934C11.3662 15.5027 11.059 15.8096 10.6494 15.8096H0.153809C0.256204 16.0654 0.5122 16.2701 0.768189 16.2701H14.3356C14.694 16.2701 15.0012 15.9631 15.0012 15.605V12.8422C14.8988 12.8934 14.8988 12.8422 14.8988 12.8422Z" fill="#D9802B"/>
<path d="M16.3832 8.8509V11.6137C16.3832 11.9718 16.076 12.2788 15.7177 12.2788H2.1502C1.84301 12.2788 1.63822 12.0741 1.53582 11.8695C1.48462 11.8183 1.48462 11.716 1.48462 11.6648V8.8509C1.48462 8.49276 1.79182 8.18579 2.1502 8.18579H15.7177C15.8201 8.18579 15.8712 8.18578 15.9224 8.23694C15.9736 8.23694 15.9736 8.23694 16.0248 8.28811C16.1784 8.39043 16.332 8.49277 16.332 8.69742C16.332 8.74858 16.332 8.74857 16.332 8.79973C16.3832 8.79973 16.3832 8.8509 16.3832 8.8509Z" fill="#F5DD64"/>
<path d="M15.5128 12.2791H2.76448C2.3037 12.2791 1.94531 11.921 1.94531 11.4605V9.414C1.94531 8.95354 2.3037 8.5954 2.76448 8.5954H15.564C16.0247 8.5954 16.3831 8.95354 16.3831 9.414V11.4093C16.3831 11.8698 15.9735 12.2791 15.5128 12.2791Z" fill="#F0D03C"/>
<path d="M3.83956 11.5629H3.53236C3.37876 11.5629 3.27637 11.4605 3.27637 11.307V8.74892C3.27637 8.59543 3.37876 8.4931 3.53236 8.4931H3.83956C3.99315 8.4931 4.09555 8.59543 4.09555 8.74892V11.307C4.09555 11.4605 3.99315 11.5629 3.83956 11.5629Z" fill="#FAF1BB"/>
<path d="M2.20135 11.5629H1.89417C1.74058 11.5629 1.63818 11.4605 1.63818 11.307V8.74892C1.63818 8.59543 1.74058 8.4931 1.89417 8.4931H2.20135C2.35494 8.4931 2.45733 8.59543 2.45733 8.74892V11.307C2.45733 11.4605 2.35494 11.5629 2.20135 11.5629Z" fill="#F5E697"/>
<path d="M5.63156 11.5629H5.32436C5.17076 11.5629 5.06836 11.4605 5.06836 11.307V8.74892C5.06836 8.59543 5.17076 8.4931 5.32436 8.4931H5.63156C5.78516 8.4931 5.88756 8.59543 5.88756 8.74892V11.307C5.88756 11.4605 5.73396 11.5629 5.63156 11.5629Z" fill="#FAF1BB"/>
<path d="M7.32123 11.5629H7.01405C6.86045 11.5629 6.75806 11.4605 6.75806 11.307V8.74892C6.75806 8.59543 6.86045 8.4931 7.01405 8.4931H7.32123C7.47483 8.4931 7.57723 8.59543 7.57723 8.74892V11.307C7.57723 11.4605 7.47483 11.5629 7.32123 11.5629Z" fill="#F7E37C"/>
<path d="M2.91803 12.1251H2.81563C2.71323 12.1251 2.61084 12.0228 2.61084 11.9205V8.59491C2.61084 8.49258 2.71323 8.39026 2.81563 8.39026H2.91803C3.02042 8.39026 3.12281 8.49258 3.12281 8.59491V11.9205C3.12281 12.0228 3.02042 12.1251 2.91803 12.1251Z" fill="#D9802B"/>
<path d="M2.91842 12.1256C2.81603 12.1256 2.71362 12.0233 2.71362 11.921V8.59539C2.71362 8.49307 2.81603 8.39075 2.91842 8.39075C3.02082 8.39075 3.12321 8.49307 3.12321 8.59539V11.921C3.12321 12.0233 3.02082 12.1256 2.91842 12.1256Z" fill="#E59333"/>
<path d="M4.60749 12.1254H4.50508C4.40269 12.1254 4.30029 12.0231 4.30029 11.9208V8.59521C4.30029 8.49289 4.40269 8.39056 4.50508 8.39056H4.60749C4.70989 8.39056 4.81228 8.49289 4.81228 8.59521V11.9208C4.86348 12.0231 4.76108 12.1254 4.60749 12.1254Z" fill="#D9802B"/>
<path d="M4.65889 12.1254C4.55649 12.1254 4.4541 12.0231 4.4541 11.9208V8.59521C4.4541 8.49289 4.55649 8.39056 4.65889 8.39056C4.76128 8.39056 4.86368 8.49289 4.86368 8.59521V11.9208C4.86368 12.0231 4.76128 12.1254 4.65889 12.1254Z" fill="#E59333"/>
<path d="M6.34846 12.1254H6.24607C6.14367 12.1254 6.04126 12.0231 6.04126 11.9208V8.59521C6.04126 8.49289 6.14367 8.39056 6.24607 8.39056H6.34846C6.45085 8.39056 6.55325 8.49289 6.55325 8.59521V11.9208C6.60445 12.0231 6.50205 12.1254 6.34846 12.1254Z" fill="#D9802B"/>
<path d="M6.39962 12.1254C6.29722 12.1254 6.19482 12.0231 6.19482 11.9208V8.59521C6.19482 8.49289 6.29722 8.39056 6.39962 8.39056C6.50202 8.39056 6.60442 8.49289 6.60442 8.59521V11.9208C6.60442 12.0231 6.50202 12.1254 6.39962 12.1254Z" fill="#E59333"/>
<path d="M8.08916 12.1254H7.98677C7.88438 12.1254 7.78198 12.0231 7.78198 11.9208V8.59521C7.78198 8.49289 7.88438 8.39056 7.98677 8.39056H8.08916C8.19156 8.39056 8.29397 8.49289 8.29397 8.59521V11.9208C8.29397 12.0231 8.19156 12.1254 8.08916 12.1254Z" fill="#D9802B"/>
<path d="M8.14033 12.1254C8.03794 12.1254 7.93555 12.0231 7.93555 11.9208V8.59521C7.93555 8.49289 8.03794 8.39056 8.14033 8.39056C8.24273 8.39056 8.34512 8.49289 8.34512 8.59521V11.9208C8.29392 12.0231 8.24273 12.1254 8.14033 12.1254Z" fill="#E59333"/>
<path d="M9.8299 12.1254H9.7275C9.6251 12.1254 9.52271 12.0231 9.52271 11.9208V8.59521C9.52271 8.49289 9.6251 8.39056 9.7275 8.39056H9.8299C9.9323 8.39056 10.0347 8.49289 10.0347 8.59521V11.9208C10.0347 12.0231 9.9323 12.1254 9.8299 12.1254Z" fill="#D9802B"/>
<path d="M9.82981 12.1254C9.72741 12.1254 9.625 12.0231 9.625 11.9208V8.59521C9.625 8.49289 9.72741 8.39056 9.82981 8.39056C9.9322 8.39056 10.0346 8.49289 10.0346 8.59521V11.9208C10.0346 12.0231 9.9834 12.1254 9.82981 12.1254Z" fill="#E59333"/>
<path d="M11.5706 12.1254H11.4682C11.3658 12.1254 11.2634 12.0231 11.2634 11.9208V8.59521C11.2634 8.49289 11.3658 8.39056 11.4682 8.39056H11.5706C11.673 8.39056 11.7754 8.49289 11.7754 8.59521V11.9208C11.7754 12.0231 11.673 12.1254 11.5706 12.1254Z" fill="#D9802B"/>
<path d="M11.5705 12.1254C11.4681 12.1254 11.3657 12.0231 11.3657 11.9208V8.59521C11.3657 8.49289 11.4681 8.39056 11.5705 8.39056C11.6729 8.39056 11.7753 8.49289 11.7753 8.59521V11.9208C11.7753 12.0231 11.6729 12.1254 11.5705 12.1254Z" fill="#E59333"/>
<path d="M13.3113 12.1254H13.2089C13.1065 12.1254 13.0042 12.0231 13.0042 11.9208V8.59521C13.0042 8.49289 13.1065 8.39056 13.2089 8.39056H13.3113C13.4137 8.39056 13.5161 8.49289 13.5161 8.59521V11.9208C13.5161 12.0231 13.4137 12.1254 13.3113 12.1254Z" fill="#D9802B"/>
<path d="M13.3112 12.1254C13.2088 12.1254 13.1064 12.0231 13.1064 11.9208V8.59521C13.1064 8.49289 13.2088 8.39056 13.3112 8.39056C13.4136 8.39056 13.516 8.49289 13.516 8.59521V11.9208C13.516 12.0231 13.4136 12.1254 13.3112 12.1254Z" fill="#E59333"/>
<path d="M15.0008 12.1254H14.8984C14.796 12.1254 14.6936 12.0231 14.6936 11.9208V8.59521C14.6936 8.49289 14.796 8.39056 14.8984 8.39056H15.0008C15.1032 8.39056 15.2056 8.49289 15.2056 8.59521V11.9208C15.2568 12.0231 15.1544 12.1254 15.0008 12.1254Z" fill="#D9802B"/>
<path d="M15.052 12.1254C14.9496 12.1254 14.8472 12.0231 14.8472 11.9208V8.59521C14.8472 8.49289 14.9496 8.39056 15.052 8.39056C15.1544 8.39056 15.2567 8.49289 15.2567 8.59521V11.9208C15.2567 12.0231 15.1544 12.1254 15.052 12.1254Z" fill="#E59333"/>
<path opacity="0.5" d="M16.3322 8.74871C16.3322 8.69754 16.3322 8.69755 16.3322 8.64639C16.281 8.4929 16.1786 8.33941 16.025 8.23708C15.9738 8.23708 15.9738 8.18593 15.9226 8.18593C15.8714 8.13477 15.769 8.13477 15.7178 8.13477H12.1851L12.3387 8.18593C12.5947 8.33942 12.7995 8.59522 12.7995 8.85104V10.9999C12.7995 11.4092 12.4923 11.7161 12.0827 11.7161H1.58716C1.68955 11.972 1.94553 12.1254 2.20152 12.1254H15.769C16.1274 12.1254 16.4346 11.8185 16.4346 11.4603V8.85104C16.3834 8.85104 16.3834 8.79987 16.3322 8.74871Z" fill="#D9802B"/>
<path d="M15.7177 4.80959V7.57237C15.7177 7.93051 15.4105 8.23748 15.0521 8.23748H1.48466C1.17747 8.23748 0.972689 8.03283 0.870293 7.77702C0.819095 7.72585 0.819092 7.62353 0.819092 7.57237V4.80959C0.819092 4.45146 1.12627 4.14447 1.48466 4.14447H15.0521C15.1545 4.14447 15.2057 4.14447 15.2569 4.19564C15.3081 4.19564 15.3081 4.19564 15.3593 4.2468C15.5129 4.34913 15.6665 4.45145 15.6665 4.6561C15.6665 4.70726 15.6665 4.70726 15.6665 4.75843C15.7177 4.75843 15.7177 4.75843 15.7177 4.80959Z" fill="#F5DD64"/>
<path d="M14.8472 8.18637H2.09895C1.63817 8.18637 1.27979 7.82822 1.27979 7.36776V5.32126C1.27979 4.8608 1.63817 4.50266 2.09895 4.50266H14.8984C15.3592 4.50266 15.7176 4.8608 15.7176 5.32126V7.3166C15.7176 7.82822 15.308 8.18637 14.8472 8.18637Z" fill="#F0D03C"/>
<path d="M3.17427 7.52141H2.86707C2.71348 7.52141 2.61108 7.41909 2.61108 7.2656V4.70747C2.61108 4.55399 2.71348 4.45166 2.86707 4.45166H3.17427C3.32786 4.45166 3.43026 4.55399 3.43026 4.70747V7.2656C3.48145 7.36792 3.32786 7.52141 3.17427 7.52141Z" fill="#FAF1BB"/>
<path d="M1.58734 7.52169H1.28016C1.12656 7.52169 1.02417 7.41936 1.02417 7.26587V4.70775C1.02417 4.55426 1.12656 4.45193 1.28016 4.45193H1.58734C1.74094 4.45193 1.84333 4.55426 1.84333 4.70775V7.26587C1.84333 7.3682 1.68974 7.52169 1.58734 7.52169Z" fill="#F5E697"/>
<path d="M4.966 7.52141H4.65882C4.50523 7.52141 4.40283 7.41909 4.40283 7.2656V4.70747C4.40283 4.55399 4.50523 4.45166 4.65882 4.45166H4.966C5.11959 4.45166 5.22198 4.55399 5.22198 4.70747V7.2656C5.22198 7.36792 5.11959 7.52141 4.966 7.52141Z" fill="#FAF1BB"/>
<path d="M6.6557 7.52141H6.34851C6.19492 7.52141 6.09253 7.41909 6.09253 7.2656V4.70747C6.09253 4.55399 6.19492 4.45166 6.34851 4.45166H6.6557C6.80929 4.45166 6.91168 4.55399 6.91168 4.70747V7.2656C6.91168 7.36792 6.80929 7.52141 6.6557 7.52141Z" fill="#F7E37C"/>
<path d="M2.2525 8.03268H2.15011C2.04772 8.03268 1.94531 7.93036 1.94531 7.82803V4.50247C1.94531 4.40014 2.04772 4.29782 2.15011 4.29782H2.2525C2.3549 4.29782 2.45729 4.40014 2.45729 4.50247V7.82803C2.45729 7.98152 2.3549 8.03268 2.2525 8.03268Z" fill="#D9802B"/>
<path d="M2.25264 8.03259C2.15025 8.03259 2.04785 7.93027 2.04785 7.82794V4.50238C2.04785 4.40005 2.15025 4.29773 2.25264 4.29773C2.35504 4.29773 2.45744 4.40005 2.45744 4.50238V7.82794C2.45744 7.98143 2.35504 8.03259 2.25264 8.03259Z" fill="#E59333"/>
<path d="M3.9932 8.03259H3.89082C3.78842 8.03259 3.68604 7.93027 3.68604 7.82794V4.50238C3.68604 4.40005 3.78842 4.29773 3.89082 4.29773H3.9932C4.09559 4.29773 4.198 4.40005 4.198 4.50238V7.82794C4.198 7.98143 4.09559 8.03259 3.9932 8.03259Z" fill="#D9802B"/>
<path d="M3.99337 8.03259C3.89097 8.03259 3.78857 7.93027 3.78857 7.82794V4.50238C3.78857 4.40005 3.89097 4.29773 3.99337 4.29773C4.09576 4.29773 4.19817 4.40005 4.19817 4.50238V7.82794C4.19817 7.98143 4.09576 8.03259 3.99337 8.03259Z" fill="#E59333"/>
<path d="M5.68268 8.03259H5.58028C5.47788 8.03259 5.37549 7.93027 5.37549 7.82794V4.50238C5.37549 4.40005 5.47788 4.29773 5.58028 4.29773H5.68268C5.78508 4.29773 5.88748 4.40005 5.88748 4.50238V7.82794C5.93867 7.98143 5.83628 8.03259 5.68268 8.03259Z" fill="#D9802B"/>
<path d="M5.73386 8.03259C5.63146 8.03259 5.52905 7.93027 5.52905 7.82794V4.50238C5.52905 4.40005 5.63146 4.29773 5.73386 4.29773C5.83626 4.29773 5.93865 4.40005 5.93865 4.50238V7.82794C5.93865 7.98143 5.83626 8.03259 5.73386 8.03259Z" fill="#E59333"/>
<path d="M7.42366 8.03259H7.32126C7.21885 8.03259 7.11646 7.93027 7.11646 7.82794V4.50238C7.11646 4.40005 7.21885 4.29773 7.32126 4.29773H7.42366C7.52607 4.29773 7.62847 4.40005 7.62847 4.50238V7.82794C7.67967 7.98143 7.57727 8.03259 7.42366 8.03259Z" fill="#D9802B"/>
<path d="M7.47456 8.03259C7.37217 8.03259 7.26978 7.93027 7.26978 7.82794V4.50238C7.26978 4.40005 7.37217 4.29773 7.47456 4.29773C7.57696 4.29773 7.67935 4.40005 7.67935 4.50238V7.82794C7.67935 7.98143 7.57696 8.03259 7.47456 8.03259Z" fill="#E59333"/>
<path d="M9.16413 8.03259H9.06174C8.95934 8.03259 8.85693 7.93027 8.85693 7.82794V4.50238C8.85693 4.40005 8.95934 4.29773 9.06174 4.29773H9.16413C9.26653 4.29773 9.36892 4.40005 9.36892 4.50238V7.82794C9.36892 7.98143 9.26653 8.03259 9.16413 8.03259Z" fill="#D9802B"/>
<path d="M9.21554 8.03259C9.11314 8.03259 9.01074 7.93027 9.01074 7.82794V4.50238C9.01074 4.40005 9.11314 4.29773 9.21554 4.29773C9.31794 4.29773 9.42034 4.40005 9.42034 4.50238V7.82794C9.36914 7.98143 9.31794 8.03259 9.21554 8.03259Z" fill="#E59333"/>
<path d="M10.9048 8.03259H10.8024C10.7 8.03259 10.5977 7.93027 10.5977 7.82794V4.50238C10.5977 4.40005 10.7 4.29773 10.8024 4.29773H10.9048C11.0072 4.29773 11.1096 4.40005 11.1096 4.50238V7.82794C11.1096 7.98143 11.0072 8.03259 10.9048 8.03259Z" fill="#D9802B"/>
<path d="M10.9047 8.03259C10.8023 8.03259 10.7 7.93027 10.7 7.82794V4.50238C10.7 4.40005 10.8023 4.29773 10.9047 4.29773C11.0071 4.29773 11.1095 4.40005 11.1095 4.50238V7.82794C11.1095 7.98143 11.0583 8.03259 10.9047 8.03259Z" fill="#E59333"/>
<path d="M12.6456 8.03259H12.5432C12.4408 8.03259 12.3384 7.93027 12.3384 7.82794V4.50238C12.3384 4.40005 12.4408 4.29773 12.5432 4.29773H12.6456C12.748 4.29773 12.8504 4.40005 12.8504 4.50238V7.82794C12.8504 7.98143 12.748 8.03259 12.6456 8.03259Z" fill="#D9802B"/>
<path d="M12.6457 8.03259C12.5433 8.03259 12.4409 7.93027 12.4409 7.82794V4.50238C12.4409 4.40005 12.5433 4.29773 12.6457 4.29773C12.7481 4.29773 12.8505 4.40005 12.8505 4.50238V7.82794C12.8505 7.98143 12.7481 8.03259 12.6457 8.03259Z" fill="#E59333"/>
<path d="M14.3863 8.03259H14.2839C14.1815 8.03259 14.0791 7.93027 14.0791 7.82794V4.50238C14.0791 4.40005 14.1815 4.29773 14.2839 4.29773H14.3863C14.4887 4.29773 14.5911 4.40005 14.5911 4.50238V7.82794C14.5911 7.98143 14.4887 8.03259 14.3863 8.03259Z" fill="#D9802B"/>
<path d="M14.3864 8.03259C14.284 8.03259 14.1816 7.93027 14.1816 7.82794V4.50238C14.1816 4.40005 14.284 4.29773 14.3864 4.29773C14.4888 4.29773 14.5912 4.40005 14.5912 4.50238V7.82794C14.5912 7.98143 14.4888 8.03259 14.3864 8.03259Z" fill="#E59333"/>
<path opacity="0.5" d="M15.7179 4.70714C15.7179 4.65598 15.7179 4.65599 15.7179 4.60482C15.6667 4.45134 15.5643 4.29784 15.4107 4.19552C15.3595 4.19552 15.3595 4.14435 15.3083 4.14435C15.2571 4.09319 15.1547 4.0932 15.1035 4.0932H11.5196L11.6732 4.14435C11.9292 4.29784 12.134 4.55366 12.134 4.80947V6.95828C12.134 7.36758 11.8268 7.67457 11.4172 7.67457H0.921631C1.02403 7.93038 1.28002 8.13503 1.53601 8.13503H15.1035C15.4619 8.13503 15.769 7.82804 15.769 7.4699V4.70714C15.7178 4.7583 15.7179 4.7583 15.7179 4.70714Z" fill="#D9802B"/>
</svg>
