<svg width="44" height="31" viewBox="0 0 44 31" fill="none" xmlns="http://www.w3.org/2000/svg">
<path d="M41.2311 4.34624V28.0057H2.78003V4.34624L4.11197 5.6782L12.9448 14.5111L20.6911 5.74828L21.988 4.27615L23.2849 5.74828L31.0663 14.5111L39.8641 5.6782L41.2311 4.34624Z" fill="#FBF357"/>
<path d="M41.2311 26.8842H2.78003V30.0739H41.2311V26.8842Z" fill="#FBAC00"/>
<path d="M21.991 10.5999L15.2229 17.3642L21.9872 24.1323L28.7553 17.368L21.991 10.5999Z" fill="#FBAC00"/>
<path d="M21.9924 12.2781L16.8867 17.3837L21.9923 22.4894L27.098 17.3837L21.9924 12.2781Z" fill="#06B4C7"/>
<path opacity="0.3" d="M21.9878 12.268V22.5029L27.1052 17.3854L21.9878 12.268Z" fill="white"/>
<path opacity="0.3" d="M27.1053 17.3854H16.8704L21.9878 12.268L27.1053 17.3854Z" fill="white"/>
<path d="M9.54476 17.9811C9.54476 18.9976 8.70354 19.8389 7.68705 19.8389C6.67057 19.8389 5.82935 18.9976 5.82935 17.9811C5.82935 16.9647 6.67057 16.1234 7.68705 16.1234C8.73859 16.1234 9.54476 16.9296 9.54476 17.9811Z" fill="#FBAC00"/>
<path d="M38.7423 17.9811C38.7423 18.9976 37.901 19.8389 36.8846 19.8389C35.8681 19.8389 35.0269 18.9976 35.0269 17.9811C35.0269 16.9647 35.8681 16.1234 36.8846 16.1234C37.9361 16.1234 38.7423 16.9296 38.7423 17.9811Z" fill="#FBAC00"/>
<path d="M17.7468 4.27624L21.988 0L26.2642 4.27624L21.988 8.51741L17.7468 4.27624Z" fill="#FBF357"/>
<path d="M24.7571 4.27616L23.2849 5.74829L21.988 7.04519L20.6911 5.74829L19.219 4.27616L21.988 1.47208L24.7571 4.27616Z" fill="#FBAC00"/>
<path d="M2.77627 1.49358L0 4.26907L2.77549 7.04535L5.55176 4.26986L2.77627 1.49358Z" fill="#FBAC00"/>
<path d="M43.9999 4.27616L41.2308 7.04519L39.8638 5.67821L38.4268 4.27616L41.2308 1.47208L43.9999 4.27616Z" fill="#FBAC00"/>
<path opacity="0.3" d="M43.9999 4.27616L41.2308 7.04519V30.0738H21.9878V1.47208L24.7568 4.27616L23.2847 5.74829L31.066 14.5111L39.8638 5.67821L38.4268 4.27616L41.2308 1.47208L43.9999 4.27616Z" fill="#FBFBFB"/>
</svg>
