<svg width="100" height="112" viewBox="0 0 100 112" fill="none" xmlns="http://www.w3.org/2000/svg">
<path d="M99.9001 31.8V61.6C99.9001 89.2 77.6001 111.5 50.0001 111.5C22.4001 111.5 0.100098 89.2 0.100098 61.6V31.8L50.0001 0.400024L99.9001 31.8Z" fill="#E1E1E1"/>
<path d="M50.0001 102.5C27.4001 102.5 9.1001 84.1 9.1001 61.6V36.8L50.0001 11L90.9001 36.7V61.5C90.9001 84.1 72.6001 102.5 50.0001 102.5Z" fill="#735846"/>
<path d="M63.0999 60.7C63.0999 67.9 57.2999 73.8 49.9999 73.8C42.7999 73.8 36.8999 68 36.8999 60.7C36.8999 53.5 42.6999 47.6 49.9999 47.6C57.1999 47.6 63.0999 53.5 63.0999 60.7Z" fill="#FF3D12"/>
<path d="M42.5999 73.4C41.1999 74.8 38.9999 74.8 37.6999 73.4C36.2999 72 36.2999 69.8 37.6999 68.5L57.4999 48.7C58.8999 47.3 61.0999 47.3 62.3999 48.7C63.7999 50.1 63.7999 52.3 62.3999 53.6L42.5999 73.4Z" fill="#F7E33F"/>
<path d="M61.8002 68.4C63.2002 69.8 63.2002 72 61.8002 73.3C60.4002 74.7 58.2002 74.7 56.9002 73.3L37.0002 53.6C35.6002 52.2 35.6002 50 37.0002 48.7C38.4002 47.3 40.6002 47.3 41.9002 48.7L61.8002 68.4Z" fill="#F7E33F"/>
<path d="M53.5999 47.9001C53.5999 49.9001 51.9999 51.5001 49.9999 51.5001C47.9999 51.5001 46.3999 49.9001 46.3999 47.9001C46.3999 45.9001 47.9999 44.3 49.9999 44.3C51.9999 44.3 53.5999 45.9001 53.5999 47.9001Z" fill="#FF3D12"/>
<path opacity="0.3" d="M50 0.400024V111.5C77.6 111.5 99.9 89.2 99.9 61.6V31.8L50 0.400024Z" fill="#FBFBFB"/>
<path d="M80.1002 21.4C80.9002 21.9 81.2002 23 80.7002 23.9C80.2002 24.7 79.1002 25 78.2002 24.5L57.0002 10.9C56.2002 10.4 55.9002 9.29999 56.4002 8.39999C56.9002 7.59999 58.0002 7.29998 58.9002 7.79998L80.1002 21.4Z" fill="white"/>
<path d="M87.1003 26.8001C87.1003 27.9001 86.2003 28.7001 85.2003 28.7001C84.1003 28.7001 83.3003 27.8001 83.3003 26.8001C83.3003 25.7001 84.2003 24.9001 85.2003 24.9001C86.3003 24.8001 87.1003 25.7001 87.1003 26.8001Z" fill="white"/>
</svg>
