<svg width="38" height="38" viewBox="0 0 38 38" fill="none" xmlns="http://www.w3.org/2000/svg">
<path d="M38 18.9831C38 20.4157 37.8567 21.7767 37.5344 23.1377C35.6362 31.6259 28.0792 38.001 18.9821 38.001C8.48822 38.001 0 29.5128 0 19.0189C0 14.2555 1.75495 9.88602 4.6918 6.5552C8.16588 2.54389 13.2875 0.0368256 18.9821 0.0368256C29.5118 0.0010103 38 8.48923 38 18.9831Z" fill="#FBF357"/>
<path d="M19.018 33.6664C10.9237 33.6664 4.33374 27.0764 4.33374 18.9821C4.33374 10.8879 10.9237 4.29788 19.018 4.29788C27.1123 4.29788 33.7023 10.8879 33.7023 18.9821C33.7023 27.0764 27.1123 33.6664 19.018 33.6664Z" fill="#F7C93F"/>
<path d="M19.018 31.8757C11.8908 31.8757 6.12451 26.0736 6.12451 18.9822C6.12451 11.8549 11.9266 6.08868 19.018 6.08868C26.1452 6.08868 31.9115 11.8908 31.9115 18.9822C31.9115 26.1094 26.1452 31.8757 19.018 31.8757Z" fill="#F7E33F"/>
<path opacity="0.2" d="M38.0001 18.9821C38.0001 20.4147 37.8568 21.7757 37.5345 23.1367C35.9228 23.9604 34.2037 24.6051 32.3771 24.9991C30.7296 25.393 29.0105 25.6079 27.2555 25.6079C17.8719 25.6079 9.81348 19.8775 6.26777 11.6758C5.55146 10.0283 5.01423 8.34496 4.69189 6.51838C8.16598 2.50707 13.2876 0 18.9822 0C29.5119 0 38.0001 8.48822 38.0001 18.9821Z" fill="white"/>
<path d="M20.8086 23.7813C20.8086 24.7841 20.0206 25.572 19.0178 25.572C18.015 25.572 17.2271 24.7841 17.2271 23.7813V14.9707C17.2271 13.9679 18.015 13.1799 19.0178 13.1799C20.0206 13.1799 20.8086 13.9679 20.8086 14.9707V23.7813Z" fill="#F7C93F"/>
</svg>
