<svg width="32" height="45" viewBox="0 0 32 45" fill="none" xmlns="http://www.w3.org/2000/svg">
<path d="M32 28.3459C32 37.1796 24.8337 44.3459 16 44.3459C7.1663 44.3459 0 37.1796 0 28.3459C0 20.8958 5.10865 14.6164 11.9911 12.8426V5.74725H20.0089V12.8426C26.8914 14.6519 32 20.8958 32 28.3459Z" fill="#E1E1E1"/>
<path d="M21.5345 6.91799C21.5345 7.55657 21.0023 8.08871 20.3638 8.08871H11.672C11.0334 8.08871 10.5012 7.55657 10.5012 6.91799C10.5012 6.5987 10.6431 6.31488 10.856 6.10202C11.0688 5.88916 11.3527 5.74725 11.672 5.74725H20.3638C21.0023 5.78273 21.5345 6.27941 21.5345 6.91799Z" fill="#E1E1E1"/>
<path d="M20.3991 0L18.235 5.7827H13.8004L11.6008 0H20.3991Z" fill="#735846"/>
<path d="M18.2351 5.78284H13.8005V16.1775H18.2351V5.78284Z" fill="#F5F5F5"/>
<path d="M29.7295 28.3459C29.7295 35.9379 23.592 42.0754 16 42.0754C8.40797 42.0754 2.27051 35.9379 2.27051 28.3459C2.27051 20.7539 8.40797 14.6164 16 14.6164C23.592 14.6164 29.7295 20.7539 29.7295 28.3459Z" fill="#FF3D12"/>
<path d="M18.2351 5.78284H13.8005V6.5988H18.2351V5.78284Z" fill="#735846"/>
<path opacity="0.2" d="M16 0V44.3814C24.8337 44.3814 32 37.2151 32 28.3814C32 20.9313 26.8914 14.6519 20.0089 12.878V8.12417H20.3636C21.0022 8.12417 21.5344 7.59201 21.5344 6.95343C21.5344 6.63414 21.3925 6.35033 21.1796 6.13747C20.9667 5.92461 20.6829 5.7827 20.3636 5.7827H18.235L20.4346 0H16Z" fill="white"/>
<path d="M21.9602 22.8469C22.8223 22.8469 23.5211 22.1481 23.5211 21.286C23.5211 20.4239 22.8223 19.725 21.9602 19.725C21.0981 19.725 20.3992 20.4239 20.3992 21.286C20.3992 22.1481 21.0981 22.8469 21.9602 22.8469Z" fill="white"/>
<path d="M24.4434 26.4301C24.9528 26.4301 25.3658 26.0171 25.3658 25.5077C25.3658 24.9983 24.9528 24.5853 24.4434 24.5853C23.934 24.5853 23.521 24.9983 23.521 25.5077C23.521 26.0171 23.934 26.4301 24.4434 26.4301Z" fill="white"/>
</svg>
