<svg width="23" height="25" viewBox="0 0 23 25" fill="none" xmlns="http://www.w3.org/2000/svg">
<path d="M15.9727 23.4877V19.3488C16.0128 18.8388 15.9439 18.3262 15.7706 17.8449C15.5972 17.3636 15.3234 16.9247 14.9674 16.5575C18.3255 16.1831 21.8548 14.9105 21.8548 9.07112C21.8545 7.57795 21.2802 6.14204 20.2506 5.06058C20.7381 3.75422 20.7036 2.31026 20.1543 1.02865C20.1543 1.02865 18.8923 0.654338 15.9727 2.61148C13.5214 1.94714 10.9376 1.94714 8.48634 2.61148C5.56667 0.654338 4.30468 1.02865 4.30468 1.02865C3.75537 2.31026 3.7209 3.75422 4.20843 5.06058C3.17117 6.15006 2.59622 7.59895 2.60422 9.10321C2.60422 14.8998 6.13349 16.1724 9.49165 16.5895C9.13979 16.9531 8.86842 17.3867 8.69522 17.8621C8.52201 18.3375 8.45084 18.8441 8.48634 19.3488V23.4877M8.48634 20.2792C3.13895 21.8835 3.13895 17.6055 1 17.0708L8.48634 20.2792Z" stroke="white" stroke-width="1.72804" stroke-linecap="round" stroke-linejoin="round"/>
</svg>
