<svg width="174" height="109" viewBox="0 0 174 109" fill="none" xmlns="http://www.w3.org/2000/svg">
<g clip-path="url(#clip0)">
<path d="M39.9284 13.3918C17.8735 20.7889 5.99469 44.6571 13.3918 66.712C17.383 78.6119 26.1715 87.5563 36.8971 92.1084C46.0431 95.9662 56.5727 96.6492 66.712 93.2486C76.867 89.8426 84.8554 82.9487 89.8047 74.3459C95.6217 64.2629 97.2398 51.8283 93.2486 39.9283C85.8514 17.8734 61.9833 5.99466 39.9284 13.3918Z" fill="#F46800"/>
<path d="M85.5893 72.1569C83.0344 71.3175 78.4756 70.0309 73.8082 69.5152C69.1461 69.0153 65.3119 65.457 64.4854 60.855C64.4644 60.7921 64.459 60.724 64.4484 60.6401C64.4484 60.6401 71.5566 51.3307 68.2481 45.6899C68.2481 45.6899 68.5364 45.6107 68.9503 45.4369C72.8794 43.6994 71.1064 37.5786 66.8816 38.2786C66.8502 38.2891 66.7978 38.2892 66.7663 38.2997L66.4191 37.6817C66.2059 32.9789 64.8324 18.9769 56.2153 23.2661C56.2153 23.2661 46.122 14.7069 34.1332 24.4815C22.1234 34.2457 29.8358 45.3522 29.8358 45.3522L33.1785 49.6874C29.7902 51.8382 32.0499 57.4285 36.1011 56.4719C36.5361 56.361 36.8295 56.2451 36.8295 56.2451C37.5756 62.7453 48.8595 65.886 48.8595 65.886C48.9016 65.9593 48.9227 66.0222 48.9595 66.0798C51.0593 70.2548 50.1461 75.4053 46.7439 78.61C43.3156 81.8409 40.4756 85.6265 38.9382 87.821C38.0125 89.1283 37.2917 90.5768 36.8856 92.1295C46.0421 95.9663 56.5717 96.6493 66.711 93.2487C76.866 89.8427 84.8544 82.9488 89.8037 74.346C88.5645 73.3626 87.116 72.6417 85.5893 72.1569Z" fill="white"/>
</g>
<g clip-path="url(#clip1)">
<path d="M105.72 95.1301C127.681 102.79 151.694 91.1969 159.355 69.2354C167.015 47.274 155.422 23.2608 133.46 15.6006C111.499 7.94033 87.4855 19.5338 79.8252 41.4952C72.165 63.4567 83.7584 87.4699 105.72 95.1301Z" fill="#ECEFF1"/>
<path d="M140.411 88.7149C139.158 86.7446 137.394 85.0253 135.274 83.7506L125.136 77.7614C124.071 77.139 123.603 75.8272 124.018 74.6393L125.006 71.806C136.229 74.5554 138.568 72.8847 139.357 70.6231C141.689 63.9376 142.66 46.8645 142.81 44.0845C144.076 40.1497 144.13 37.7097 143.017 35.1637C142.231 33.3564 140.483 32.3898 139.075 31.6145C138.525 31.3055 137.762 30.8887 137.52 30.6206C135.37 28.265 132.994 26.6554 129.888 25.5052C123.248 23.4903 113.748 24.8487 108.338 31.5031C107.891 32.1446 97.3106 47.3098 94.6215 55.0192C93.4997 58.2352 96.542 61.1975 105.065 65.04L104.135 67.7042C103.721 68.8922 102.534 69.6266 101.307 69.4498L89.6341 67.8312C87.1944 67.521 84.747 67.7602 82.5454 68.5255C81.8578 68.7706 81.2996 69.284 81.0056 69.9509C80.7117 70.6178 80.7063 71.3685 80.99 72.0418C85.5571 82.8285 94.5707 91.2412 105.72 95.13C116.869 99.0188 129.164 98.0388 139.444 92.4308C140.085 92.0801 140.554 91.4856 140.734 90.7788C140.917 90.0788 140.799 89.3296 140.411 88.7149Z" fill="#455A64"/>
</g>
<defs>
<clipPath id="clip0">
<rect width="84.2287" height="84.2287" fill="white" transform="translate(0 26.7836) rotate(-18.5413)"/>
</clipPath>
<clipPath id="clip1">
<rect width="84.2287" height="84.2287" fill="white" transform="translate(93.6953 1.73047) rotate(19.229)"/>
</clipPath>
</defs>
</svg>
