<svg width="75" height="75" viewBox="0 0 75 75" fill="none" xmlns="http://www.w3.org/2000/svg">
<g clip-path="url(#clip0)">
<path d="M66.7581 67.8684C55.3993 77.1408 19.9321 77.1408 8.80512 67.8684C-2.55366 58.5959 -1.39462 18.9561 8.80512 8.52462C19.0049 -1.90689 56.5583 -1.90689 66.7581 8.52462C76.9578 18.9561 78.1169 58.5961 66.7581 67.8684Z" fill="#30359C"/>
<path d="M38.0147 51.6417C27.815 59.7552 16.4562 63.9278 5.79293 64.1595C-2.08873 50.7145 -0.465981 18.0291 8.8065 8.52483C17.1517 -0.0521574 43.3464 -1.67491 58.4142 3.65674C62.1231 18.9563 54.4734 38.4284 38.0147 51.6417Z" fill="#28258A"/>
<path d="M42.8824 47.2373H32.9144V42.3692C32.9144 40.5147 33.1462 39.1239 33.6099 38.4284C34.0735 37.5011 35.0007 36.3421 36.6235 34.7193L41.0279 30.0832C41.7234 29.3877 41.9551 28.2286 41.9551 27.0696C41.9551 25.9105 41.7234 24.7515 40.7961 24.056C40.1006 23.1288 39.1733 22.897 38.0143 22.897C36.8553 22.897 35.928 23.3605 35.2325 24.2878C34.537 25.2151 34.0735 26.6059 33.8417 28.2286H23.4102C23.8737 23.8242 25.4965 20.347 28.2783 18.0289C31.0601 15.7108 34.3054 14.3198 38.478 14.3198C42.6506 14.3198 45.896 15.4789 48.446 17.5652C50.9959 19.8832 52.3868 22.8968 52.3868 26.8376C52.3868 28.6922 52.1551 29.8512 51.6913 30.7785C51.2278 31.7057 50.9959 32.1693 50.7641 32.633C50.5323 33.0966 50.0686 33.5603 49.605 34.2558C48.9095 34.9513 48.446 35.4148 48.2142 35.6466C47.0552 36.8056 46.1279 37.7329 45.2006 38.6601C44.2734 39.5874 43.5779 40.2829 43.3461 40.9782C43.1143 41.6737 42.8826 42.369 42.8826 43.5281V47.2373H42.8824ZM32.2191 55.5825C32.2191 52.3372 34.769 49.7871 38.0145 49.7871C41.26 49.7871 43.8098 52.337 43.8098 55.5825C43.8098 58.828 41.26 61.3779 38.0145 61.3779C34.769 61.3779 32.2191 58.8279 32.2191 55.5825Z" fill="white"/>
</g>
<defs>
<clipPath id="clip0">
<rect width="74.2318" height="74.2318" fill="white" transform="translate(0.666016 0.591003)"/>
</clipPath>
</defs>
</svg>
