<svg width="40" height="38" viewBox="0 0 40 38" fill="none" xmlns="http://www.w3.org/2000/svg">
<path d="M25.573 16.2955V32.9675C25.573 35.7405 23.3136 38 20.5406 38H19.1027C16.3298 38 14.0703 35.7405 14.0703 32.9675V16.2955C14.0703 13.5225 16.3298 11.263 19.1027 11.263H20.5406C23.3136 11.263 25.573 13.5225 25.573 16.2955Z" fill="#735846"/>
<path d="M38.3081 18.4523H1.36938C1.36938 10.7496 6.05947 4.17658 12.7694 1.40361C14.9604 0.479281 17.3568 0 19.8559 0C28.4144 0 35.5694 5.78559 37.6919 13.6595C38.0685 15.2 38.3081 16.809 38.3081 18.4523Z" fill="#FF3D12"/>
<path d="M39.6432 19.6504C39.6432 20.3009 39.0955 20.8486 38.445 20.8486H1.1982C0.547748 20.8486 0 20.3009 0 19.6504C0 19 0.547748 18.4522 1.1982 18.4522H38.445C39.1297 18.4522 39.6432 19 39.6432 19.6504Z" fill="#E1E1E1"/>
<path d="M11.7423 10.5099C12.7255 10.5099 13.5225 9.71289 13.5225 8.72973C13.5225 7.74656 12.7255 6.94955 11.7423 6.94955C10.7592 6.94955 9.96216 7.74656 9.96216 8.72973C9.96216 9.71289 10.7592 10.5099 11.7423 10.5099Z" fill="white"/>
<path d="M20.0613 16.0901C21.0067 16.0901 21.773 15.3237 21.773 14.3784C21.773 13.433 21.0067 12.6667 20.0613 12.6667C19.116 12.6667 18.3496 13.433 18.3496 14.3784C18.3496 15.3237 19.116 16.0901 20.0613 16.0901Z" fill="white"/>
<path d="M24.101 8.6955C25.3489 8.6955 26.3605 7.6839 26.3605 6.43604C26.3605 5.18817 25.3489 4.17657 24.101 4.17657C22.8531 4.17657 21.8416 5.18817 21.8416 6.43604C21.8416 7.6839 22.8531 8.6955 24.101 8.6955Z" fill="white"/>
<path d="M32.2829 15.0973C32.9447 15.0973 33.4811 14.5609 33.4811 13.8991C33.4811 13.2374 32.9447 12.7009 32.2829 12.7009C31.6212 12.7009 31.0847 13.2374 31.0847 13.8991C31.0847 14.5609 31.6212 15.0973 32.2829 15.0973Z" fill="white"/>
<path opacity="0.2" d="M37.6577 13.6595C35.0559 14.8919 31.8721 15.6451 28.4829 15.6451C27.4559 15.6451 26.4631 15.5766 25.5046 15.4396C24.1694 15.2685 22.937 14.9946 21.7388 14.618C20.6433 14.2757 19.6163 13.8306 18.6919 13.3514C17.9046 12.9405 17.1856 12.4613 16.5352 11.982C15.3028 11.0234 14.2757 9.96217 13.5568 8.76397C13.2829 8.28469 13.0091 7.80541 12.8037 7.2919C12.4271 6.33334 12.2217 5.34055 12.2217 4.31352C12.2217 3.32073 12.3928 2.36217 12.7694 1.43784C14.9604 0.513521 17.3568 0.0342393 19.8559 0.0342393C28.3802 5.02914e-06 35.5694 5.7856 37.6577 13.6595Z" fill="white"/>
<path opacity="0.3" d="M19.8217 20.746V38H19.1027C16.3298 38 14.0703 35.7406 14.0703 32.9676V20.746H19.8217Z" fill="#5C4742"/>
</svg>
