<svg width="131" height="98" viewBox="0 0 131 98" fill="none" xmlns="http://www.w3.org/2000/svg">
<path d="M17.964 91.536H8.532L7.02 96H0.576L9.72 70.728H16.848L25.992 96H19.476L17.964 91.536ZM16.38 86.784L13.248 77.532L10.152 86.784H16.38ZM37.811 90.24L42.167 75.912H48.719L41.591 96H33.995L26.867 75.912H33.455L37.811 90.24ZM50.0861 85.92C50.0861 83.856 50.4701 82.044 51.2381 80.484C52.0301 78.924 53.0981 77.724 54.4421 76.884C55.7861 76.044 57.2861 75.624 58.9421 75.624C60.3581 75.624 61.5941 75.912 62.6501 76.488C63.7301 77.064 64.5581 77.82 65.1341 78.756V75.912H71.2901V96H65.1341V93.156C64.5341 94.092 63.6941 94.848 62.6141 95.424C61.5581 96 60.3221 96.288 58.9061 96.288C57.2741 96.288 55.7861 95.868 54.4421 95.028C53.0981 94.164 52.0301 92.952 51.2381 91.392C50.4701 89.808 50.0861 87.984 50.0861 85.92ZM65.1341 85.956C65.1341 84.42 64.7021 83.208 63.8381 82.32C62.9981 81.432 61.9661 80.988 60.7421 80.988C59.5181 80.988 58.4741 81.432 57.6101 82.32C56.7701 83.184 56.3501 84.384 56.3501 85.92C56.3501 87.456 56.7701 88.68 57.6101 89.592C58.4741 90.48 59.5181 90.924 60.7421 90.924C61.9661 90.924 62.9981 90.48 63.8381 89.592C64.7021 88.704 65.1341 87.492 65.1341 85.956ZM86.9397 90.78V96H83.8077C81.5757 96 79.8357 95.46 78.5877 94.38C77.3397 93.276 76.7157 91.488 76.7157 89.016V81.024H74.2677V75.912H76.7157V71.016H82.8717V75.912H86.9037V81.024H82.8717V89.088C82.8717 89.688 83.0157 90.12 83.3037 90.384C83.5917 90.648 84.0717 90.78 84.7437 90.78H86.9397ZM89.1447 85.92C89.1447 83.856 89.5287 82.044 90.2967 80.484C91.0887 78.924 92.1567 77.724 93.5007 76.884C94.8447 76.044 96.3447 75.624 98.0007 75.624C99.4167 75.624 100.653 75.912 101.709 76.488C102.789 77.064 103.617 77.82 104.193 78.756V75.912H110.349V96H104.193V93.156C103.593 94.092 102.753 94.848 101.673 95.424C100.617 96 99.3807 96.288 97.9647 96.288C96.3327 96.288 94.8447 95.868 93.5007 95.028C92.1567 94.164 91.0887 92.952 90.2967 91.392C89.5287 89.808 89.1447 87.984 89.1447 85.92ZM104.193 85.956C104.193 84.42 103.761 83.208 102.897 82.32C102.057 81.432 101.025 80.988 99.8007 80.988C98.5767 80.988 97.5327 81.432 96.6687 82.32C95.8287 83.184 95.4087 84.384 95.4087 85.92C95.4087 87.456 95.8287 88.68 96.6687 89.592C97.5327 90.48 98.5767 90.924 99.8007 90.924C101.025 90.924 102.057 90.48 102.897 89.592C103.761 88.704 104.193 87.492 104.193 85.956ZM120.958 79.26C121.678 78.156 122.578 77.292 123.658 76.668C124.738 76.02 125.938 75.696 127.258 75.696V82.212H125.566C124.03 82.212 122.878 82.548 122.11 83.22C121.342 83.868 120.958 85.02 120.958 86.676V96H114.802V75.912H120.958V79.26Z" fill="#133873"/>
<g clip-path="url(#clip0)">
<path d="M33.9314 9.03269C19.0555 14.022 11.0434 30.1209 16.0327 44.9967C18.7247 53.0231 24.6525 59.056 31.8868 62.1264C38.0557 64.7284 45.1578 65.1891 51.9967 62.8954C58.8462 60.5981 64.2342 55.9482 67.5725 50.1457C71.496 43.3448 72.5874 34.9578 69.8954 26.9314C64.9061 12.0555 48.8072 4.04338 33.9314 9.03269Z" fill="#89D6F7"/>
<path d="M64.7298 48.6692C63.0065 48.103 59.9317 47.2352 56.7835 46.8874C53.639 46.5502 51.0529 44.1502 50.4954 41.0462C50.4812 41.0038 50.4776 40.9578 50.4704 40.9012C50.4704 40.9012 55.2649 34.6221 53.0333 30.8175C53.0333 30.8175 53.2277 30.7641 53.5069 30.6468C56.1571 29.4749 54.9612 25.3465 52.1116 25.8186C52.0904 25.8257 52.0551 25.8257 52.0339 25.8329L51.7997 25.416C51.6559 22.244 50.7295 12.7997 44.9173 15.6928C44.9173 15.6928 38.1094 9.9197 30.0231 16.5126C21.9226 23.0984 27.1245 30.5897 27.1245 30.5897L29.3792 33.5137C27.0937 34.9644 28.6179 38.735 31.3504 38.0898C31.6438 38.015 31.8417 37.9369 31.8417 37.9369C32.3449 42.3212 39.9559 44.4396 39.9559 44.4396C39.9843 44.489 39.9985 44.5314 40.0233 44.5703C41.4396 47.3862 40.8236 50.8602 38.5289 53.0218C36.2166 55.201 34.301 57.7544 33.264 59.2345C32.6397 60.1163 32.1534 61.0933 31.8795 62.1406C38.0555 64.7284 45.1577 65.1892 51.9965 62.8954C58.846 60.5981 64.2341 55.9483 67.5724 50.1457C66.7365 49.4824 65.7596 48.9962 64.7298 48.6692Z" fill="#41596B"/>
</g>
<g clip-path="url(#clip1)">
<path d="M78.3071 64.1642C93.1199 69.331 109.317 61.5113 114.483 46.6985C119.65 31.8856 111.83 15.689 97.0176 10.5222C82.2048 5.35543 66.0081 13.1751 60.8413 27.9879C55.6746 42.8008 63.4942 58.9974 78.3071 64.1642Z" fill="#ECEFF1"/>
<path d="M101.706 59.8373C100.861 58.5083 99.6712 57.3487 98.2412 56.4889L91.4035 52.4492C90.685 52.0294 90.3693 51.1446 90.6488 50.3434L91.3154 48.4324C98.8853 50.2868 100.463 49.1599 100.995 47.6345C102.568 43.1252 103.223 31.6095 103.324 29.7345C104.178 27.0804 104.214 25.4347 103.463 23.7174C102.933 22.4984 101.754 21.8465 100.805 21.3235C100.434 21.1151 99.919 20.834 99.7564 20.6532C98.3062 19.0643 96.7031 17.9787 94.6084 17.2029C90.1298 15.8438 83.7219 16.76 80.073 21.2484C79.7717 21.6811 72.6351 31.9099 70.8214 37.1098C70.0648 39.2789 72.1168 41.277 77.8651 43.8687L77.2383 45.6657C76.9588 46.467 76.1581 46.9624 75.331 46.8431L67.4574 45.7514C65.8119 45.5422 64.1611 45.7035 62.6762 46.2197C62.2124 46.385 61.8359 46.7313 61.6376 47.1811C61.4394 47.6309 61.4357 48.1373 61.6271 48.5914C64.7075 55.867 70.7871 61.5412 78.307 64.1642C85.827 66.7872 94.1201 66.1262 101.054 62.3436C101.486 62.107 101.803 61.7061 101.924 61.2294C102.047 60.7572 101.968 60.2519 101.706 59.8373Z" fill="#455A64"/>
</g>
<defs>
<clipPath id="clip0">
<rect width="56.8115" height="56.8115" fill="white" transform="translate(7 18.0654) rotate(-18.5413)"/>
</clipPath>
<clipPath id="clip1">
<rect width="56.8115" height="56.8115" fill="white" transform="translate(70.1966 1.16693) rotate(19.229)"/>
</clipPath>
</defs>
</svg>
