<svg width="187" height="118" viewBox="0 0 187 118" fill="none" xmlns="http://www.w3.org/2000/svg">
<g clip-path="url(#clip0)">
<path d="M43.0492 14.4385C19.2705 22.4139 6.46324 48.1476 14.4386 71.9264C18.7417 84.7564 28.2171 94.3998 39.781 99.3078C49.6419 103.467 60.9946 104.204 71.9264 100.537C82.8751 96.8649 91.4878 89.4321 96.824 80.1569C103.096 69.2858 104.84 55.8793 100.537 43.0492C92.5617 19.2705 66.828 6.46323 43.0492 14.4385Z" fill="#89D6F7"/>
<path d="M92.2803 77.7968C89.5256 76.8917 84.6106 75.5046 79.5783 74.9486C74.5518 74.4096 70.418 70.5732 69.5269 65.6115C69.5042 65.5437 69.4984 65.4702 69.4869 65.3798C69.4869 65.3798 77.1507 55.3428 73.5837 49.2611C73.5837 49.2611 73.8945 49.1757 74.3407 48.9883C78.577 47.115 76.6653 40.5158 72.1104 41.2704C72.0765 41.2818 72.02 41.2819 71.9861 41.2933L71.6117 40.6269C71.3819 35.5566 69.901 20.4601 60.6104 25.0846C60.6104 25.0846 49.7281 15.8564 36.8023 26.395C23.8538 36.9224 32.169 48.897 32.169 48.897L35.773 53.571C32.1198 55.8899 34.5561 61.9171 38.924 60.8858C39.393 60.7662 39.7093 60.6413 39.7093 60.6413C40.5137 67.6495 52.6797 71.0357 52.6797 71.0357C52.725 71.1148 52.7478 71.1826 52.7874 71.2447C55.0514 75.746 54.0667 81.2991 50.3987 84.7542C46.7024 88.2377 43.6404 92.3192 41.9828 94.6852C40.9848 96.0947 40.2076 97.6564 39.7698 99.3305C49.642 103.467 60.9946 104.204 71.9264 100.537C82.8752 96.8649 91.4879 89.4322 96.8241 80.157C95.488 79.0967 93.9263 78.3194 92.2803 77.7968Z" fill="#41596B"/>
</g>
<g clip-path="url(#clip1)">
<path d="M113.983 102.565C137.661 110.824 163.551 98.3247 171.81 74.6466C180.069 50.9686 167.569 25.0786 143.891 16.8196C120.213 8.56059 94.3233 21.0602 86.0643 44.7382C77.8054 68.4162 90.305 94.3063 113.983 102.565Z" fill="#ECEFF1"/>
<path d="M151.386 95.6487C150.035 93.5244 148.133 91.6708 145.847 90.2964L134.917 83.8391C133.769 83.168 133.264 81.7537 133.711 80.4729L134.777 77.4182C146.877 80.3825 149.399 78.5812 150.249 76.1428C152.763 68.9348 153.81 50.5272 153.972 47.53C155.338 43.2875 155.396 40.6569 154.195 37.9118C153.348 35.9633 151.463 34.9212 149.945 34.0852C149.352 33.7521 148.529 33.3027 148.269 33.0137C145.951 30.474 143.389 28.7386 140.04 27.4985C132.881 25.326 122.639 26.7906 116.806 33.9652C116.324 34.6568 104.917 51.0073 102.017 59.3193C100.808 62.7866 104.088 65.9805 113.277 70.1233L112.275 72.9958C111.828 74.2766 110.548 75.0684 109.226 74.8778L96.6401 73.1327C94.0097 72.7983 91.371 73.0561 88.9974 73.8812C88.256 74.1456 87.6541 74.6991 87.3372 75.4181C87.0203 76.1371 87.0145 76.9465 87.3204 77.6724C92.2444 89.3022 101.963 98.3725 113.983 102.565C126.003 106.758 139.26 105.701 150.343 99.6551C151.034 99.2769 151.54 98.6359 151.734 97.874C151.931 97.1192 151.804 96.3115 151.386 95.6487Z" fill="#455A64"/>
</g>
<defs>
<clipPath id="clip0">
<rect width="90.8121" height="90.8121" fill="white" transform="translate(0 28.8771) rotate(-18.5413)"/>
</clipPath>
<clipPath id="clip1">
<rect width="90.8121" height="90.8121" fill="white" transform="translate(101.019 1.86536) rotate(19.229)"/>
</clipPath>
</defs>
</svg>
