<svg width="232" height="146" viewBox="0 0 232 146" fill="none" xmlns="http://www.w3.org/2000/svg">
<g clip-path="url(#clip0)">
<path d="M53.34 17.89C23.877 27.7718 8.00826 59.6571 17.89 89.1201C23.2218 105.017 34.9623 116.966 49.2905 123.047C61.5087 128.201 75.5751 129.113 89.1201 124.57C102.686 120.02 113.358 110.811 119.97 99.3182C127.74 85.8484 129.902 69.237 124.57 53.34C114.688 23.877 82.8031 8.00825 53.34 17.89Z" fill="#F46800"/>
<path d="M114.339 96.3939C110.926 95.2725 104.836 93.5537 98.6009 92.8649C92.3728 92.197 87.2508 87.4435 86.1467 81.2957C86.1185 81.2118 86.1114 81.1207 86.0971 81.0087C86.0971 81.0087 95.593 68.5723 91.1733 61.0368C91.1733 61.0368 91.5583 60.931 92.1112 60.6989C97.3602 58.3777 94.9915 50.201 89.3478 51.136C89.3058 51.1501 89.2357 51.1503 89.1937 51.1643L88.7299 50.3387C88.4451 44.0563 86.6103 25.3511 75.0987 31.081C75.0987 31.081 61.6151 19.6469 45.5994 32.7047C29.5556 45.7486 39.8585 60.5857 39.8585 60.5857L44.324 66.377C39.7975 69.2502 42.8162 76.7182 48.2282 75.4404C48.8093 75.2923 49.2013 75.1374 49.2013 75.1374C50.198 83.821 65.2722 88.0166 65.2722 88.0166C65.3284 88.1146 65.3566 88.1986 65.4057 88.2756C68.2108 93.8528 66.9908 100.733 62.4459 105.014C57.8661 109.331 54.0721 114.388 52.0183 117.319C50.7817 119.066 49.8187 121.001 49.2762 123.075C61.5083 128.201 75.5748 129.113 89.1198 124.57C102.686 120.02 113.357 110.811 119.969 99.3183C118.314 98.0045 116.379 97.0415 114.339 96.3939Z" fill="#E6E6E6"/>
</g>
<g clip-path="url(#clip1)">
<path d="M141.231 127.083C170.569 137.316 202.648 121.829 212.881 92.4906C223.115 63.1524 207.627 31.0734 178.289 20.8401C148.951 10.6069 116.872 26.0944 106.639 55.4326C96.4052 84.7708 111.893 116.85 141.231 127.083Z" fill="#ECEFF1"/>
<path d="M187.575 118.513C185.901 115.881 183.544 113.584 180.712 111.881L167.169 103.881C165.746 103.049 165.121 101.297 165.675 99.7096L166.995 95.9247C181.988 99.5977 185.112 97.3657 186.166 94.3444C189.281 85.4134 190.578 62.6055 190.779 58.8918C192.471 53.6352 192.543 50.3757 191.055 46.9745C190.006 44.5601 187.67 43.2689 185.79 42.2331C185.055 41.8204 184.035 41.2636 183.713 40.9055C180.841 37.7586 177.666 35.6084 173.517 34.0719C164.647 31.3801 151.955 33.1948 144.728 42.0844C144.132 42.9413 129.997 63.2004 126.405 73.4993C124.906 77.7955 128.97 81.7529 140.355 86.886L139.114 90.4452C138.56 92.0322 136.974 93.0132 135.336 92.777L119.742 90.6148C116.483 90.2004 113.213 90.5199 110.272 91.5422C109.354 91.8698 108.608 92.5556 108.215 93.4465C107.823 94.3373 107.815 95.3403 108.194 96.2397C114.296 110.65 126.337 121.888 141.231 127.083C156.125 132.278 172.55 130.969 186.283 123.477C187.139 123.009 187.766 122.214 188.006 121.27C188.25 120.335 188.093 119.334 187.575 118.513Z" fill="#123873"/>
</g>
<defs>
<clipPath id="clip0">
<rect width="112.52" height="112.52" fill="white" transform="translate(0 35.7801) rotate(-18.5413)"/>
</clipPath>
<clipPath id="clip1">
<rect width="112.52" height="112.52" fill="white" transform="translate(125.167 2.31116) rotate(19.229)"/>
</clipPath>
</defs>
</svg>
