<svg width="30" height="30" viewBox="0 0 30 30" fill="none" xmlns="http://www.w3.org/2000/svg">
<path d="M14.8364 0.327148C23.0246 0.327148 29.6727 6.97532 29.6727 15.1635C29.6727 23.3517 23.0246 29.9999 14.8364 29.9999C6.64817 29.9999 0 23.3517 0 15.1635C0 6.97532 6.64817 0.327148 14.8364 0.327148Z" fill="black"/>
<path d="M12.856 20.8884C12.773 21.0586 12.5623 21.2044 12.3199 21.3247C11.7757 21.5938 11.0724 21.2509 10.9489 20.6563C10.8946 20.3915 10.8764 20.1367 10.9608 19.9696L10.9628 19.9655C11.0083 19.8722 10.9007 19.7721 10.8033 19.8148C10.5042 19.9453 10.2509 20.173 10.1027 20.4771C9.74679 21.2071 10.5097 23.298 10.5097 23.298C10.5097 23.298 12.63 22.6099 12.9857 21.8801C13.136 21.5718 13.1572 21.2359 13.0759 20.9202C13.0462 20.818 12.8984 20.796 12.856 20.8884Z" fill="#FFCC00"/>
<path d="M19.1796 5.72505C19.1398 5.66677 19.0752 5.63239 19.0048 5.63695C16.7484 5.75943 12.6677 8.91868 11.072 12.192C10.7603 12.8313 10.5368 13.4361 10.3835 14.0039C9.55925 14.1704 8.78605 14.4655 8.22016 14.954C6.62629 16.3396 6.91022 18.6403 7.11577 19.6031C7.1632 19.8313 7.42282 19.9639 7.63793 19.8752L10.5855 18.6352C10.7025 18.9212 10.8111 19.1438 10.8922 19.2965C10.9686 19.4466 11.0973 19.5687 11.2544 19.6453L12.9011 20.448C13.0582 20.5246 13.2334 20.5507 13.3987 20.5184C13.569 20.4882 13.812 20.437 14.1053 20.3542L14.942 23.4358C15.0047 23.6599 15.2696 23.783 15.4786 23.6798C16.3653 23.2523 18.3558 22.0575 18.4618 19.9495C18.498 19.203 18.2556 18.4155 17.8845 17.6666C18.2372 17.1959 18.5797 16.646 18.8914 16.0067C20.4997 12.7338 20.5045 7.6797 19.1796 5.72505ZM15.3078 13.4478C14.4321 13.0209 14.0404 12.0269 14.4317 11.2242C14.823 10.4216 15.8474 10.1177 16.7231 10.5445C17.5987 10.9714 17.9901 11.9655 17.5988 12.7682C17.2075 13.5708 16.1834 13.8746 15.3078 13.4478Z" fill="#FFCC00"/>
</svg>
