<?xml version="1.0"?>
<svg xmlns="http://www.w3.org/2000/svg" height="512" viewBox="0 0 480 480" width="512" class=""><g><path d="m240 0c-132.546875 0-240 107.453125-240 240s107.453125 240 240 240 240-107.453125 240-240c-.148438-132.484375-107.515625-239.851562-240-240zm0 464c-123.710938 0-224-100.289062-224-224s100.289062-224 224-224 224 100.289062 224 224c-.140625 123.652344-100.347656 223.859375-224 224zm0 0" data-original="#000000" class="active-path" style="fill:#DC3545" data-old_color="#000000"/><path d="m333.65625 146.34375c-3.125-3.121094-8.1875-3.121094-11.3125 0l-82.34375 82.34375-82.34375-82.34375c-3.140625-3.03125-8.128906-2.988281-11.214844.097656-3.085937 3.085938-3.128906 8.074219-.097656 11.214844l82.34375 82.34375-82.34375 82.34375c-2.078125 2.007812-2.914062 4.984375-2.179688 7.78125.730469 2.796875 2.914063 4.980469 5.710938 5.710938 2.796875.734374 5.773438-.101563 7.78125-2.179688l82.34375-82.34375 82.34375 82.34375c3.140625 3.03125 8.128906 2.988281 11.214844-.097656 3.085937-3.085938 3.128906-8.074219.097656-11.214844l-82.34375-82.34375 82.34375-82.34375c3.121094-3.125 3.121094-8.1875 0-11.3125zm0 0" data-original="#000000" class="active-path" style="fill:#DC3545" data-old_color="#000000"/></g> </svg>
