<svg width="109" height="121" viewBox="0 0 109 121" fill="none" xmlns="http://www.w3.org/2000/svg">
<path d="M108.574 54.2872L54.2872 108.574L0 54.2872L54.2872 0L65.1446 10.8574L108.574 54.2872Z" fill="#06B4C7"/>
<path opacity="0.3" d="M108.574 54.2872H0L54.2872 0L65.1446 10.8574L108.574 54.2872Z" fill="white"/>
<path opacity="0.2" d="M108.574 54.2872L54.2871 108.574V0L65.1445 10.8574L108.574 54.2872Z" fill="white"/>
<path d="M68.5223 94.4597H40.1724V101.939H68.5223V94.4597Z" fill="#E1E1E1"/>
<path d="M83.4817 101.94H24.9722V121.001H83.4817V101.94Z" fill="#473421"/>
<path opacity="0.2" d="M83.4816 101.939V121H54.1665V94.4597H68.5224V101.939H83.4816Z" fill="white"/>
<path d="M87.3422 40.7756C88.1867 41.6201 88.1867 42.9471 87.3422 43.7916C86.4977 44.6361 85.1707 44.6361 84.3262 43.7916L62.8526 22.318C62.0081 21.4735 62.0081 20.1465 62.8526 19.3021C63.6971 18.4576 65.0241 18.4576 65.8685 19.3021L87.3422 40.7756Z" fill="white"/>
<path d="M94.2183 48.1344C94.2183 49.4614 93.1326 50.4265 91.9262 50.4265C90.7198 50.4265 89.634 49.3407 89.634 48.1344C89.634 46.8073 90.7198 45.8423 91.9262 45.8423C93.1326 45.8423 94.2183 46.928 94.2183 48.1344Z" fill="white"/>
</svg>
