<svg width="46" height="46" viewBox="0 0 46 46" fill="none" xmlns="http://www.w3.org/2000/svg">
<path d="M35.9375 17.25H34.5V11.5C34.5 5.15759 29.3424 0 23 0C16.6576 0 11.5 5.15759 11.5 11.5V17.25H10.0625C7.68585 17.25 5.75 19.1837 5.75 21.5625V41.6875C5.75 44.0663 7.68585 46 10.0625 46H35.9375C38.3141 46 40.25 44.0663 40.25 41.6875V21.5625C40.25 19.1837 38.3141 17.25 35.9375 17.25ZM15.3335 11.5C15.3335 7.27173 18.7717 3.83345 23 3.83345C27.2283 3.83345 30.6665 7.27173 30.6665 11.5V17.25H15.3335V11.5Z" fill="#505050"/>
</svg>
