<svg width="151" height="58" viewBox="0 0 151 58" fill="none" xmlns="http://www.w3.org/2000/svg">
<g clip-path="url(#clip0)">
<path d="M8.68666 18.1607C8.65363 17.8439 8.62059 17.5463 8.58205 17.1857C8.96471 17.1625 9.24138 17.129 9.51667 17.129C11.1987 17.1239 12.8794 17.093 14.5614 17.1342C18.1746 17.2243 21.1767 15.0683 22.3536 12.2001C24.0467 8.0812 21.7576 3.74339 17.7645 2.27771C16.6537 1.87072 15.5291 1.66851 14.3494 1.66851C10.4155 1.67108 6.48294 1.66851 2.549 1.66851C2.32601 1.66851 2.10578 1.6582 1.88141 1.67623C1.26889 1.7226 1.18905 1.80503 1.15877 2.3859C1.15051 2.56363 1.15877 2.74137 1.15877 2.92039C1.15877 9.62932 1.15877 16.3344 1.15877 23.0433C1.15877 23.391 1.15877 23.7401 1.15877 24.1342C0.743075 24.1342 0.447134 24.1342 0.171841 24.1342C-0.02637 23.4065 -0.0676638 1.83465 0.125041 0.800431C0.430617 0.764369 0.767851 0.692244 1.10096 0.692244C5.66807 0.684516 10.2352 0.725731 14.8037 0.676789C18.9689 0.632999 22.6014 3.36216 23.6516 6.91819C24.6881 10.4278 23.8113 13.591 20.9028 16.1283C19.5084 17.348 17.7576 18.0036 15.9049 18.1221C13.5497 18.2766 11.1643 18.1607 8.68666 18.1607Z" fill="white"/>
<path d="M2.34033 24.1294C2.34033 16.9877 2.34033 9.90786 2.34033 2.76361C2.66518 2.73785 2.93909 2.69921 3.21439 2.69921C7.14833 2.69406 11.0781 2.69149 15.0121 2.69921C17.7691 2.70436 20.4615 4.6775 21.3934 7.00096C21.9082 8.28505 21.9618 9.59876 21.6687 10.8442C21.1194 13.1754 19.6728 14.9373 17.1511 15.7294C16.5633 15.9149 15.9302 16.0488 15.3121 16.0617C13.3135 16.1029 11.3149 16.0823 9.31901 16.0771C9.01069 16.0771 8.65143 16.1287 8.57985 15.7062C8.52204 15.3585 8.74227 15.079 9.14833 15.0429C9.49245 15.012 9.8462 15.03 10.1931 15.03C11.7774 15.0275 13.3658 14.9965 14.9501 15.0352C17.4002 15.0944 19.5448 13.4871 20.2399 11.5667C21.4608 8.18845 20.1077 5.76067 17.2488 4.24218C16.7024 3.9511 15.9976 3.8017 15.3631 3.79397C11.5585 3.75018 7.7526 3.76821 3.94529 3.76563C3.82141 3.76563 3.69753 3.79397 3.46077 3.82488C3.436 4.19066 3.3892 4.56288 3.3892 4.93123C3.38369 10.897 3.38644 16.8602 3.38644 22.826C3.38644 23.0346 3.3947 23.2407 3.38369 23.4506C3.35203 24.1397 3.28046 24.1886 2.34033 24.1294Z" fill="white"/>
<path d="M5.52419 24.1308C5.12502 24.1308 4.83183 24.1308 4.47119 24.1308C4.47119 17.6987 4.47119 11.335 4.47119 4.88495C4.82357 4.85146 5.15805 4.78964 5.49391 4.78964C8.57031 4.78192 11.6495 4.85662 14.7231 4.76388C17.2971 4.68661 19.4334 6.69065 19.7073 8.89047C19.9468 10.8147 18.8663 13.1999 16.3639 13.8117C15.6991 13.974 15.0053 14.0848 14.3185 14.1028C12.7975 14.1466 11.2723 14.1157 9.75132 14.1157C9.43748 14.1157 9.12227 14.1157 8.84148 14.1157C8.41202 13.218 8.51388 13.0454 9.42923 13.0402C11.1416 13.0325 12.8553 12.9964 14.5676 13.048C16.4561 13.1046 17.9523 11.9906 18.4134 10.539C18.8677 9.10556 18.4547 7.64502 17.0053 6.52322C16.3432 6.00933 15.5669 5.78522 14.7259 5.78007C11.9661 5.76719 9.20761 5.77234 6.4478 5.78007C6.17251 5.78007 5.89859 5.84189 5.52694 5.88568C5.52419 11.9931 5.52419 18.0362 5.52419 24.1308Z" fill="white"/>
<path d="M8.65117 11.8615C8.60988 11.0385 8.66494 10.9458 9.38758 10.9406C11.0696 10.9252 12.7503 10.9381 14.4323 10.9329C14.7489 10.9329 15.0724 10.9355 15.378 10.8762C15.8405 10.7861 16.1832 10.5362 16.241 10.0584C16.2768 9.76473 16.3098 9.46463 16.2933 9.17098C16.2383 8.24237 15.8226 7.8766 14.7751 7.86372C13.1577 7.84826 11.539 7.85856 9.92165 7.85856C9.26233 7.85856 8.60162 7.85856 7.85145 7.85856C7.82392 8.31192 7.77987 8.68671 7.77987 9.06022C7.77437 13.6621 7.77712 18.2626 7.77712 22.8619C7.77712 23.0705 7.78813 23.2766 7.77437 23.4865C7.73032 24.1395 7.6202 24.2065 6.72412 24.0983C6.72412 18.3695 6.72412 12.6317 6.72412 6.84366C7.02694 6.82048 7.27333 6.78699 7.51834 6.78699C9.89688 6.78441 12.2754 6.79729 14.6553 6.78184C15.8074 6.77411 16.6292 7.22232 17.1963 8.15608C17.8914 9.30364 17.3835 11.1943 16.1736 11.819C15.9891 11.9143 15.7579 11.9633 15.5445 11.9633C13.3257 11.971 11.1068 11.9658 8.88517 11.9607C8.82736 11.9594 8.76955 11.9156 8.65117 11.8615Z" fill="white"/>
<path d="M106.654 5.88937C106.448 6.04392 106.258 6.1856 106.028 6.35561C105.843 6.21393 105.664 6.09802 105.516 5.95892C104.832 5.31881 104.204 4.62331 103.47 4.03987C102.098 2.94383 100.482 2.30629 98.727 1.889C96.8164 1.43564 94.9403 1.51034 93.0986 2.00749C90.08 2.82534 87.6519 4.44429 86.0786 7.03951C84.921 8.94567 84.2066 11.009 84.4379 13.2191C84.8948 17.5878 87.1522 20.8244 91.5033 22.6971C93.7827 23.6772 96.164 23.8627 98.5604 23.4145C101.14 22.9328 103.337 21.7067 105.071 19.8185C105.236 19.6408 105.366 19.4347 105.531 19.2583C105.836 18.9389 106.154 18.9054 106.435 19.1604C106.727 19.4283 106.589 19.6266 106.369 19.9087C105.033 21.6165 103.262 22.7873 101.239 23.6643C98.9816 24.6445 96.581 24.8608 94.1846 24.5079C91.6987 24.1396 89.4441 23.1337 87.5748 21.5032C85.8405 19.995 84.6416 18.179 83.9396 16.041C83.2775 14.0266 83.1839 11.9762 83.6973 9.99278C84.6237 6.40455 86.8233 3.64576 90.409 1.93021C93.0876 0.651281 95.919 0.320281 98.8109 0.870235C102.025 1.48201 104.637 3.08808 106.57 5.60602C106.599 5.65496 106.602 5.72194 106.654 5.88937Z" fill="white"/>
<path d="M104.966 18.4063C102.248 22.1156 97.4384 23.5878 92.9209 22.2496C88.4005 20.9088 85.4508 17.1815 85.4453 12.635C85.4425 8.09116 88.3262 4.46687 92.5795 3.12869C97.3008 1.64111 102.164 3.00247 105.027 6.93072C104.831 7.093 104.633 7.26301 104.389 7.46522C104.21 7.339 104.004 7.24626 103.875 7.09686C103.224 6.33311 102.494 5.65565 101.617 5.12115C100.479 4.42694 99.3104 3.83449 97.9133 3.73145C97.2595 3.68251 96.6015 3.4378 95.9642 3.49189C92.2299 3.81131 89.2801 5.31048 87.543 8.5677C86.8259 9.91103 86.3771 11.32 86.4707 12.8154C86.669 15.9979 88.1142 18.5261 91.0076 20.3202C93.2925 21.7357 95.8224 21.907 98.3538 21.4961C100.41 21.1638 102.175 20.0807 103.533 18.5274C103.594 18.4579 103.657 18.3935 103.718 18.3239C104.277 17.7057 104.356 17.7108 104.966 18.4063Z" fill="white"/>
<path d="M103.289 8.10958C102.981 8.25383 102.731 8.36717 102.462 8.49339C101.508 7.30204 100.331 6.39146 98.8262 5.91878C95.8021 4.97214 93.0684 5.468 90.7862 7.56993C87.0133 11.0435 88.1159 17.066 93.0547 19.1653C96.1228 20.4674 99.6094 19.7385 101.878 17.406C101.941 17.3416 101.972 17.2514 102.032 17.187C102.558 16.6319 102.686 16.6371 103.239 17.2283C101.762 19.826 97.8337 21.2415 94.9968 20.7637C90.0952 19.9381 87.535 16.261 87.4937 12.696C87.4469 8.64923 90.5481 5.307 94.4752 4.59992C98.0856 3.95208 101.636 5.38171 103.289 8.10958Z" fill="white"/>
<path d="M100.862 15.651C101.648 16.1804 101.667 16.2577 101.167 16.7729C97.554 20.5002 91.5168 18.9443 89.916 14.6941C88.8382 11.8336 90.183 8.24664 93.5044 6.9046C96.128 5.84462 99.1769 6.3804 101.123 8.48362C101.692 9.0954 101.689 9.11601 100.807 9.56421C99.3379 7.80488 97.353 7.15832 95.0075 7.51122C93.7371 7.70184 92.7446 8.36513 91.8871 9.26541C90.1638 11.0737 90.117 14.452 92.2064 16.3375C93.4659 17.4722 94.9662 18.0299 96.7295 17.8676C98.4391 17.7066 99.7426 16.8579 100.862 15.651Z" fill="white"/>
<path d="M112.629 0.406006C112.973 0.406006 113.274 0.406006 113.555 0.406006C113.795 1.09506 113.83 23.647 113.594 24.5602C113.305 24.5602 113 24.5602 112.626 24.5602C112.629 16.5079 112.629 8.48659 112.629 0.406006Z" fill="white"/>
<path d="M109.192 24.5643C108.919 24.5771 108.618 24.59 108.246 24.6055C108.246 16.5069 108.246 8.48293 108.246 0.402344C108.593 0.402344 108.894 0.402344 109.183 0.402344C109.42 1.09784 109.437 23.6794 109.192 24.5643Z" fill="white"/>
<path d="M111.397 0.453987C111.397 8.50882 111.397 16.5044 111.397 24.4897C110.512 24.6339 110.446 24.5953 110.393 23.8934C110.374 23.6564 110.385 23.4194 110.385 23.1811C110.385 16.0343 110.385 8.88748 110.385 1.73807C110.385 1.50109 110.374 1.26411 110.396 1.02584C110.454 0.410197 110.542 0.358679 111.397 0.453987Z" fill="white"/>
<path d="M115.697 24.559C114.898 24.5745 114.84 24.5436 114.779 23.9756C114.752 23.7128 114.763 23.4411 114.763 23.1758C114.763 16.0341 114.763 8.88984 114.763 1.74817C114.763 1.48285 114.749 1.21109 114.782 0.948353C114.851 0.40355 114.953 0.357182 115.678 0.451202C115.863 1.12094 115.89 23.6021 115.697 24.559Z" fill="white"/>
<path d="M117.36 24.4613C118.129 22.6736 118.875 20.9619 119.598 19.2387C120.18 17.849 120.72 16.4425 121.296 15.0528C121.876 13.6554 122.481 12.2696 123.066 10.8747C123.684 9.40002 124.287 7.91888 124.903 6.44418C125.689 4.5612 126.473 2.67822 127.267 0.800387C127.545 0.139669 128.144 0.385669 128.766 0.347031C132.176 8.37353 135.495 16.4206 138.923 24.5605C138.382 24.5605 138.049 24.5605 137.683 24.5605C134.554 17.0916 131.434 9.64731 128.25 2.04455C128.008 2.36653 127.793 2.56617 127.69 2.80572C126.51 5.58383 125.339 8.36065 124.184 11.1491C123.06 13.8602 121.965 16.5803 120.843 19.294C120.201 20.8499 119.534 22.3941 118.875 23.9448C118.567 24.6609 118.437 24.7099 117.36 24.4613Z" fill="white"/>
<path d="M134.82 0.524804C135.683 0.117813 136.044 0.411468 136.306 1.02711C137.361 3.5077 138.417 5.98957 139.454 8.47789C140.57 11.1607 141.65 13.8525 142.769 16.5353C143.759 18.9025 144.782 21.2582 145.78 23.6229C145.893 23.8882 145.928 24.1831 146 24.4562C145.035 24.7138 144.966 24.6726 144.669 23.9693C143.654 21.5712 142.615 19.1794 141.609 16.7787C140.889 15.0606 140.223 13.3257 139.503 11.6076C138.646 9.55976 137.744 7.52481 136.885 5.47697C136.286 4.05894 135.727 2.62416 135.145 1.20098C135.056 0.98589 134.946 0.782394 134.82 0.524804Z" fill="white"/>
<path d="M141.162 24.5773C140.729 24.5773 140.42 24.5773 140.078 24.5773C136.713 16.538 133.358 8.52435 130.001 0.508161C131.079 0.168143 131.156 0.348454 131.514 1.12251C132.102 2.39372 132.605 3.69712 133.149 4.98636C133.792 6.51129 134.447 8.0272 135.082 9.55342C135.777 11.2226 136.446 12.8982 137.144 14.5674C138.15 16.9681 139.175 19.3599 140.19 21.758C140.487 22.4651 140.786 23.1735 141.061 23.8883C141.131 24.0712 141.12 24.285 141.162 24.5773Z" fill="white"/>
<path d="M143.589 24.553C143.163 24.553 142.834 24.553 142.492 24.553C139.125 16.5188 135.779 8.53353 132.436 0.548254C133.368 0.226267 133.588 0.280359 133.902 0.993883C134.339 1.99462 134.737 3.01081 135.15 4.01927C135.859 5.74512 136.558 7.47226 137.281 9.19296C137.866 10.5827 138.491 11.9556 139.07 13.3453C139.799 15.0866 140.487 16.8421 141.22 18.5834C141.946 20.3067 142.706 22.0132 143.434 23.7365C143.533 23.9722 143.533 24.2401 143.589 24.553Z" fill="white"/>
<path d="M128.165 4.44556C128.857 5.05991 128.995 5.58539 128.628 6.34142C127.963 7.70535 127.437 9.12983 126.849 10.5273C126.105 12.2943 125.356 14.0601 124.617 15.8297C123.77 17.8544 122.932 19.8816 122.095 21.9089C121.8 22.6185 121.521 23.3346 121.226 24.0443C120.97 24.6612 120.767 24.7179 119.793 24.4487C122.575 17.8003 125.357 11.1583 128.165 4.44556Z" fill="white"/>
<path d="M122.225 24.411C124.598 18.7338 126.971 13.0604 129.348 7.37793C130.002 7.85189 130.217 8.35806 129.963 8.96468C129.144 10.9352 128.303 12.8955 127.475 14.8609C126.873 16.2789 126.27 17.6957 125.677 19.1163C124.985 20.7777 124.318 22.4482 123.621 24.1097C123.385 24.6699 123.137 24.7189 122.225 24.411Z" fill="white"/>
<path d="M124.635 24.4185C126.603 19.7058 128.568 14.9971 130.541 10.269C131.206 10.8241 131.376 11.3471 131.101 11.9897C129.839 14.9585 128.566 17.9195 127.302 20.8882C126.875 21.8966 126.461 22.9077 126.054 23.9239C125.751 24.6799 125.616 24.7417 124.635 24.4185Z" fill="white"/>
<path d="M135.769 21.5809C133.055 21.5809 130.438 21.5809 127.806 21.5809C128.095 20.6085 128.128 20.575 129.058 20.5725C130.864 20.5673 132.671 20.5673 134.477 20.5725C135.351 20.5776 135.351 20.5905 135.769 21.5809Z" fill="white"/>
<path d="M134.686 19.549C134.457 19.5774 134.212 19.6289 133.968 19.6315C132.516 19.6392 131.063 19.6444 129.611 19.6315C128.709 19.6237 128.67 19.5568 128.965 18.6101C129.243 18.5921 129.553 18.5535 129.858 18.5535C131.214 18.5483 132.573 18.5354 133.93 18.5612C134.719 18.5766 134.793 18.7003 134.686 19.549Z" fill="white"/>
<path d="M133.923 17.4534C132.515 17.4534 131.102 17.4534 129.697 17.4534C129.592 16.5171 129.661 16.4295 130.563 16.4166C131.385 16.4038 132.206 16.4038 133.027 16.4166C133.734 16.4295 133.928 16.6562 133.923 17.4534Z" fill="white"/>
<path d="M38.971 23.4137V6.55188C38.971 6.10367 38.5829 5.73661 38.0997 5.73661H33.3537C32.8747 5.73661 32.4824 5.37341 32.4824 4.92134V1.59457C32.4824 1.14636 32.8705 0.779297 33.3537 0.779297H50.3062C50.7852 0.779297 51.1775 1.1425 51.1775 1.59457V4.92134C51.1775 5.36955 50.7894 5.73661 50.3062 5.73661H45.5602C45.0812 5.73661 44.6889 6.09981 44.6889 6.55188V23.415C44.6889 23.8632 44.3007 24.2303 43.8176 24.2303H39.8423C39.362 24.229 38.971 23.8632 38.971 23.4137Z" fill="white"/>
<path d="M71.6172 24.2301H67.3502C67.0143 24.2301 66.7046 24.0472 66.5615 23.7612L63.0446 16.7484C62.5738 15.8842 61.8237 15.4514 60.8009 15.4514H59.9489C59.4699 15.4514 59.0776 15.8146 59.0776 16.2667V23.4161C59.0776 23.8643 58.6894 24.2313 58.2063 24.2313H54.3825C53.9035 24.2313 53.5112 23.8681 53.5112 23.4161V1.59823C53.5112 1.15002 53.8993 0.782959 54.3825 0.782959H63.8429C66.4665 0.782959 68.4403 1.39989 69.7604 2.62988C71.0831 3.85987 71.7425 5.63981 71.7425 7.96842C71.7425 9.74322 71.291 11.2437 70.3894 12.4737C69.8127 13.2606 69.0831 13.884 68.2036 14.3386C67.6805 14.6091 67.5966 15.2981 68.0577 15.6562C68.6399 16.107 69.141 16.7497 69.5594 17.5778L72.3991 23.058C72.6812 23.6015 72.2628 24.2301 71.6172 24.2301ZM65.6447 10.2275C66.1871 9.80762 66.461 9.11856 66.461 8.16677C66.461 7.19179 66.1884 6.48728 65.6447 6.05453C65.101 5.62178 64.2036 5.40669 62.9551 5.40669H59.8897C59.4107 5.40669 59.0184 5.7699 59.0184 6.22197V10.0472C59.0184 10.4954 59.4066 10.8624 59.8897 10.8624H62.9551C64.2022 10.8599 65.101 10.6512 65.6447 10.2275Z" fill="white"/>
<path d="M75.2563 23.4148V1.59823C75.2563 1.15002 75.6445 0.782959 76.1277 0.782959H80.0451C80.5241 0.782959 80.9164 1.14616 80.9164 1.59823V23.4148C80.9164 23.863 80.5282 24.2301 80.0451 24.2301H76.1277C75.6459 24.2301 75.2563 23.8643 75.2563 23.4148Z" fill="white"/>
<path d="M26.454 0.607666H23.1381C22.7829 0.607666 22.4622 0.808586 22.3301 1.11898L22.1016 1.64833C21.975 1.9394 22.0383 2.27814 22.2695 2.50482C23.6556 3.86103 24.6343 5.5843 25.0266 7.50077C25.0348 7.5394 25.0459 7.58062 25.0624 7.61926L27.3996 13.5129C27.6116 14.0448 27.1904 14.6115 26.5834 14.6115H24.1002C23.8139 14.6115 23.54 14.7378 23.3776 14.9593C21.4615 17.5931 18.2337 19.3254 14.5792 19.3254H14.4691L12.9109 22.933C12.6797 23.47 13.1009 24.0522 13.7189 24.0522H17.5125C17.8758 24.0522 18.2021 23.841 18.3287 23.5229L19.8414 19.726C19.9681 19.4066 20.2929 19.1966 20.6577 19.1966H29.0431C29.4065 19.1966 29.7327 19.4079 29.8594 19.726L31.3721 23.5229C31.4987 23.8423 31.8236 24.0522 32.1883 24.0522H35.8869C36.5049 24.0522 36.9261 23.4662 36.6949 22.933L27.2523 1.11512C27.1257 0.808586 26.8091 0.607666 26.454 0.607666Z" fill="white"/>
<path d="M8.68666 18.1607C8.65363 17.8439 8.62059 17.5463 8.58205 17.1857C8.96471 17.1625 9.24138 17.129 9.51667 17.129C11.1987 17.1239 12.8794 17.093 14.5614 17.1342C18.1746 17.2243 21.1767 15.0683 22.3536 12.2001C24.0467 8.0812 21.7576 3.74339 17.7645 2.27771C16.6537 1.87072 15.5291 1.66851 14.3494 1.66851C10.4155 1.67108 6.48294 1.66851 2.549 1.66851C2.32601 1.66851 2.10578 1.6582 1.88141 1.67623C1.26889 1.7226 1.18905 1.80503 1.15877 2.3859C1.15051 2.56363 1.15877 2.74137 1.15877 2.92039C1.15877 9.62932 1.15877 16.3344 1.15877 23.0433C1.15877 23.391 1.15877 23.7401 1.15877 24.1342C0.743075 24.1342 0.447134 24.1342 0.171841 24.1342C-0.02637 23.4065 -0.0676638 1.83465 0.125041 0.800431C0.430617 0.764369 0.767851 0.692244 1.10096 0.692244C5.66807 0.684516 10.2352 0.725731 14.8037 0.676789C18.9689 0.632999 22.6014 3.36216 23.6516 6.91819C24.6881 10.4278 23.8113 13.591 20.9028 16.1283C19.5084 17.348 17.7576 18.0036 15.9049 18.1221C13.5497 18.2766 11.1643 18.1607 8.68666 18.1607Z" fill="white"/>
<path d="M2.34033 24.1294C2.34033 16.9877 2.34033 9.90786 2.34033 2.76361C2.66518 2.73785 2.93909 2.69921 3.21439 2.69921C7.14833 2.69406 11.0781 2.69149 15.0121 2.69921C17.7691 2.70436 20.4615 4.6775 21.3934 7.00096C21.9082 8.28505 21.9618 9.59876 21.6687 10.8442C21.1194 13.1754 19.6728 14.9373 17.1511 15.7294C16.5633 15.9149 15.9302 16.0488 15.3121 16.0617C13.3135 16.1029 11.3149 16.0823 9.31901 16.0771C9.01069 16.0771 8.65143 16.1287 8.57985 15.7062C8.52204 15.3585 8.74227 15.079 9.14833 15.0429C9.49245 15.012 9.8462 15.03 10.1931 15.03C11.7774 15.0275 13.3658 14.9965 14.9501 15.0352C17.4002 15.0944 19.5448 13.4871 20.2399 11.5667C21.4608 8.18845 20.1077 5.76067 17.2488 4.24218C16.7024 3.9511 15.9976 3.8017 15.3631 3.79397C11.5585 3.75018 7.7526 3.76821 3.94529 3.76563C3.82141 3.76563 3.69753 3.79397 3.46077 3.82488C3.436 4.19066 3.3892 4.56288 3.3892 4.93123C3.38369 10.897 3.38644 16.8602 3.38644 22.826C3.38644 23.0346 3.3947 23.2407 3.38369 23.4506C3.35203 24.1397 3.28046 24.1886 2.34033 24.1294Z" fill="white"/>
<path d="M5.52419 24.1308C5.12502 24.1308 4.83183 24.1308 4.47119 24.1308C4.47119 17.6987 4.47119 11.335 4.47119 4.88495C4.82357 4.85146 5.15805 4.78964 5.49391 4.78964C8.57031 4.78192 11.6495 4.85662 14.7231 4.76388C17.2971 4.68661 19.4334 6.69065 19.7073 8.89047C19.9468 10.8147 18.8663 13.1999 16.3639 13.8117C15.6991 13.974 15.0053 14.0848 14.3185 14.1028C12.7975 14.1466 11.2723 14.1157 9.75132 14.1157C9.43748 14.1157 9.12227 14.1157 8.84148 14.1157C8.41202 13.218 8.51388 13.0454 9.42923 13.0402C11.1416 13.0325 12.8553 12.9964 14.5676 13.048C16.4561 13.1046 17.9523 11.9906 18.4134 10.539C18.8677 9.10556 18.4547 7.64502 17.0053 6.52322C16.3432 6.00933 15.5669 5.78522 14.7259 5.78007C11.9661 5.76719 9.20761 5.77234 6.4478 5.78007C6.17251 5.78007 5.89859 5.84189 5.52694 5.88568C5.52419 11.9931 5.52419 18.0362 5.52419 24.1308Z" fill="white"/>
<path d="M8.65117 11.8615C8.60988 11.0385 8.66494 10.9458 9.38758 10.9406C11.0696 10.9252 12.7503 10.9381 14.4323 10.9329C14.7489 10.9329 15.0724 10.9355 15.378 10.8762C15.8405 10.7861 16.1832 10.5362 16.241 10.0584C16.2768 9.76473 16.3098 9.46463 16.2933 9.17098C16.2383 8.24237 15.8226 7.8766 14.7751 7.86372C13.1577 7.84826 11.539 7.85856 9.92165 7.85856C9.26233 7.85856 8.60162 7.85856 7.85145 7.85856C7.82392 8.31192 7.77987 8.68671 7.77987 9.06022C7.77437 13.6621 7.77712 18.2626 7.77712 22.8619C7.77712 23.0705 7.78813 23.2766 7.77437 23.4865C7.73032 24.1395 7.6202 24.2065 6.72412 24.0983C6.72412 18.3695 6.72412 12.6317 6.72412 6.84366C7.02694 6.82048 7.27333 6.78699 7.51834 6.78699C9.89688 6.78441 12.2754 6.79729 14.6553 6.78184C15.8074 6.77411 16.6292 7.22232 17.1963 8.15608C17.8914 9.30364 17.3835 11.1943 16.1736 11.819C15.9891 11.9143 15.7579 11.9633 15.5445 11.9633C13.3257 11.971 11.1068 11.9658 8.88517 11.9607C8.82736 11.9594 8.76955 11.9156 8.65117 11.8615Z" fill="white"/>
</g>
<path d="M80.872 36.12C80.44 35.288 79.84 34.664 79.072 34.248C78.304 33.816 77.416 33.6 76.408 33.6C75.304 33.6 74.32 33.848 73.456 34.344C72.592 34.84 71.912 35.544 71.416 36.456C70.936 37.368 70.696 38.424 70.696 39.624C70.696 40.824 70.936 41.888 71.416 42.816C71.912 43.728 72.592 44.432 73.456 44.928C74.32 45.424 75.304 45.672 76.408 45.672C77.896 45.672 79.104 45.256 80.032 44.424C80.96 43.592 81.528 42.464 81.736 41.04H75.472V38.856H84.664V40.992C84.488 42.288 84.024 43.48 83.272 44.568C82.536 45.656 81.568 46.528 80.368 47.184C79.184 47.824 77.864 48.144 76.408 48.144C74.84 48.144 73.408 47.784 72.112 47.064C70.816 46.328 69.784 45.312 69.016 44.016C68.264 42.72 67.888 41.256 67.888 39.624C67.888 37.992 68.264 36.528 69.016 35.232C69.784 33.936 70.816 32.928 72.112 32.208C73.424 31.472 74.856 31.104 76.408 31.104C78.184 31.104 79.76 31.544 81.136 32.424C82.528 33.288 83.536 34.52 84.16 36.12H80.872ZM97.4185 44.592H90.4345L89.2345 48H86.3785L92.3545 31.296H95.5225L101.499 48H98.6185L97.4185 44.592ZM96.6505 42.36L93.9385 34.608L91.2025 42.36H96.6505ZM121.665 31.32V48H118.929V36.576L113.841 48H111.945L106.833 36.576V48H104.097V31.32H107.049L112.905 44.4L118.737 31.32H121.665ZM127.997 33.528V38.424H133.757V40.656H127.997V45.768H134.477V48H125.261V31.296H134.477V33.528H127.997ZM143.343 48.168C142.223 48.168 141.215 47.976 140.319 47.592C139.423 47.192 138.719 46.632 138.207 45.912C137.695 45.192 137.439 44.352 137.439 43.392H140.367C140.431 44.112 140.711 44.704 141.207 45.168C141.719 45.632 142.431 45.864 143.343 45.864C144.287 45.864 145.023 45.64 145.551 45.192C146.079 44.728 146.343 44.136 146.343 43.416C146.343 42.856 146.175 42.4 145.839 42.048C145.519 41.696 145.111 41.424 144.615 41.232C144.135 41.04 143.463 40.832 142.599 40.608C141.511 40.32 140.623 40.032 139.935 39.744C139.263 39.44 138.687 38.976 138.207 38.352C137.727 37.728 137.487 36.896 137.487 35.856C137.487 34.896 137.727 34.056 138.207 33.336C138.687 32.616 139.359 32.064 140.223 31.68C141.087 31.296 142.087 31.104 143.223 31.104C144.839 31.104 146.159 31.512 147.183 32.328C148.223 33.128 148.799 34.232 148.911 35.64H145.887C145.839 35.032 145.551 34.512 145.023 34.08C144.495 33.648 143.799 33.432 142.935 33.432C142.151 33.432 141.511 33.632 141.015 34.032C140.519 34.432 140.271 35.008 140.271 35.76C140.271 36.272 140.423 36.696 140.727 37.032C141.047 37.352 141.447 37.608 141.927 37.8C142.407 37.992 143.063 38.2 143.895 38.424C144.999 38.728 145.895 39.032 146.583 39.336C147.287 39.64 147.879 40.112 148.359 40.752C148.855 41.376 149.103 42.216 149.103 43.272C149.103 44.12 148.871 44.92 148.407 45.672C147.959 46.424 147.295 47.032 146.415 47.496C145.551 47.944 144.527 48.168 143.343 48.168Z" fill="white"/>
<defs>
<clipPath id="clip0">
<rect width="146" height="25" fill="white"/>
</clipPath>
</defs>
</svg>
