<svg width="124" height="124" viewBox="0 0 124 124" fill="none" xmlns="http://www.w3.org/2000/svg">
<path d="M110.321 112.199C91.3472 127.688 32.1014 127.688 13.5143 112.199C-5.45984 96.7101 -3.52373 30.4942 13.5143 13.0689C30.5524 -4.35631 93.2833 -4.35631 110.321 13.0689C127.36 30.4942 129.296 96.7104 110.321 112.199Z" fill="#30359C"/>
<path d="M62.3883 85.2773C45.3502 98.8303 26.376 105.8 8.56357 106.188C-4.60229 83.7283 -1.89158 29.1293 13.5976 13.253C27.5378 -1.0744 71.2945 -3.78512 96.4644 5.12109C102.66 30.6782 89.8815 63.2052 62.3883 85.2773Z" fill="#28258A"/>
<path d="M70.4462 77.8029H53.7953V69.671C53.7953 66.5732 54.1824 64.2499 54.9571 63.0881C55.7314 61.5392 57.2803 59.6031 59.9911 56.8923L67.3483 49.1479C68.5101 47.9861 68.8973 46.05 68.8973 44.1139C68.8973 42.1778 68.5101 40.2417 66.9612 39.0799C65.7994 37.531 64.2504 37.1438 62.3143 37.1438C60.3782 37.1438 58.8293 37.9181 57.6675 39.4671C56.5057 41.016 55.7314 43.3393 55.3442 46.05H37.9189C38.6933 38.6927 41.404 32.8841 46.0508 29.0119C50.6977 25.1397 56.1188 22.8162 63.0889 22.8162C70.0591 22.8162 75.4802 24.7523 79.7399 28.2373C83.9993 32.1095 86.3228 37.1435 86.3228 43.7265C86.3228 46.8243 85.9357 48.7605 85.1611 50.3094C84.3867 51.8583 83.9993 52.6327 83.6121 53.4073C83.2249 54.1816 82.4503 54.9562 81.676 56.118C80.5142 57.2798 79.7399 58.0541 79.3527 58.4413C77.4166 60.3774 75.8677 61.9263 74.3187 63.4753C72.7698 65.0242 71.608 66.186 71.2208 67.3475C70.8337 68.5093 70.4465 69.6708 70.4465 71.6069V77.8029H70.4462ZM52.6338 91.7431C52.6338 86.3219 56.8932 82.0623 62.3146 82.0623C67.736 82.0623 71.9954 86.3217 71.9954 91.7431C71.9954 97.1645 67.736 101.424 62.3146 101.424C56.8932 101.424 52.6338 97.1643 52.6338 91.7431Z" fill="white"/>
</svg>
