<svg width="871" height="871" viewBox="0 0 871 871" fill="none" xmlns="http://www.w3.org/2000/svg">
<g opacity="0.2">
<path opacity="0.4" d="M775.492 789.4C642.213 898.199 226.059 898.199 95.5001 789.4C-37.7782 680.602 -24.1786 215.488 95.5001 93.09C215.179 -29.3082 655.813 -29.3082 775.492 93.09C895.17 215.488 908.77 680.604 775.492 789.4Z" fill="#30359C"/>
<path opacity="0.4" d="M438.227 599.003C318.548 694.203 185.27 743.162 60.1522 745.881C-32.3274 588.123 -13.2868 204.609 95.5119 93.091C193.431 -7.54719 500.786 -26.5878 677.585 35.9712C721.103 215.489 631.345 443.965 438.227 599.003Z" fill="#28258A"/>
<path opacity="0.4" d="M495.339 547.325H378.379V490.205C378.379 468.445 381.099 452.126 386.54 443.965C391.979 433.085 402.859 419.486 421.9 400.445L473.579 346.047C481.739 337.886 484.459 324.286 484.459 310.687C484.459 297.087 481.739 283.488 470.859 275.327C462.698 264.447 451.818 261.728 438.219 261.728C424.619 261.728 413.739 267.167 405.579 278.047C397.418 288.927 391.979 305.246 389.259 324.286H266.861C272.3 272.608 291.341 231.807 323.981 204.608C356.621 177.408 394.7 161.087 443.66 161.087C492.619 161.087 530.699 174.687 560.619 199.167C590.538 226.366 606.859 261.726 606.859 307.965C606.859 329.726 604.14 343.325 598.699 354.205C593.259 365.085 590.538 370.524 587.818 375.965C585.099 381.404 579.658 386.845 574.219 395.006C566.058 403.166 560.619 408.606 557.9 411.325C544.3 424.925 533.42 435.805 522.54 446.685C511.66 457.565 503.499 465.725 500.78 473.884C498.06 482.045 495.341 490.203 495.341 503.803V547.325H495.339ZM370.221 645.244C370.221 607.164 400.139 577.244 438.221 577.244C476.302 577.244 506.221 607.162 506.221 645.244C506.221 683.325 476.302 713.243 438.221 713.243C400.139 713.243 370.221 683.323 370.221 645.244Z" fill="white"/>
</g>
</svg>
