<svg width="73" height="59" viewBox="0 0 73 59" fill="none" xmlns="http://www.w3.org/2000/svg">
<path d="M68.4054 8.39266V54.0801H4.61182V8.39266L6.82162 10.9647L21.4761 28.0213L34.3279 11.1001L36.4795 8.25732L38.6312 11.1001L51.5411 28.0213L66.1374 10.9647L68.4054 8.39266Z" fill="#FBF357"/>
<path d="M68.4054 51.9146H4.61182V58.0739H68.4054V51.9146Z" fill="#FBAC00"/>
<path d="M36.4857 20.4688L25.2568 33.5309L36.4794 46.6004L47.7083 33.5383L36.4857 20.4688Z" fill="#FBAC00"/>
<path d="M36.4878 23.7097L28.0171 33.5688L36.4878 43.428L44.9584 33.5688L36.4878 23.7097Z" fill="#06B4C7"/>
<path opacity="0.3" d="M36.4795 23.6899V43.454L44.9698 33.5719L36.4795 23.6899Z" fill="white"/>
<path opacity="0.3" d="M44.9704 33.5719H27.9897L36.4801 23.6899L44.9704 33.5719Z" fill="white"/>
<path d="M15.8366 34.7222C15.8366 36.6851 14.4409 38.3095 12.7545 38.3095C11.068 38.3095 9.67236 36.6851 9.67236 34.7222C9.67236 32.7593 11.068 31.1349 12.7545 31.1349C14.499 31.1349 15.8366 32.6916 15.8366 34.7222Z" fill="#FBAC00"/>
<path d="M64.2765 34.7222C64.2765 36.6851 62.8808 38.3095 61.1944 38.3095C59.508 38.3095 58.1123 36.6851 58.1123 34.7222C58.1123 32.7593 59.508 31.1349 61.1944 31.1349C62.939 31.1349 64.2765 32.6916 64.2765 34.7222Z" fill="#FBAC00"/>
<path d="M29.4438 8.25758L36.4803 0L43.575 8.25758L36.4803 16.4475L29.4438 8.25758Z" fill="#FBF357"/>
<path d="M41.0739 8.25746L38.6315 11.1002L36.4798 13.6045L34.3282 11.1002L31.8857 8.25746L36.4798 2.84265L41.0739 8.25746Z" fill="#FBAC00"/>
<path d="M4.60608 2.88407L0 8.24365L4.60477 13.6047L9.21085 8.24517L4.60608 2.88407Z" fill="#FBAC00"/>
<path d="M72.9997 8.25746L68.4056 13.6045L66.1377 10.9649L63.7534 8.25746L68.4056 2.84265L72.9997 8.25746Z" fill="#FBAC00"/>
<path opacity="0.3" d="M72.9994 8.25746L68.4054 13.6045V58.0736H36.4795V2.84265L41.0736 8.25746L38.6311 11.1002L51.5411 28.0215L66.1374 10.9649L63.7531 8.25746L68.4054 2.84265L72.9994 8.25746Z" fill="#FBFBFB"/>
</svg>
