<svg width="110" height="70" viewBox="0 0 110 70" fill="none" xmlns="http://www.w3.org/2000/svg">
<g clip-path="url(#clip0_2894:1757)">
<path d="M25.3551 8.50382C11.3499 13.2011 3.80671 28.3577 8.50399 42.3629C11.0384 49.9195 16.6192 55.5992 23.4301 58.4899C29.238 60.9397 35.9244 61.3734 42.363 59.2139C48.8116 57.0511 53.8843 52.6734 57.0272 47.2105C60.7211 40.8077 61.7486 32.9115 59.2141 25.3549C54.5168 11.3497 39.3602 3.80654 25.3551 8.50382Z" fill="#8A0000"/>
<path d="M54.3507 45.8203C52.7283 45.2873 49.8334 44.4703 46.8695 44.1428C43.909 43.8254 41.4743 41.5658 40.9495 38.6435C40.9361 38.6035 40.9327 38.5603 40.9259 38.507C40.9259 38.507 45.4397 32.5954 43.3388 29.0134C43.3388 29.0134 43.5219 28.9632 43.7847 28.8528C46.2798 27.7494 45.1538 23.8627 42.4711 24.3071C42.4511 24.3138 42.4178 24.3139 42.3979 24.3206L42.1774 23.9281C42.042 20.9418 41.1698 12.0503 35.6978 14.774C35.6978 14.774 29.2884 9.33883 21.6754 15.5458C14.049 21.7462 18.9465 28.799 18.9465 28.799L21.0691 31.5519C18.9175 32.9177 20.3524 36.4676 22.925 35.8602C23.2012 35.7897 23.3876 35.7161 23.3876 35.7161C23.8613 39.8438 31.0268 41.8382 31.0268 41.8382C31.0535 41.8848 31.0669 41.9247 31.0903 41.9613C32.4237 44.6125 31.8438 47.8831 29.6834 49.9181C27.5063 51.9698 25.7029 54.3737 24.7266 55.7673C24.1388 56.5974 23.681 57.5172 23.4232 58.5032C29.2377 60.9396 35.9241 61.3733 42.3627 59.2139C48.8113 57.051 53.884 52.6733 57.0269 47.2104C56.24 46.5859 55.3202 46.1282 54.3507 45.8203Z" fill="white"/>
</g>
<g clip-path="url(#clip1_2894:1757)">
<path d="M67.1336 60.4086C81.0794 65.273 96.3281 57.911 101.192 43.9652C106.057 30.0194 98.6948 14.7707 84.749 9.90633C70.8031 5.04197 55.5545 12.404 50.6901 26.3498C45.8257 40.2956 53.1877 55.5443 67.1336 60.4086Z" fill="#FAF1BB"/>
<path d="M89.9977 58.7322C89.202 57.481 88.0817 56.3893 86.7355 55.5798L80.2979 51.7766C79.6215 51.3813 79.3243 50.5484 79.5875 49.794L80.215 47.9948C87.3418 49.7407 88.8271 48.6798 89.3281 47.2436C90.8089 42.9983 91.4254 32.1566 91.5207 30.3913C92.3249 27.8926 92.3591 26.3432 91.652 24.7264C91.1531 23.5788 90.043 22.965 89.1491 22.4727C88.7998 22.2765 88.315 22.0118 88.162 21.8416C86.7967 20.3457 85.2874 19.3236 83.3152 18.5932C79.0988 17.3137 73.066 18.1763 69.6307 22.402C69.347 22.8093 62.6281 32.4394 60.9205 37.335C60.2082 39.3772 62.1401 41.2583 67.552 43.6983L66.9619 45.3901C66.6988 46.1445 65.9448 46.6109 65.1662 46.4986L57.7535 45.4708C56.2042 45.2738 54.6501 45.4257 53.2521 45.9116C52.8154 46.0673 52.4609 46.3933 52.2743 46.8168C52.0876 47.2403 52.0842 47.717 52.2643 48.1445C55.1645 54.9943 60.8882 60.3364 67.968 62.8059C75.0478 65.2753 82.8555 64.653 89.3835 61.0918C89.7905 60.8691 90.0886 60.4916 90.2026 60.0428C90.3187 59.5983 90.2439 59.1225 89.9977 58.7322Z" fill="#8A0000"/>
</g>
<defs>
<clipPath id="clip0_2894:1757">
<rect width="53.4863" height="53.4863" fill="white" transform="translate(0 17.0078) rotate(-18.5413)"/>
</clipPath>
<clipPath id="clip1_2894:1757">
<rect width="53.4863" height="53.4863" fill="white" transform="translate(59.4978 1.09863) rotate(19.229)"/>
</clipPath>
</defs>
</svg>
