<svg width="60" height="60" viewBox="0 0 60 60" fill="none" xmlns="http://www.w3.org/2000/svg">
<path d="M52.6979 53.6828C43.6344 61.0816 15.3341 61.0816 6.45548 53.6828C-2.60804 46.284 -1.6832 14.6542 6.45548 6.33061C14.5942 -1.99301 44.5592 -1.99301 52.6979 6.33061C60.8366 14.6542 61.7614 46.2841 52.6979 53.6828Z" fill="#8A0000"/>
<path d="M29.7623 40.7349C21.6236 47.2088 12.5601 50.5383 4.05149 50.7232C-2.23752 39.995 -0.942681 13.9143 6.45611 6.33059C13.115 -0.513247 34.0165 -1.80809 46.0396 2.44619C48.9991 14.6542 42.8951 30.1916 29.7623 40.7349Z" fill="#FF0E0E"/>
<path d="M33.6459 37.2204H25.6921V33.336C25.6921 31.8563 25.8771 30.7465 26.2471 30.1915C26.617 29.4516 27.3569 28.5268 28.6517 27.232L32.1661 23.5326C32.7211 22.9777 32.906 22.0528 32.906 21.128C32.906 20.2032 32.7211 19.2783 31.9812 18.7234C31.4262 17.9835 30.6863 17.7986 29.7615 17.7986C28.8367 17.7986 28.0968 18.1684 27.5418 18.9083C26.9869 19.6482 26.617 20.758 26.432 22.0528H18.1084C18.4783 18.5385 19.7731 15.7638 21.9928 13.9142C24.2125 12.0645 26.802 10.9546 30.1315 10.9546C33.461 10.9546 36.0505 11.8794 38.0853 13.5441C40.1199 15.3938 41.2298 17.7984 41.2298 20.9429C41.2298 22.4227 41.0448 23.3476 40.6748 24.0874C40.3049 24.8273 40.1199 25.1972 39.9349 25.5672C39.75 25.9371 39.38 26.3071 39.0101 26.8621C38.4551 27.417 38.0853 27.7869 37.9003 27.9719C36.9755 28.8967 36.2356 29.6366 35.4957 30.3765C34.7558 31.1164 34.2008 31.6713 34.0159 32.2261C33.831 32.7811 33.646 33.3359 33.646 34.2607L33.6459 37.2204ZM25.1373 43.8793C25.1373 41.2898 27.1719 39.255 29.7616 39.255C32.3513 39.255 34.3859 41.2896 34.3859 43.8793C34.3859 46.469 32.3513 48.5036 29.7616 48.5036C27.1719 48.5036 25.1373 46.4689 25.1373 43.8793Z" fill="#FAF1BB"/>
</svg>
